SplineFontDB: 3.2
FontName: Alegreya-Bold
FullName: Alegreya Bold
FamilyName: Alegreya
Weight: Bold
Copyright: Copyright 2011 The Alegreya Project Authors \\(https://github.com/huertatipografica/Alegreya\\)
Version: 002.008
ItalicAngle: 0
UnderlinePosition: -203
UnderlineWidth: 75
Ascent: 800
Descent: 200
InvalidEm: 0
sfntRevision: 0x0002020c
LayerCount: 2
Layer: 0 0 "Back" 1
Layer: 1 0 "Fore" 0
XUID: [1021 596 -667042339 5092104]
StyleMap: 0x0020
FSType: 0
OS2Version: 4
OS2_WeightWidthSlopeOnly: 0
OS2_UseTypoMetrics: 1
CreationTime: 1533728606
ModificationTime: 1730115810
PfmFamily: 81
TTFWeight: 700
TTFWidth: 5
LineGap: 0
VLineGap: 0
Panose: 0 0 8 0 0 0 0 0 0 0
OS2TypoAscent: 1016
OS2TypoAOffset: 0
OS2TypoDescent: -345
OS2TypoDOffset: 0
OS2TypoLinegap: 0
OS2WinAscent: 1123
OS2WinAOffset: 0
OS2WinDescent: 345
OS2WinDOffset: 0
HheadAscent: 1016
HheadAOffset: 0
HheadDescent: -345
HheadDOffset: 0
OS2SubXSize: 650
OS2SubYSize: 600
OS2SubXOff: 0
OS2SubYOff: 75
OS2SupXSize: 650
OS2SupYSize: 600
OS2SupXOff: 0
OS2SupYOff: 350
OS2StrikeYSize: 75
OS2StrikeYPos: 276
OS2CapHeight: 642
OS2XHeight: 461
OS2Vendor: 'HT  '
OS2CodePages: 2000019f.00000000
OS2UnicodeRanges: 6000028f.00000003.00000000.00000000
Lookup: 1 0 0 "'aalt' Access All Alternates lookup 0" { "'aalt' Access All Alternates lookup 0 subtable"  } ['aalt' ('DFLT' <'dflt' > 'cyrl' <'SRB ' 'dflt' > 'latn' <'AZE ' 'CAT ' 'CRT ' 'ESP ' 'KAZ ' 'MOL ' 'NLD ' 'ROM ' 'TAT ' 'TRK ' 'dflt' > ) ]
Lookup: 3 0 0 "'aalt' Access All Alternates lookup 1" { "'aalt' Access All Alternates lookup 1 subtable"  } ['aalt' ('DFLT' <'dflt' > 'cyrl' <'SRB ' 'dflt' > 'latn' <'AZE ' 'CAT ' 'CRT ' 'ESP ' 'KAZ ' 'MOL ' 'NLD ' 'ROM ' 'TAT ' 'TRK ' 'dflt' > ) ]

StartChar: .notdef
Encoding: 65536 -1 0
Width: 641
GlyphClass: 1
Flags: MW
HStem: -109 674<-1 -1 -1 641>
VStem: -17 674<-93 -93 -93 549>
LayerCount: 2
Back
SplineSet
657 549 m 1
 336 228 l 1
 657 -93 l 1
 641 -109 l 1
 320 212 l 1
 -1 -109 l 1
 -17 -93 l 1
 304 228 l 1
 -17 549 l 1
 -1 565 l 1
 320 244 l 1
 641 565 l 1
 657 549 l 1
EndSplineSet
Fore
SplineSet
657 549 m 1
 336 228 l 1
 657 -93 l 1
 641 -109 l 1
 320 212 l 1
 -1 -109 l 1
 -17 -93 l 1
 304 228 l 1
 -17 549 l 1
 -1 565 l 1
 320 244 l 1
 641 565 l 1
 657 549 l 1
EndSplineSet
EndChar

StartChar: A
Encoding: 65 65 1
Width: 625
GlyphClass: 2
Flags: MW
HStem: -8 8 0 62 209 77<279 295 295 305.5 223 307> 633 20G<395 395>
VStem: -10 643<-3 55>
AnchorPoint: "Anchor-17" 0 0 basechar 0
AnchorPoint: "Anchor-16" 0 0 basechar 0
AnchorPoint: "Anchor-15" 313 642 basechar 0
AnchorPoint: "Anchor-14" 563 10 basechar 0
AnchorPoint: "Anchor-13" 313 0 basechar 0
LayerCount: 2
Back
SplineSet
336 -8 m 1xb8
 331 0 l 1
 336 59 l 1
 401 65 413 70 413 95 c 0
 413 104 411 116 408 130 c 2
 387 207 l 1
 361 208 319 209 295 209 c 0
 263 209 223 204 199 202 c 1
 174 125 l 2
 170 110 168 100 168 94 c 0
 168 70 180 62 215 62 c 2
 258 62 l 1
 263 55 l 1
 256 -6 l 1
 256 -6 174 0 110 0 c 0
 56 0 -10 -3 -10 -3 c 1
 -3 62 l 1
 28 67 46 85 63 130 c 2
 242 637 l 1
 395 653 l 1
 406 648 l 1
 406 648 495 303 550 131 c 0
 564 83 583 66 629 62 c 1
 633 55 l 1
 626 -3 l 1
 626 -3 547 0 504 0 c 0x78
 419 0 336 -8 336 -8 c 1xb8
223 286 m 1
 295 286 l 2
 316 286 348 288 369 289 c 1
 310 512 l 1
 297 512 l 1
 223 286 l 1
EndSplineSet
Fore
SplineSet
336 -8 m 1xb8
 331 0 l 1
 336 59 l 1
 401 65 413 70 413 95 c 0
 413 104 411 116 408 130 c 2
 387 207 l 1
 361 208 319 209 295 209 c 0
 263 209 223 204 199 202 c 1
 174 125 l 2
 170 110 168 100 168 94 c 0
 168 70 180 62 215 62 c 2
 258 62 l 1
 263 55 l 1
 256 -6 l 1
 256 -6 174 0 110 0 c 0
 56 0 -10 -3 -10 -3 c 1
 -3 62 l 1
 28 67 46 85 63 130 c 2
 242 637 l 1
 395 653 l 1
 406 648 l 1
 406 648 495 303 550 131 c 0
 564 83 583 66 629 62 c 1
 633 55 l 1
 626 -3 l 1
 626 -3 547 0 504 0 c 0x78
 419 0 336 -8 336 -8 c 1xb8
223 286 m 1
 295 286 l 2
 316 286 348 288 369 289 c 1
 310 512 l 1
 297 512 l 1
 223 286 l 1
EndSplineSet
Substitution2: "Single Substitution lookup 51 subtable" ordfeminine
Substitution2: "'c2sc' Capitals to Small Capitals lookup 35 subtable" a.sc
AlternateSubs2: "'aalt' Access All Alternates lookup 1 subtable" ordfeminine a.sc
Position2: "'cpsp' Capital Spacing lookup 0 subtable" dx=10 dy=0 dh=20 dv=0
EndChar

StartChar: Aacute
Encoding: 193 193 2
Width: 625
GlyphClass: 2
Flags: MW
HStem: -8 8 0 62 209 77<279 295 295 305.5 223 307> 633 20G<395 395>
VStem: -10 643<-3 55>
AnchorPoint: "Anchor-17" 0 0 basechar 0
AnchorPoint: "Anchor-16" 0 0 basechar 0
AnchorPoint: "Anchor-15" 350 792 basechar 0
AnchorPoint: "Anchor-14" 563 10 basechar 0
AnchorPoint: "Anchor-13" 313 0 basechar 0
LayerCount: 2
Back
SplineSet
257 698 m 1xb8
 245 706 l 1
 232 751 l 1
 339 799 453 856 453 856 c 1
 465 851 l 1
 490 776 l 1
 485 763 l 1
 485 763 371 734 257 698 c 1xb8
336 -8 m 1
 331 0 l 1
 336 59 l 1
 401 65 413 70 413 95 c 0
 413 104 411 116 408 130 c 2
 387 207 l 1
 361 208 319 209 295 209 c 0
 263 209 223 204 199 202 c 1
 174 125 l 2
 170 110 168 100 168 94 c 0
 168 70 180 62 215 62 c 2
 258 62 l 1
 263 55 l 1
 256 -6 l 1
 256 -6 174 0 110 0 c 0
 56 0 -10 -3 -10 -3 c 1
 -3 62 l 1
 28 67 46 85 63 130 c 2
 242 637 l 1
 395 653 l 1
 406 648 l 1
 406 648 495 303 550 131 c 0
 564 83 583 66 629 62 c 1
 633 55 l 1
 626 -3 l 1
 626 -3 547 0 504 0 c 0x78
 419 0 336 -8 336 -8 c 1
223 286 m 1
 295 286 l 2
 316 286 348 288 369 289 c 1
 310 512 l 1
 297 512 l 1
 223 286 l 1
EndSplineSet
Fore
SplineSet
257 698 m 1xb8
 245 706 l 1
 232 751 l 1
 339 799 453 856 453 856 c 1
 465 851 l 1
 490 776 l 1
 485 763 l 1
 485 763 371 734 257 698 c 1xb8
336 -8 m 1
 331 0 l 1
 336 59 l 1
 401 65 413 70 413 95 c 0
 413 104 411 116 408 130 c 2
 387 207 l 1
 361 208 319 209 295 209 c 0
 263 209 223 204 199 202 c 1
 174 125 l 2
 170 110 168 100 168 94 c 0
 168 70 180 62 215 62 c 2
 258 62 l 1
 263 55 l 1
 256 -6 l 1
 256 -6 174 0 110 0 c 0
 56 0 -10 -3 -10 -3 c 1
 -3 62 l 1
 28 67 46 85 63 130 c 2
 242 637 l 1
 395 653 l 1
 406 648 l 1
 406 648 495 303 550 131 c 0
 564 83 583 66 629 62 c 1
 633 55 l 1
 626 -3 l 1
 626 -3 547 0 504 0 c 0x78
 419 0 336 -8 336 -8 c 1
223 286 m 1
 295 286 l 2
 316 286 348 288 369 289 c 1
 310 512 l 1
 297 512 l 1
 223 286 l 1
EndSplineSet
Substitution2: "'c2sc' Capitals to Small Capitals lookup 35 subtable" aacute.sc
Substitution2: "'aalt' Access All Alternates lookup 0 subtable" aacute.sc
Position2: "'cpsp' Capital Spacing lookup 0 subtable" dx=10 dy=0 dh=20 dv=0
EndChar

StartChar: Abreve
Encoding: 258 258 3
Width: 625
GlyphClass: 2
Flags: MW
HStem: -8 8 0 62 209 77<279 295 295 305.5 223 307> 633 20G<395 395> 694 93<292.5 338 292.5 357>
VStem: -10 643<-3 55>
AnchorPoint: "Anchor-17" 0 0 basechar 0
AnchorPoint: "Anchor-16" 0 0 basechar 0
AnchorPoint: "Anchor-15" 315 846 basechar 0
AnchorPoint: "Anchor-14" 563 10 basechar 0
AnchorPoint: "Anchor-13" 313 0 basechar 0
LayerCount: 2
Back
SplineSet
315 694 m 0xbc
 232 694 186 752 169 809 c 1
 196 843 l 1
 213 846 l 1
 231 807 270 787 315 787 c 0
 361 787 400 807 418 846 c 1
 435 843 l 1
 462 809 l 1
 444 752 399 694 315 694 c 0xbc
336 -8 m 1
 331 0 l 1
 336 59 l 1
 401 65 413 70 413 95 c 0
 413 104 411 116 408 130 c 2
 387 207 l 1
 361 208 319 209 295 209 c 0
 263 209 223 204 199 202 c 1
 174 125 l 2
 170 110 168 100 168 94 c 0
 168 70 180 62 215 62 c 2
 258 62 l 1
 263 55 l 1
 256 -6 l 1
 256 -6 174 0 110 0 c 0
 56 0 -10 -3 -10 -3 c 1
 -3 62 l 1
 28 67 46 85 63 130 c 2
 242 637 l 1
 395 653 l 1
 406 648 l 1
 406 648 495 303 550 131 c 0
 564 83 583 66 629 62 c 1
 633 55 l 1
 626 -3 l 1
 626 -3 547 0 504 0 c 0x7c
 419 0 336 -8 336 -8 c 1
223 286 m 1
 295 286 l 2
 316 286 348 288 369 289 c 1
 310 512 l 1
 297 512 l 1
 223 286 l 1
EndSplineSet
Fore
SplineSet
315 694 m 0xbc
 232 694 186 752 169 809 c 1
 196 843 l 1
 213 846 l 1
 231 807 270 787 315 787 c 0
 361 787 400 807 418 846 c 1
 435 843 l 1
 462 809 l 1
 444 752 399 694 315 694 c 0xbc
336 -8 m 1
 331 0 l 1
 336 59 l 1
 401 65 413 70 413 95 c 0
 413 104 411 116 408 130 c 2
 387 207 l 1
 361 208 319 209 295 209 c 0
 263 209 223 204 199 202 c 1
 174 125 l 2
 170 110 168 100 168 94 c 0
 168 70 180 62 215 62 c 2
 258 62 l 1
 263 55 l 1
 256 -6 l 1
 256 -6 174 0 110 0 c 0
 56 0 -10 -3 -10 -3 c 1
 -3 62 l 1
 28 67 46 85 63 130 c 2
 242 637 l 1
 395 653 l 1
 406 648 l 1
 406 648 495 303 550 131 c 0
 564 83 583 66 629 62 c 1
 633 55 l 1
 626 -3 l 1
 626 -3 547 0 504 0 c 0x7c
 419 0 336 -8 336 -8 c 1
223 286 m 1
 295 286 l 2
 316 286 348 288 369 289 c 1
 310 512 l 1
 297 512 l 1
 223 286 l 1
EndSplineSet
Substitution2: "'c2sc' Capitals to Small Capitals lookup 35 subtable" abreve.sc
Substitution2: "'aalt' Access All Alternates lookup 0 subtable" abreve.sc
Position2: "'cpsp' Capital Spacing lookup 0 subtable" dx=10 dy=0 dh=20 dv=0
EndChar

StartChar: uni1EAE
Encoding: 7854 7854 4
Width: 625
GlyphClass: 2
Flags: MW
HStem: -8 8 0 62 209 77<279 295 295 305.5 223 307> 633 20G<395 395> 678 92<296.5 341.5 296.5 361>
VStem: -10 643<-3 55>
AnchorPoint: "Anchor-17" 0 0 basechar 0
AnchorPoint: "Anchor-16" 0 0 basechar 0
AnchorPoint: "Anchor-15" 319 987 basechar 0
AnchorPoint: "Anchor-14" 563 10 basechar 0
AnchorPoint: "Anchor-13" 313 0 basechar 0
LayerCount: 2
Back
SplineSet
315 808 m 1xb4
 283 828 l 1
 311 913 l 1
 362 983 l 1
 410 955 l 1
 432 930 l 1
 380 862 l 1
 315 808 l 1xb4
319 678 m 0xbc
 235 678 190 740 173 802 c 1
 200 835 l 1
 216 838 l 1
 235 793 274 770 319 770 c 0
 364 770 404 793 422 838 c 1
 438 835 l 1
 465 802 l 1
 448 740 403 678 319 678 c 0xbc
336 -8 m 1
 331 0 l 1
 336 59 l 1
 401 65 413 70 413 95 c 0
 413 104 411 116 408 130 c 2
 387 207 l 1
 361 208 319 209 295 209 c 0
 263 209 223 204 199 202 c 1
 174 125 l 2
 170 110 168 100 168 94 c 0
 168 70 180 62 215 62 c 2
 258 62 l 1
 263 55 l 1
 256 -6 l 1
 256 -6 174 0 110 0 c 0
 56 0 -10 -3 -10 -3 c 1
 -3 62 l 1
 28 67 46 85 63 130 c 2
 242 637 l 1
 395 653 l 1
 406 648 l 1
 406 648 495 303 550 131 c 0
 564 83 583 66 629 62 c 1
 633 55 l 1
 626 -3 l 1
 626 -3 547 0 504 0 c 0x74
 419 0 336 -8 336 -8 c 1
223 286 m 1
 295 286 l 2
 316 286 348 288 369 289 c 1
 310 512 l 1
 297 512 l 1
 223 286 l 1
EndSplineSet
Fore
SplineSet
315 808 m 1xb4
 283 828 l 1
 311 913 l 1
 362 983 l 1
 410 955 l 1
 432 930 l 1
 380 862 l 1
 315 808 l 1xb4
319 678 m 0xbc
 235 678 190 740 173 802 c 1
 200 835 l 1
 216 838 l 1
 235 793 274 770 319 770 c 0
 364 770 404 793 422 838 c 1
 438 835 l 1
 465 802 l 1
 448 740 403 678 319 678 c 0xbc
336 -8 m 1
 331 0 l 1
 336 59 l 1
 401 65 413 70 413 95 c 0
 413 104 411 116 408 130 c 2
 387 207 l 1
 361 208 319 209 295 209 c 0
 263 209 223 204 199 202 c 1
 174 125 l 2
 170 110 168 100 168 94 c 0
 168 70 180 62 215 62 c 2
 258 62 l 1
 263 55 l 1
 256 -6 l 1
 256 -6 174 0 110 0 c 0
 56 0 -10 -3 -10 -3 c 1
 -3 62 l 1
 28 67 46 85 63 130 c 2
 242 637 l 1
 395 653 l 1
 406 648 l 1
 406 648 495 303 550 131 c 0
 564 83 583 66 629 62 c 1
 633 55 l 1
 626 -3 l 1
 626 -3 547 0 504 0 c 0x74
 419 0 336 -8 336 -8 c 1
223 286 m 1
 295 286 l 2
 316 286 348 288 369 289 c 1
 310 512 l 1
 297 512 l 1
 223 286 l 1
EndSplineSet
Substitution2: "'c2sc' Capitals to Small Capitals lookup 35 subtable" uni1EAF.sc
Substitution2: "'aalt' Access All Alternates lookup 0 subtable" uni1EAF.sc
Position2: "'cpsp' Capital Spacing lookup 0 subtable" dx=10 dy=0 dh=20 dv=0
EndChar

StartChar: uni1EB6
Encoding: 7862 7862 5
Width: 625
GlyphClass: 2
Flags: MW
HStem: -210 155<287.5 330> -8 8 0 62 209 77<279 295 295 305.5 223 307> 633 20G<395 395> 689 93<290.5 335.5 290.5 355>
VStem: 232 154<-153 -112>
AnchorPoint: "Anchor-17" 0 0 basechar 0
AnchorPoint: "Anchor-16" 0 0 basechar 0
AnchorPoint: "Anchor-15" 313 841 basechar 0
AnchorPoint: "Anchor-14" 563 10 basechar 0
AnchorPoint: "Anchor-13" 309 -210 basechar 0
LayerCount: 2
Back
SplineSet
313 689 m 0xde
 229 689 184 747 167 804 c 1
 194 838 l 1
 210 841 l 1
 229 802 268 782 313 782 c 0
 358 782 397 802 416 841 c 1
 432 838 l 1
 459 804 l 1
 442 747 397 689 313 689 c 0xde
336 -8 m 1
 331 0 l 1
 336 59 l 1
 401 65 413 70 413 95 c 0
 413 104 411 116 408 130 c 2
 387 207 l 1
 361 208 319 209 295 209 c 0
 263 209 223 204 199 202 c 1
 174 125 l 2
 170 110 168 100 168 94 c 0
 168 70 180 62 215 62 c 2
 258 62 l 1
 263 55 l 1
 256 -6 l 1
 256 -6 174 0 110 0 c 0
 56 0 -10 -3 -10 -3 c 1
 -3 62 l 1
 28 67 46 85 63 130 c 2
 242 637 l 1
 395 653 l 1
 406 648 l 1
 406 648 495 303 550 131 c 0
 564 83 583 66 629 62 c 1
 633 55 l 1
 626 -3 l 1
 626 -3 547 0 504 0 c 0xbe
 419 0 336 -8 336 -8 c 1
223 286 m 1
 295 286 l 2
 316 286 348 288 369 289 c 1
 310 512 l 1
 297 512 l 1
 223 286 l 1
305 -210 m 0
 257 -210 232 -179 232 -136 c 0
 232 -88 263 -55 312 -55 c 0
 359 -55 386 -85 386 -129 c 0
 386 -177 355 -210 305 -210 c 0
EndSplineSet
Fore
SplineSet
313 689 m 0xde
 229 689 184 747 167 804 c 1
 194 838 l 1
 210 841 l 1
 229 802 268 782 313 782 c 0
 358 782 397 802 416 841 c 1
 432 838 l 1
 459 804 l 1
 442 747 397 689 313 689 c 0xde
336 -8 m 1
 331 0 l 1
 336 59 l 1
 401 65 413 70 413 95 c 0
 413 104 411 116 408 130 c 2
 387 207 l 1
 361 208 319 209 295 209 c 0
 263 209 223 204 199 202 c 1
 174 125 l 2
 170 110 168 100 168 94 c 0
 168 70 180 62 215 62 c 2
 258 62 l 1
 263 55 l 1
 256 -6 l 1
 256 -6 174 0 110 0 c 0
 56 0 -10 -3 -10 -3 c 1
 -3 62 l 1
 28 67 46 85 63 130 c 2
 242 637 l 1
 395 653 l 1
 406 648 l 1
 406 648 495 303 550 131 c 0
 564 83 583 66 629 62 c 1
 633 55 l 1
 626 -3 l 1
 626 -3 547 0 504 0 c 0xbe
 419 0 336 -8 336 -8 c 1
223 286 m 1
 295 286 l 2
 316 286 348 288 369 289 c 1
 310 512 l 1
 297 512 l 1
 223 286 l 1
305 -210 m 0
 257 -210 232 -179 232 -136 c 0
 232 -88 263 -55 312 -55 c 0
 359 -55 386 -85 386 -129 c 0
 386 -177 355 -210 305 -210 c 0
EndSplineSet
Substitution2: "'c2sc' Capitals to Small Capitals lookup 35 subtable" uni1EB7.sc
Substitution2: "'aalt' Access All Alternates lookup 0 subtable" uni1EB7.sc
Position2: "'cpsp' Capital Spacing lookup 0 subtable" dx=10 dy=0 dh=20 dv=0
EndChar

StartChar: uni1EB0
Encoding: 7856 7856 6
Width: 625
GlyphClass: 2
Flags: MW
HStem: -8 8 0 62 209 77<279 295 295 305.5 223 307> 633 20G<395 395> 682 93<296.5 341.5 296.5 361>
VStem: -10 643<-3 55>
AnchorPoint: "Anchor-17" 0 0 basechar 0
AnchorPoint: "Anchor-16" 0 0 basechar 0
AnchorPoint: "Anchor-15" 319 987 basechar 0
AnchorPoint: "Anchor-14" 563 10 basechar 0
AnchorPoint: "Anchor-13" 313 0 basechar 0
LayerCount: 2
Back
SplineSet
325 813 m 1xb4
 260 867 l 1
 208 934 l 1
 230 960 l 1
 278 987 l 1
 329 917 l 1
 357 833 l 1
 325 813 l 1xb4
319 682 m 0xbc
 235 682 190 744 173 806 c 1
 200 840 l 1
 216 843 l 1
 235 797 274 775 319 775 c 0
 364 775 404 797 422 843 c 1
 438 840 l 1
 465 806 l 1
 448 744 403 682 319 682 c 0xbc
336 -8 m 1
 331 0 l 1
 336 59 l 1
 401 65 413 70 413 95 c 0
 413 104 411 116 408 130 c 2
 387 207 l 1
 361 208 319 209 295 209 c 0
 263 209 223 204 199 202 c 1
 174 125 l 2
 170 110 168 100 168 94 c 0
 168 70 180 62 215 62 c 2
 258 62 l 1
 263 55 l 1
 256 -6 l 1
 256 -6 174 0 110 0 c 0
 56 0 -10 -3 -10 -3 c 1
 -3 62 l 1
 28 67 46 85 63 130 c 2
 242 637 l 1
 395 653 l 1
 406 648 l 1
 406 648 495 303 550 131 c 0
 564 83 583 66 629 62 c 1
 633 55 l 1
 626 -3 l 1
 626 -3 547 0 504 0 c 0x74
 419 0 336 -8 336 -8 c 1
223 286 m 1
 295 286 l 2
 316 286 348 288 369 289 c 1
 310 512 l 1
 297 512 l 1
 223 286 l 1
EndSplineSet
Fore
SplineSet
325 813 m 1xb4
 260 867 l 1
 208 934 l 1
 230 960 l 1
 278 987 l 1
 329 917 l 1
 357 833 l 1
 325 813 l 1xb4
319 682 m 0xbc
 235 682 190 744 173 806 c 1
 200 840 l 1
 216 843 l 1
 235 797 274 775 319 775 c 0
 364 775 404 797 422 843 c 1
 438 840 l 1
 465 806 l 1
 448 744 403 682 319 682 c 0xbc
336 -8 m 1
 331 0 l 1
 336 59 l 1
 401 65 413 70 413 95 c 0
 413 104 411 116 408 130 c 2
 387 207 l 1
 361 208 319 209 295 209 c 0
 263 209 223 204 199 202 c 1
 174 125 l 2
 170 110 168 100 168 94 c 0
 168 70 180 62 215 62 c 2
 258 62 l 1
 263 55 l 1
 256 -6 l 1
 256 -6 174 0 110 0 c 0
 56 0 -10 -3 -10 -3 c 1
 -3 62 l 1
 28 67 46 85 63 130 c 2
 242 637 l 1
 395 653 l 1
 406 648 l 1
 406 648 495 303 550 131 c 0
 564 83 583 66 629 62 c 1
 633 55 l 1
 626 -3 l 1
 626 -3 547 0 504 0 c 0x74
 419 0 336 -8 336 -8 c 1
223 286 m 1
 295 286 l 2
 316 286 348 288 369 289 c 1
 310 512 l 1
 297 512 l 1
 223 286 l 1
EndSplineSet
Substitution2: "'c2sc' Capitals to Small Capitals lookup 35 subtable" uni1EB1.sc
Substitution2: "'aalt' Access All Alternates lookup 0 subtable" uni1EB1.sc
Position2: "'cpsp' Capital Spacing lookup 0 subtable" dx=10 dy=0 dh=20 dv=0
EndChar

StartChar: uni1EB2
Encoding: 7858 7858 7
Width: 625
GlyphClass: 2
Flags: MW
HStem: -8 8 0 62 209 77<279 295 295 305.5 223 307> 633 20G<395 395> 682 93<295 343 295 354> 958 63<294 296>
VStem: 320 74<938 940>
AnchorPoint: "Anchor-17" 0 0 basechar 0
AnchorPoint: "Anchor-16" 0 0 basechar 0
AnchorPoint: "Anchor-15" 319 1021 basechar 0
AnchorPoint: "Anchor-14" 563 10 basechar 0
AnchorPoint: "Anchor-13" 313 0 basechar 0
LayerCount: 2
Back
SplineSet
310 802 m 1xb6
 269 867 l 1
 306 893 320 912 320 932 c 0
 320 948 307 958 285 958 c 0
 256 958 226 938 226 938 c 1
 210 963 l 1
 210 963 253 1007 294 1021 c 1
 356 1021 394 995 394 950 c 0
 394 926 376 899 335 867 c 1
 359 829 l 1
 310 802 l 1xb6
319 682 m 0xbe
 249 682 194 729 173 806 c 1
 200 840 l 1
 216 843 l 1
 233 800 271 775 319 775 c 0
 367 775 405 799 422 843 c 1
 438 840 l 1
 465 806 l 1
 444 729 389 682 319 682 c 0xbe
336 -8 m 1
 331 0 l 1
 336 59 l 1
 401 65 413 70 413 95 c 0
 413 104 411 116 408 130 c 2
 387 207 l 1
 361 208 319 209 295 209 c 0
 263 209 223 204 199 202 c 1
 174 125 l 2
 170 110 168 100 168 94 c 0
 168 70 180 62 215 62 c 2
 258 62 l 1
 263 55 l 1
 256 -6 l 1
 256 -6 174 0 110 0 c 0
 56 0 -10 -3 -10 -3 c 1
 -3 62 l 1
 28 67 46 85 63 130 c 2
 242 637 l 1
 395 653 l 1
 406 648 l 1
 406 648 495 303 550 131 c 0
 564 83 583 66 629 62 c 1
 633 55 l 1
 626 -3 l 1
 626 -3 547 0 504 0 c 0x76
 419 0 336 -8 336 -8 c 1
223 286 m 1
 295 286 l 2
 316 286 348 288 369 289 c 1
 310 512 l 1
 297 512 l 1
 223 286 l 1
EndSplineSet
Fore
SplineSet
310 802 m 1xb6
 269 867 l 1
 306 893 320 912 320 932 c 0
 320 948 307 958 285 958 c 0
 256 958 226 938 226 938 c 1
 210 963 l 1
 210 963 253 1007 294 1021 c 1
 356 1021 394 995 394 950 c 0
 394 926 376 899 335 867 c 1
 359 829 l 1
 310 802 l 1xb6
319 682 m 0xbe
 249 682 194 729 173 806 c 1
 200 840 l 1
 216 843 l 1
 233 800 271 775 319 775 c 0
 367 775 405 799 422 843 c 1
 438 840 l 1
 465 806 l 1
 444 729 389 682 319 682 c 0xbe
336 -8 m 1
 331 0 l 1
 336 59 l 1
 401 65 413 70 413 95 c 0
 413 104 411 116 408 130 c 2
 387 207 l 1
 361 208 319 209 295 209 c 0
 263 209 223 204 199 202 c 1
 174 125 l 2
 170 110 168 100 168 94 c 0
 168 70 180 62 215 62 c 2
 258 62 l 1
 263 55 l 1
 256 -6 l 1
 256 -6 174 0 110 0 c 0
 56 0 -10 -3 -10 -3 c 1
 -3 62 l 1
 28 67 46 85 63 130 c 2
 242 637 l 1
 395 653 l 1
 406 648 l 1
 406 648 495 303 550 131 c 0
 564 83 583 66 629 62 c 1
 633 55 l 1
 626 -3 l 1
 626 -3 547 0 504 0 c 0x76
 419 0 336 -8 336 -8 c 1
223 286 m 1
 295 286 l 2
 316 286 348 288 369 289 c 1
 310 512 l 1
 297 512 l 1
 223 286 l 1
EndSplineSet
Substitution2: "'c2sc' Capitals to Small Capitals lookup 35 subtable" uni1EB3.sc
Substitution2: "'aalt' Access All Alternates lookup 0 subtable" uni1EB3.sc
Position2: "'cpsp' Capital Spacing lookup 0 subtable" dx=10 dy=0 dh=20 dv=0
EndChar

StartChar: uni1EB4
Encoding: 7860 7860 8
Width: 625
GlyphClass: 2
Flags: MW
HStem: -8 8 0 62 209 77<279 295 295 305.5 223 307> 633 20G<395 395> 686 85<298.5 339.5 298.5 358> 837 81<376.5 384.5 361.5 391> 866 81<250.5 259.5 245 274>
VStem: -10 643<-3 55>
AnchorPoint: "Anchor-17" 0 0 basechar 0
AnchorPoint: "Anchor-16" 0 0 basechar 0
AnchorPoint: "Anchor-15" 318 953 basechar 0
AnchorPoint: "Anchor-14" 563 10 basechar 0
AnchorPoint: "Anchor-13" 313 0 basechar 0
LayerCount: 2
Back
SplineSet
195 833 m 1xbb
 166 869 l 1
 166 877 l 1
 230 944 l 1
 245 947 l 1xbb
 274 947 349 918 374 918 c 0
 395 918 431 950 431 950 c 1
 440 950 l 1
 470 915 l 1
 470 907 l 1
 405 840 l 1
 391 837 l 1xbd
 362 837 287 866 261 866 c 0
 240 866 205 833 205 833 c 1
 195 833 l 1xbb
319 771 m 0
 360 771 395 786 411 816 c 1
 426 813 l 1
 455 783 l 1
 439 735 397 686 319 686 c 0
 241 686 199 735 183 783 c 1
 212 813 l 1
 227 816 l 1
 243 786 278 771 319 771 c 0
336 -8 m 1
 331 0 l 1
 336 59 l 1
 401 65 413 70 413 95 c 0
 413 104 411 116 408 130 c 2
 387 207 l 1
 361 208 319 209 295 209 c 0
 263 209 223 204 199 202 c 1
 174 125 l 2
 170 110 168 100 168 94 c 0
 168 70 180 62 215 62 c 2
 258 62 l 1
 263 55 l 1
 256 -6 l 1
 256 -6 174 0 110 0 c 0
 56 0 -10 -3 -10 -3 c 1
 -3 62 l 1
 28 67 46 85 63 130 c 2
 242 637 l 1
 395 653 l 1
 406 648 l 1
 406 648 495 303 550 131 c 0
 564 83 583 66 629 62 c 1
 633 55 l 1
 626 -3 l 1
 626 -3 547 0 504 0 c 0x7b
 419 0 336 -8 336 -8 c 1
223 286 m 1
 295 286 l 2
 316 286 348 288 369 289 c 1
 310 512 l 1
 297 512 l 1
 223 286 l 1
EndSplineSet
Fore
SplineSet
195 833 m 1xbb
 166 869 l 1
 166 877 l 1
 230 944 l 1
 245 947 l 1xbb
 274 947 349 918 374 918 c 0
 395 918 431 950 431 950 c 1
 440 950 l 1
 470 915 l 1
 470 907 l 1
 405 840 l 1
 391 837 l 1xbd
 362 837 287 866 261 866 c 0
 240 866 205 833 205 833 c 1
 195 833 l 1xbb
319 771 m 0
 360 771 395 786 411 816 c 1
 426 813 l 1
 455 783 l 1
 439 735 397 686 319 686 c 0
 241 686 199 735 183 783 c 1
 212 813 l 1
 227 816 l 1
 243 786 278 771 319 771 c 0
336 -8 m 1
 331 0 l 1
 336 59 l 1
 401 65 413 70 413 95 c 0
 413 104 411 116 408 130 c 2
 387 207 l 1
 361 208 319 209 295 209 c 0
 263 209 223 204 199 202 c 1
 174 125 l 2
 170 110 168 100 168 94 c 0
 168 70 180 62 215 62 c 2
 258 62 l 1
 263 55 l 1
 256 -6 l 1
 256 -6 174 0 110 0 c 0
 56 0 -10 -3 -10 -3 c 1
 -3 62 l 1
 28 67 46 85 63 130 c 2
 242 637 l 1
 395 653 l 1
 406 648 l 1
 406 648 495 303 550 131 c 0
 564 83 583 66 629 62 c 1
 633 55 l 1
 626 -3 l 1
 626 -3 547 0 504 0 c 0x7b
 419 0 336 -8 336 -8 c 1
223 286 m 1
 295 286 l 2
 316 286 348 288 369 289 c 1
 310 512 l 1
 297 512 l 1
 223 286 l 1
EndSplineSet
Substitution2: "'c2sc' Capitals to Small Capitals lookup 35 subtable" uni1EB5.sc
Substitution2: "'aalt' Access All Alternates lookup 0 subtable" uni1EB5.sc
Position2: "'cpsp' Capital Spacing lookup 0 subtable" dx=10 dy=0 dh=20 dv=0
EndChar

StartChar: uni01CD
Encoding: 461 461 9
Width: 625
GlyphClass: 2
Flags: MW
HStem: -8 8 0 62 209 77<279 295 295 305.5 223 307> 633 20G<395 395>
VStem: -10 643<-3 55>
AnchorPoint: "Anchor-17" 0 0 basechar 0
AnchorPoint: "Anchor-16" 0 0 basechar 0
AnchorPoint: "Anchor-15" 318 799 basechar 0
AnchorPoint: "Anchor-14" 563 10 basechar 0
AnchorPoint: "Anchor-13" 313 0 basechar 0
LayerCount: 2
Back
SplineSet
308 697 m 1xb8
 308 697 226 766 153 820 c 1
 176 860 l 1
 192 864 l 1
 238 840 290 817 318 805 c 1
 347 817 397 840 444 864 c 1
 460 860 l 1
 484 820 l 1
 410 766 328 697 328 697 c 1
 308 697 l 1xb8
336 -8 m 1
 331 0 l 1
 336 59 l 1
 401 65 413 70 413 95 c 0
 413 104 411 116 408 130 c 2
 387 207 l 1
 361 208 319 209 295 209 c 0
 263 209 223 204 199 202 c 1
 174 125 l 2
 170 110 168 100 168 94 c 0
 168 70 180 62 215 62 c 2
 258 62 l 1
 263 55 l 1
 256 -6 l 1
 256 -6 174 0 110 0 c 0
 56 0 -10 -3 -10 -3 c 1
 -3 62 l 1
 28 67 46 85 63 130 c 2
 242 637 l 1
 395 653 l 1
 406 648 l 1
 406 648 495 303 550 131 c 0
 564 83 583 66 629 62 c 1
 633 55 l 1
 626 -3 l 1
 626 -3 547 0 504 0 c 0x78
 419 0 336 -8 336 -8 c 1
223 286 m 1
 295 286 l 2
 316 286 348 288 369 289 c 1
 310 512 l 1
 297 512 l 1
 223 286 l 1
EndSplineSet
Fore
SplineSet
308 697 m 1xb8
 308 697 226 766 153 820 c 1
 176 860 l 1
 192 864 l 1
 238 840 290 817 318 805 c 1
 347 817 397 840 444 864 c 1
 460 860 l 1
 484 820 l 1
 410 766 328 697 328 697 c 1
 308 697 l 1xb8
336 -8 m 1
 331 0 l 1
 336 59 l 1
 401 65 413 70 413 95 c 0
 413 104 411 116 408 130 c 2
 387 207 l 1
 361 208 319 209 295 209 c 0
 263 209 223 204 199 202 c 1
 174 125 l 2
 170 110 168 100 168 94 c 0
 168 70 180 62 215 62 c 2
 258 62 l 1
 263 55 l 1
 256 -6 l 1
 256 -6 174 0 110 0 c 0
 56 0 -10 -3 -10 -3 c 1
 -3 62 l 1
 28 67 46 85 63 130 c 2
 242 637 l 1
 395 653 l 1
 406 648 l 1
 406 648 495 303 550 131 c 0
 564 83 583 66 629 62 c 1
 633 55 l 1
 626 -3 l 1
 626 -3 547 0 504 0 c 0x78
 419 0 336 -8 336 -8 c 1
223 286 m 1
 295 286 l 2
 316 286 348 288 369 289 c 1
 310 512 l 1
 297 512 l 1
 223 286 l 1
EndSplineSet
Substitution2: "'c2sc' Capitals to Small Capitals lookup 35 subtable" uni01CE.sc
Substitution2: "'aalt' Access All Alternates lookup 0 subtable" uni01CE.sc
Position2: "'cpsp' Capital Spacing lookup 0 subtable" dx=10 dy=0 dh=20 dv=0
EndChar

StartChar: Acircumflex
Encoding: 194 194 10
Width: 625
GlyphClass: 2
Flags: MW
HStem: -8 8 0 62 209 77<279 295 295 305.5 223 307> 633 20G<395 395>
VStem: -10 643<-3 55>
AnchorPoint: "Anchor-17" 0 0 basechar 0
AnchorPoint: "Anchor-16" 0 0 basechar 0
AnchorPoint: "Anchor-15" 318 874 basechar 0
AnchorPoint: "Anchor-14" 563 10 basechar 0
AnchorPoint: "Anchor-13" 313 0 basechar 0
LayerCount: 2
Back
SplineSet
192 707 m 1xb8
 177 711 l 1
 153 751 l 1
 227 805 309 874 309 874 c 1
 328 874 l 1
 328 877 410 806 484 751 c 1
 460 711 l 1
 445 707 l 1
 399 730 347 754 318 766 c 1
 289 754 240 731 192 707 c 1xb8
336 -8 m 1
 331 0 l 1
 336 59 l 1
 401 65 413 70 413 95 c 0
 413 104 411 116 408 130 c 2
 387 207 l 1
 361 208 319 209 295 209 c 0
 263 209 223 204 199 202 c 1
 174 125 l 2
 170 110 168 100 168 94 c 0
 168 70 180 62 215 62 c 2
 258 62 l 1
 263 55 l 1
 256 -6 l 1
 256 -6 174 0 110 0 c 0
 56 0 -10 -3 -10 -3 c 1
 -3 62 l 1
 28 67 46 85 63 130 c 2
 242 637 l 1
 395 653 l 1
 406 648 l 1
 406 648 495 303 550 131 c 0
 564 83 583 66 629 62 c 1
 633 55 l 1
 626 -3 l 1
 626 -3 547 0 504 0 c 0x78
 419 0 336 -8 336 -8 c 1
223 286 m 1
 295 286 l 2
 316 286 348 288 369 289 c 1
 310 512 l 1
 297 512 l 1
 223 286 l 1
EndSplineSet
Fore
SplineSet
192 707 m 1xb8
 177 711 l 1
 153 751 l 1
 227 805 309 874 309 874 c 1
 328 874 l 1
 328 877 410 806 484 751 c 1
 460 711 l 1
 445 707 l 1
 399 730 347 754 318 766 c 1
 289 754 240 731 192 707 c 1xb8
336 -8 m 1
 331 0 l 1
 336 59 l 1
 401 65 413 70 413 95 c 0
 413 104 411 116 408 130 c 2
 387 207 l 1
 361 208 319 209 295 209 c 0
 263 209 223 204 199 202 c 1
 174 125 l 2
 170 110 168 100 168 94 c 0
 168 70 180 62 215 62 c 2
 258 62 l 1
 263 55 l 1
 256 -6 l 1
 256 -6 174 0 110 0 c 0
 56 0 -10 -3 -10 -3 c 1
 -3 62 l 1
 28 67 46 85 63 130 c 2
 242 637 l 1
 395 653 l 1
 406 648 l 1
 406 648 495 303 550 131 c 0
 564 83 583 66 629 62 c 1
 633 55 l 1
 626 -3 l 1
 626 -3 547 0 504 0 c 0x78
 419 0 336 -8 336 -8 c 1
223 286 m 1
 295 286 l 2
 316 286 348 288 369 289 c 1
 310 512 l 1
 297 512 l 1
 223 286 l 1
EndSplineSet
Substitution2: "'c2sc' Capitals to Small Capitals lookup 35 subtable" acircumflex.sc
Substitution2: "'aalt' Access All Alternates lookup 0 subtable" acircumflex.sc
Position2: "'cpsp' Capital Spacing lookup 0 subtable" dx=10 dy=0 dh=20 dv=0
EndChar

StartChar: uni1EA4
Encoding: 7844 7844 11
Width: 625
GlyphClass: 2
Flags: MW
HStem: -8 8 0 62 209 77<279 295 295 305.5 223 307> 633 20G<395 395>
VStem: -10 643<-3 55>
AnchorPoint: "Anchor-17" 0 0 basechar 0
AnchorPoint: "Anchor-16" 0 0 basechar 0
AnchorPoint: "Anchor-15" 315 973 basechar 0
AnchorPoint: "Anchor-14" 563 10 basechar 0
AnchorPoint: "Anchor-13" 313 0 basechar 0
LayerCount: 2
Back
SplineSet
435 782 m 1xb8
 394 810 l 1
 460 954 l 1
 473 957 l 1
 536 920 l 1
 539 906 l 1
 450 783 l 1
 435 782 l 1xb8
198 662 m 1
 183 666 l 1
 161 704 l 1
 231 756 310 822 310 822 c 1
 329 822 l 1
 329 822 407 757 478 704 c 1
 456 666 l 1
 441 662 l 1
 396 685 347 707 319 719 c 1
 291 707 244 686 198 662 c 1
336 -8 m 1
 331 0 l 1
 336 59 l 1
 401 65 413 70 413 95 c 0
 413 104 411 116 408 130 c 2
 387 207 l 1
 361 208 319 209 295 209 c 0
 263 209 223 204 199 202 c 1
 174 125 l 2
 170 110 168 100 168 94 c 0
 168 70 180 62 215 62 c 2
 258 62 l 1
 263 55 l 1
 256 -6 l 1
 256 -6 174 0 110 0 c 0
 56 0 -10 -3 -10 -3 c 1
 -3 62 l 1
 28 67 46 85 63 130 c 2
 242 637 l 1
 395 653 l 1
 406 648 l 1
 406 648 495 303 550 131 c 0
 564 83 583 66 629 62 c 1
 633 55 l 1
 626 -3 l 1
 626 -3 547 0 504 0 c 0x78
 419 0 336 -8 336 -8 c 1
223 286 m 1
 295 286 l 2
 316 286 348 288 369 289 c 1
 310 512 l 1
 297 512 l 1
 223 286 l 1
EndSplineSet
Fore
SplineSet
435 782 m 1xb8
 394 810 l 1
 460 954 l 1
 473 957 l 1
 536 920 l 1
 539 906 l 1
 450 783 l 1
 435 782 l 1xb8
198 662 m 1
 183 666 l 1
 161 704 l 1
 231 756 310 822 310 822 c 1
 329 822 l 1
 329 822 407 757 478 704 c 1
 456 666 l 1
 441 662 l 1
 396 685 347 707 319 719 c 1
 291 707 244 686 198 662 c 1
336 -8 m 1
 331 0 l 1
 336 59 l 1
 401 65 413 70 413 95 c 0
 413 104 411 116 408 130 c 2
 387 207 l 1
 361 208 319 209 295 209 c 0
 263 209 223 204 199 202 c 1
 174 125 l 2
 170 110 168 100 168 94 c 0
 168 70 180 62 215 62 c 2
 258 62 l 1
 263 55 l 1
 256 -6 l 1
 256 -6 174 0 110 0 c 0
 56 0 -10 -3 -10 -3 c 1
 -3 62 l 1
 28 67 46 85 63 130 c 2
 242 637 l 1
 395 653 l 1
 406 648 l 1
 406 648 495 303 550 131 c 0
 564 83 583 66 629 62 c 1
 633 55 l 1
 626 -3 l 1
 626 -3 547 0 504 0 c 0x78
 419 0 336 -8 336 -8 c 1
223 286 m 1
 295 286 l 2
 316 286 348 288 369 289 c 1
 310 512 l 1
 297 512 l 1
 223 286 l 1
EndSplineSet
Substitution2: "'c2sc' Capitals to Small Capitals lookup 35 subtable" uni1EA5.sc
Substitution2: "'aalt' Access All Alternates lookup 0 subtable" uni1EA5.sc
Position2: "'cpsp' Capital Spacing lookup 0 subtable" dx=10 dy=0 dh=20 dv=0
EndChar

StartChar: uni1EAC
Encoding: 7852 7852 12
Width: 625
GlyphClass: 2
Flags: MW
HStem: -210 155<275.5 318.5> -8 8 0 62 209 77<279 295 295 305.5 223 307> 633 20G<395 395>
VStem: 220 154<-153 -112>
AnchorPoint: "Anchor-17" 0 0 basechar 0
AnchorPoint: "Anchor-16" 0 0 basechar 0
AnchorPoint: "Anchor-15" 318 874 basechar 0
AnchorPoint: "Anchor-14" 563 10 basechar 0
AnchorPoint: "Anchor-13" 298 -210 basechar 0
LayerCount: 2
Back
SplineSet
192 707 m 1x5c
 177 711 l 1
 153 751 l 1
 227 805 309 874 309 874 c 1
 328 874 l 1
 328 877 410 806 484 751 c 1
 460 711 l 1
 445 707 l 1
 399 730 347 754 318 766 c 1
 289 754 240 731 192 707 c 1x5c
336 -8 m 1
 331 0 l 1
 336 59 l 1
 401 65 413 70 413 95 c 0
 413 104 411 116 408 130 c 2
 387 207 l 1
 361 208 319 209 295 209 c 0
 263 209 223 204 199 202 c 1
 174 125 l 2
 170 110 168 100 168 94 c 0
 168 70 180 62 215 62 c 2
 258 62 l 1
 263 55 l 1
 256 -6 l 1
 256 -6 174 0 110 0 c 0
 56 0 -10 -3 -10 -3 c 1
 -3 62 l 1
 28 67 46 85 63 130 c 2
 242 637 l 1
 395 653 l 1
 406 648 l 1
 406 648 495 303 550 131 c 0
 564 83 583 66 629 62 c 1
 633 55 l 1
 626 -3 l 1
 626 -3 547 0 504 0 c 0xbc
 419 0 336 -8 336 -8 c 1
223 286 m 1
 295 286 l 2
 316 286 348 288 369 289 c 1
 310 512 l 1
 297 512 l 1
 223 286 l 1
294 -210 m 0
 245 -210 220 -179 220 -136 c 0
 220 -88 251 -55 300 -55 c 0
 347 -55 374 -85 374 -129 c 0
 374 -177 343 -210 294 -210 c 0
EndSplineSet
Fore
SplineSet
192 707 m 1x5c
 177 711 l 1
 153 751 l 1
 227 805 309 874 309 874 c 1
 328 874 l 1
 328 877 410 806 484 751 c 1
 460 711 l 1
 445 707 l 1
 399 730 347 754 318 766 c 1
 289 754 240 731 192 707 c 1x5c
336 -8 m 1
 331 0 l 1
 336 59 l 1
 401 65 413 70 413 95 c 0
 413 104 411 116 408 130 c 2
 387 207 l 1
 361 208 319 209 295 209 c 0
 263 209 223 204 199 202 c 1
 174 125 l 2
 170 110 168 100 168 94 c 0
 168 70 180 62 215 62 c 2
 258 62 l 1
 263 55 l 1
 256 -6 l 1
 256 -6 174 0 110 0 c 0
 56 0 -10 -3 -10 -3 c 1
 -3 62 l 1
 28 67 46 85 63 130 c 2
 242 637 l 1
 395 653 l 1
 406 648 l 1
 406 648 495 303 550 131 c 0
 564 83 583 66 629 62 c 1
 633 55 l 1
 626 -3 l 1
 626 -3 547 0 504 0 c 0xbc
 419 0 336 -8 336 -8 c 1
223 286 m 1
 295 286 l 2
 316 286 348 288 369 289 c 1
 310 512 l 1
 297 512 l 1
 223 286 l 1
294 -210 m 0
 245 -210 220 -179 220 -136 c 0
 220 -88 251 -55 300 -55 c 0
 347 -55 374 -85 374 -129 c 0
 374 -177 343 -210 294 -210 c 0
EndSplineSet
Substitution2: "'c2sc' Capitals to Small Capitals lookup 35 subtable" uni1EAD.sc
Substitution2: "'aalt' Access All Alternates lookup 0 subtable" uni1EAD.sc
Position2: "'cpsp' Capital Spacing lookup 0 subtable" dx=10 dy=0 dh=20 dv=0
EndChar

StartChar: uni1EA6
Encoding: 7846 7846 13
Width: 625
GlyphClass: 2
Flags: MW
HStem: -8 8 0 62 209 77<279 295 295 305.5 223 307> 633 20G<395 395>
VStem: -10 643<-3 55>
AnchorPoint: "Anchor-17" 0 0 basechar 0
AnchorPoint: "Anchor-16" 0 0 basechar 0
AnchorPoint: "Anchor-15" 313 979 basechar 0
AnchorPoint: "Anchor-14" 563 10 basechar 0
AnchorPoint: "Anchor-13" 313 0 basechar 0
LayerCount: 2
Back
SplineSet
455 776 m 1xb8
 439 777 l 1
 351 900 l 1
 354 914 l 1
 416 951 l 1
 429 948 l 1
 495 803 l 1
 455 776 l 1xb8
161 704 m 1
 231 756 310 822 310 822 c 1
 329 822 l 1
 329 822 407 757 478 704 c 1
 456 666 l 1
 441 662 l 1
 396 685 347 707 319 719 c 1
 291 707 244 686 198 662 c 1
 183 666 l 1
 161 704 l 1
336 -8 m 1
 331 0 l 1
 336 59 l 1
 401 65 413 70 413 95 c 0
 413 104 411 116 408 130 c 2
 387 207 l 1
 361 208 319 209 295 209 c 0
 263 209 223 204 199 202 c 1
 174 125 l 2
 170 110 168 100 168 94 c 0
 168 70 180 62 215 62 c 2
 258 62 l 1
 263 55 l 1
 256 -6 l 1
 256 -6 174 0 110 0 c 0
 56 0 -10 -3 -10 -3 c 1
 -3 62 l 1
 28 67 46 85 63 130 c 2
 242 637 l 1
 395 653 l 1
 406 648 l 1
 406 648 495 303 550 131 c 0
 564 83 583 66 629 62 c 1
 633 55 l 1
 626 -3 l 1
 626 -3 547 0 504 0 c 0x78
 419 0 336 -8 336 -8 c 1
223 286 m 1
 295 286 l 2
 316 286 348 288 369 289 c 1
 310 512 l 1
 297 512 l 1
 223 286 l 1
EndSplineSet
Fore
SplineSet
455 776 m 1xb8
 439 777 l 1
 351 900 l 1
 354 914 l 1
 416 951 l 1
 429 948 l 1
 495 803 l 1
 455 776 l 1xb8
161 704 m 1
 231 756 310 822 310 822 c 1
 329 822 l 1
 329 822 407 757 478 704 c 1
 456 666 l 1
 441 662 l 1
 396 685 347 707 319 719 c 1
 291 707 244 686 198 662 c 1
 183 666 l 1
 161 704 l 1
336 -8 m 1
 331 0 l 1
 336 59 l 1
 401 65 413 70 413 95 c 0
 413 104 411 116 408 130 c 2
 387 207 l 1
 361 208 319 209 295 209 c 0
 263 209 223 204 199 202 c 1
 174 125 l 2
 170 110 168 100 168 94 c 0
 168 70 180 62 215 62 c 2
 258 62 l 1
 263 55 l 1
 256 -6 l 1
 256 -6 174 0 110 0 c 0
 56 0 -10 -3 -10 -3 c 1
 -3 62 l 1
 28 67 46 85 63 130 c 2
 242 637 l 1
 395 653 l 1
 406 648 l 1
 406 648 495 303 550 131 c 0
 564 83 583 66 629 62 c 1
 633 55 l 1
 626 -3 l 1
 626 -3 547 0 504 0 c 0x78
 419 0 336 -8 336 -8 c 1
223 286 m 1
 295 286 l 2
 316 286 348 288 369 289 c 1
 310 512 l 1
 297 512 l 1
 223 286 l 1
EndSplineSet
Substitution2: "'c2sc' Capitals to Small Capitals lookup 35 subtable" uni1EA7.sc
Substitution2: "'aalt' Access All Alternates lookup 0 subtable" uni1EA7.sc
Position2: "'cpsp' Capital Spacing lookup 0 subtable" dx=10 dy=0 dh=20 dv=0
EndChar

StartChar: uni1EA8
Encoding: 7848 7848 14
Width: 625
GlyphClass: 2
Flags: MW
HStem: -8 8 0 62 209 77<279 295 295 305.5 223 307> 633 20G<395 395> 925 63<420 421.5>
VStem: 446 73<905 907.5>
AnchorPoint: "Anchor-17" 0 0 basechar 0
AnchorPoint: "Anchor-16" 0 0 basechar 0
AnchorPoint: "Anchor-15" 332 1003 basechar 0
AnchorPoint: "Anchor-14" 563 10 basechar 0
AnchorPoint: "Anchor-13" 313 0 basechar 0
LayerCount: 2
Back
SplineSet
436 769 m 1xbc
 395 835 l 1
 431 860 446 879 446 899 c 0
 446 916 433 925 410 925 c 0
 382 925 352 905 352 905 c 1
 335 931 l 1
 335 931 379 974 420 988 c 1
 481 988 519 962 519 917 c 0
 519 893 502 867 461 834 c 1
 484 796 l 1
 436 769 l 1xbc
161 704 m 1
 231 756 310 822 310 822 c 1
 329 822 l 1
 329 822 407 757 478 704 c 1
 456 666 l 1
 441 662 l 1
 396 685 347 707 319 719 c 1
 291 707 244 686 198 662 c 1
 183 666 l 1
 161 704 l 1
336 -8 m 1
 331 0 l 1
 336 59 l 1
 401 65 413 70 413 95 c 0
 413 104 411 116 408 130 c 2
 387 207 l 1
 361 208 319 209 295 209 c 0
 263 209 223 204 199 202 c 1
 174 125 l 2
 170 110 168 100 168 94 c 0
 168 70 180 62 215 62 c 2
 258 62 l 1
 263 55 l 1
 256 -6 l 1
 256 -6 174 0 110 0 c 0
 56 0 -10 -3 -10 -3 c 1
 -3 62 l 1
 28 67 46 85 63 130 c 2
 242 637 l 1
 395 653 l 1
 406 648 l 1
 406 648 495 303 550 131 c 0
 564 83 583 66 629 62 c 1
 633 55 l 1
 626 -3 l 1
 626 -3 547 0 504 0 c 0x7c
 419 0 336 -8 336 -8 c 1
223 286 m 1
 295 286 l 2
 316 286 348 288 369 289 c 1
 310 512 l 1
 297 512 l 1
 223 286 l 1
EndSplineSet
Fore
SplineSet
436 769 m 1xbc
 395 835 l 1
 431 860 446 879 446 899 c 0
 446 916 433 925 410 925 c 0
 382 925 352 905 352 905 c 1
 335 931 l 1
 335 931 379 974 420 988 c 1
 481 988 519 962 519 917 c 0
 519 893 502 867 461 834 c 1
 484 796 l 1
 436 769 l 1xbc
161 704 m 1
 231 756 310 822 310 822 c 1
 329 822 l 1
 329 822 407 757 478 704 c 1
 456 666 l 1
 441 662 l 1
 396 685 347 707 319 719 c 1
 291 707 244 686 198 662 c 1
 183 666 l 1
 161 704 l 1
336 -8 m 1
 331 0 l 1
 336 59 l 1
 401 65 413 70 413 95 c 0
 413 104 411 116 408 130 c 2
 387 207 l 1
 361 208 319 209 295 209 c 0
 263 209 223 204 199 202 c 1
 174 125 l 2
 170 110 168 100 168 94 c 0
 168 70 180 62 215 62 c 2
 258 62 l 1
 263 55 l 1
 256 -6 l 1
 256 -6 174 0 110 0 c 0
 56 0 -10 -3 -10 -3 c 1
 -3 62 l 1
 28 67 46 85 63 130 c 2
 242 637 l 1
 395 653 l 1
 406 648 l 1
 406 648 495 303 550 131 c 0
 564 83 583 66 629 62 c 1
 633 55 l 1
 626 -3 l 1
 626 -3 547 0 504 0 c 0x7c
 419 0 336 -8 336 -8 c 1
223 286 m 1
 295 286 l 2
 316 286 348 288 369 289 c 1
 310 512 l 1
 297 512 l 1
 223 286 l 1
EndSplineSet
Substitution2: "'c2sc' Capitals to Small Capitals lookup 35 subtable" uni1EA9.sc
Substitution2: "'aalt' Access All Alternates lookup 0 subtable" uni1EA9.sc
Position2: "'cpsp' Capital Spacing lookup 0 subtable" dx=10 dy=0 dh=20 dv=0
EndChar

StartChar: uni1EAA
Encoding: 7850 7850 15
Width: 625
GlyphClass: 2
Flags: MW
HStem: -8 8 0 62 209 77<279 295 295 305.5 223 307> 633 20G<395 395> 838 83<379 387.5 363.5 394> 868 84<250 258.5 244 274>
VStem: -10 643<-3 55>
AnchorPoint: "Anchor-17" 0 0 basechar 0
AnchorPoint: "Anchor-16" 0 0 basechar 0
AnchorPoint: "Anchor-15" 319 967 basechar 0
AnchorPoint: "Anchor-14" 563 10 basechar 0
AnchorPoint: "Anchor-13" 313 0 basechar 0
LayerCount: 2
Back
SplineSet
194 822 m 1xb6
 159 854 l 1
 159 863 l 1
 229 948 l 1
 244 952 l 1xb6
 273 952 350 921 377 921 c 0
 398 921 434 967 434 967 c 1
 444 967 l 1
 479 935 l 1
 479 926 l 1
 409 841 l 1
 394 838 l 1xba
 364 838 287 868 261 868 c 0
 239 868 204 822 204 822 c 1
 194 822 l 1xb6
161 704 m 1
 231 756 310 822 310 822 c 1
 329 822 l 1
 329 822 407 757 478 704 c 1
 456 666 l 1
 441 662 l 1
 396 685 347 707 319 719 c 1
 291 707 244 686 198 662 c 1
 183 666 l 1
 161 704 l 1
336 -8 m 1
 331 0 l 1
 336 59 l 1
 401 65 413 70 413 95 c 0
 413 104 411 116 408 130 c 2
 387 207 l 1
 361 208 319 209 295 209 c 0
 263 209 223 204 199 202 c 1
 174 125 l 2
 170 110 168 100 168 94 c 0
 168 70 180 62 215 62 c 2
 258 62 l 1
 263 55 l 1
 256 -6 l 1
 256 -6 174 0 110 0 c 0
 56 0 -10 -3 -10 -3 c 1
 -3 62 l 1
 28 67 46 85 63 130 c 2
 242 637 l 1
 395 653 l 1
 406 648 l 1
 406 648 495 303 550 131 c 0
 564 83 583 66 629 62 c 1
 633 55 l 1
 626 -3 l 1
 626 -3 547 0 504 0 c 0x76
 419 0 336 -8 336 -8 c 1
223 286 m 1
 295 286 l 2
 316 286 348 288 369 289 c 1
 310 512 l 1
 297 512 l 1
 223 286 l 1
EndSplineSet
Fore
SplineSet
194 822 m 1xb6
 159 854 l 1
 159 863 l 1
 229 948 l 1
 244 952 l 1xb6
 273 952 350 921 377 921 c 0
 398 921 434 967 434 967 c 1
 444 967 l 1
 479 935 l 1
 479 926 l 1
 409 841 l 1
 394 838 l 1xba
 364 838 287 868 261 868 c 0
 239 868 204 822 204 822 c 1
 194 822 l 1xb6
161 704 m 1
 231 756 310 822 310 822 c 1
 329 822 l 1
 329 822 407 757 478 704 c 1
 456 666 l 1
 441 662 l 1
 396 685 347 707 319 719 c 1
 291 707 244 686 198 662 c 1
 183 666 l 1
 161 704 l 1
336 -8 m 1
 331 0 l 1
 336 59 l 1
 401 65 413 70 413 95 c 0
 413 104 411 116 408 130 c 2
 387 207 l 1
 361 208 319 209 295 209 c 0
 263 209 223 204 199 202 c 1
 174 125 l 2
 170 110 168 100 168 94 c 0
 168 70 180 62 215 62 c 2
 258 62 l 1
 263 55 l 1
 256 -6 l 1
 256 -6 174 0 110 0 c 0
 56 0 -10 -3 -10 -3 c 1
 -3 62 l 1
 28 67 46 85 63 130 c 2
 242 637 l 1
 395 653 l 1
 406 648 l 1
 406 648 495 303 550 131 c 0
 564 83 583 66 629 62 c 1
 633 55 l 1
 626 -3 l 1
 626 -3 547 0 504 0 c 0x76
 419 0 336 -8 336 -8 c 1
223 286 m 1
 295 286 l 2
 316 286 348 288 369 289 c 1
 310 512 l 1
 297 512 l 1
 223 286 l 1
EndSplineSet
Substitution2: "'c2sc' Capitals to Small Capitals lookup 35 subtable" uni1EAB.sc
Substitution2: "'aalt' Access All Alternates lookup 0 subtable" uni1EAB.sc
Position2: "'cpsp' Capital Spacing lookup 0 subtable" dx=10 dy=0 dh=20 dv=0
EndChar

StartChar: uni0200
Encoding: 512 512 16
Width: 625
GlyphClass: 2
Flags: MW
HStem: -8 8 0 62 209 77<279 295 295 305.5 223 307> 633 20G<395 395>
VStem: -10 643<-3 55>
AnchorPoint: "Anchor-17" 0 0 basechar 0
AnchorPoint: "Anchor-16" 0 0 basechar 0
AnchorPoint: "Anchor-15" 285 851 basechar 0
AnchorPoint: "Anchor-14" 563 10 basechar 0
AnchorPoint: "Anchor-13" 313 0 basechar 0
LayerCount: 2
Back
SplineSet
435 680 m 1xb8
 351 731 267 777 267 777 c 1
 266 789 l 1
 307 849 l 1
 319 851 l 1
 319 851 397 781 470 718 c 1
 448 685 l 1
 435 680 l 1xb8
269 675 m 1
 185 727 101 772 101 772 c 1
 99 784 l 1
 141 844 l 1
 153 846 l 1
 153 846 230 776 304 713 c 1
 282 679 l 1
 269 675 l 1
336 -8 m 1
 331 0 l 1
 336 59 l 1
 401 65 413 70 413 95 c 0
 413 104 411 116 408 130 c 2
 387 207 l 1
 361 208 319 209 295 209 c 0
 263 209 223 204 199 202 c 1
 174 125 l 2
 170 110 168 100 168 94 c 0
 168 70 180 62 215 62 c 2
 258 62 l 1
 263 55 l 1
 256 -6 l 1
 256 -6 174 0 110 0 c 0
 56 0 -10 -3 -10 -3 c 1
 -3 62 l 1
 28 67 46 85 63 130 c 2
 242 637 l 1
 395 653 l 1
 406 648 l 1
 406 648 495 303 550 131 c 0
 564 83 583 66 629 62 c 1
 633 55 l 1
 626 -3 l 1
 626 -3 547 0 504 0 c 0x78
 419 0 336 -8 336 -8 c 1
223 286 m 1
 295 286 l 2
 316 286 348 288 369 289 c 1
 310 512 l 1
 297 512 l 1
 223 286 l 1
EndSplineSet
Fore
SplineSet
435 680 m 1xb8
 351 731 267 777 267 777 c 1
 266 789 l 1
 307 849 l 1
 319 851 l 1
 319 851 397 781 470 718 c 1
 448 685 l 1
 435 680 l 1xb8
269 675 m 1
 185 727 101 772 101 772 c 1
 99 784 l 1
 141 844 l 1
 153 846 l 1
 153 846 230 776 304 713 c 1
 282 679 l 1
 269 675 l 1
336 -8 m 1
 331 0 l 1
 336 59 l 1
 401 65 413 70 413 95 c 0
 413 104 411 116 408 130 c 2
 387 207 l 1
 361 208 319 209 295 209 c 0
 263 209 223 204 199 202 c 1
 174 125 l 2
 170 110 168 100 168 94 c 0
 168 70 180 62 215 62 c 2
 258 62 l 1
 263 55 l 1
 256 -6 l 1
 256 -6 174 0 110 0 c 0
 56 0 -10 -3 -10 -3 c 1
 -3 62 l 1
 28 67 46 85 63 130 c 2
 242 637 l 1
 395 653 l 1
 406 648 l 1
 406 648 495 303 550 131 c 0
 564 83 583 66 629 62 c 1
 633 55 l 1
 626 -3 l 1
 626 -3 547 0 504 0 c 0x78
 419 0 336 -8 336 -8 c 1
223 286 m 1
 295 286 l 2
 316 286 348 288 369 289 c 1
 310 512 l 1
 297 512 l 1
 223 286 l 1
EndSplineSet
Substitution2: "'c2sc' Capitals to Small Capitals lookup 35 subtable" uni0201.sc
Substitution2: "'aalt' Access All Alternates lookup 0 subtable" uni0201.sc
Position2: "'cpsp' Capital Spacing lookup 0 subtable" dx=10 dy=0 dh=20 dv=0
EndChar

StartChar: Adieresis
Encoding: 196 196 17
Width: 625
GlyphClass: 2
Flags: MW
HStem: -8 8 0 62 209 77<279 295 295 305.5 223 307> 633 20G<395 395> 701 127<213 244 390 422.5>
VStem: 166 125<748.5 780.5> 344 124<748.5 780.5>
AnchorPoint: "Anchor-17" 0 0 basechar 0
AnchorPoint: "Anchor-16" 0 0 basechar 0
AnchorPoint: "Anchor-15" 318 828 basechar 0
AnchorPoint: "Anchor-14" 563 10 basechar 0
AnchorPoint: "Anchor-13" 313 0 basechar 0
LayerCount: 2
Back
SplineSet
224 701 m 0xbe
 187 701 166 726 166 761 c 0
 166 800 193 828 233 828 c 0
 270 828 291 803 291 768 c 0
 291 729 264 701 224 701 c 0xbe
403 701 m 0
 364 701 344 726 344 761 c 0
 344 800 370 828 410 828 c 0
 448 828 468 803 468 768 c 0
 468 729 442 701 403 701 c 0
336 -8 m 1
 331 0 l 1
 336 59 l 1
 401 65 413 70 413 95 c 0
 413 104 411 116 408 130 c 2
 387 207 l 1
 361 208 319 209 295 209 c 0
 263 209 223 204 199 202 c 1
 174 125 l 2
 170 110 168 100 168 94 c 0
 168 70 180 62 215 62 c 2
 258 62 l 1
 263 55 l 1
 256 -6 l 1
 256 -6 174 0 110 0 c 0
 56 0 -10 -3 -10 -3 c 1
 -3 62 l 1
 28 67 46 85 63 130 c 2
 242 637 l 1
 395 653 l 1
 406 648 l 1
 406 648 495 303 550 131 c 0
 564 83 583 66 629 62 c 1
 633 55 l 1
 626 -3 l 1
 626 -3 547 0 504 0 c 0x7e
 419 0 336 -8 336 -8 c 1
223 286 m 1
 295 286 l 2
 316 286 348 288 369 289 c 1
 310 512 l 1
 297 512 l 1
 223 286 l 1
EndSplineSet
Fore
SplineSet
224 701 m 0xbe
 187 701 166 726 166 761 c 0
 166 800 193 828 233 828 c 0
 270 828 291 803 291 768 c 0
 291 729 264 701 224 701 c 0xbe
403 701 m 0
 364 701 344 726 344 761 c 0
 344 800 370 828 410 828 c 0
 448 828 468 803 468 768 c 0
 468 729 442 701 403 701 c 0
336 -8 m 1
 331 0 l 1
 336 59 l 1
 401 65 413 70 413 95 c 0
 413 104 411 116 408 130 c 2
 387 207 l 1
 361 208 319 209 295 209 c 0
 263 209 223 204 199 202 c 1
 174 125 l 2
 170 110 168 100 168 94 c 0
 168 70 180 62 215 62 c 2
 258 62 l 1
 263 55 l 1
 256 -6 l 1
 256 -6 174 0 110 0 c 0
 56 0 -10 -3 -10 -3 c 1
 -3 62 l 1
 28 67 46 85 63 130 c 2
 242 637 l 1
 395 653 l 1
 406 648 l 1
 406 648 495 303 550 131 c 0
 564 83 583 66 629 62 c 1
 633 55 l 1
 626 -3 l 1
 626 -3 547 0 504 0 c 0x7e
 419 0 336 -8 336 -8 c 1
223 286 m 1
 295 286 l 2
 316 286 348 288 369 289 c 1
 310 512 l 1
 297 512 l 1
 223 286 l 1
EndSplineSet
Substitution2: "'c2sc' Capitals to Small Capitals lookup 35 subtable" adieresis.sc
Substitution2: "'aalt' Access All Alternates lookup 0 subtable" adieresis.sc
Position2: "'cpsp' Capital Spacing lookup 0 subtable" dx=10 dy=0 dh=20 dv=0
EndChar

StartChar: uni1EA0
Encoding: 7840 7840 18
Width: 625
GlyphClass: 2
Flags: MW
HStem: -210 155<275.5 318.5> -8 8 0 62 209 77<279 295 295 305.5 223 307> 633 20G<395 395>
VStem: 220 154<-153 -112>
AnchorPoint: "Anchor-17" 0 0 basechar 0
AnchorPoint: "Anchor-16" 0 0 basechar 0
AnchorPoint: "Anchor-15" 313 642 basechar 0
AnchorPoint: "Anchor-14" 563 10 basechar 0
AnchorPoint: "Anchor-13" 298 -210 basechar 0
LayerCount: 2
Back
SplineSet
336 -8 m 1x5c
 331 0 l 1
 336 59 l 1
 401 65 413 70 413 95 c 0
 413 104 411 116 408 130 c 2
 387 207 l 1
 361 208 319 209 295 209 c 0
 263 209 223 204 199 202 c 1
 174 125 l 2
 170 110 168 100 168 94 c 0
 168 70 180 62 215 62 c 2
 258 62 l 1
 263 55 l 1
 256 -6 l 1
 256 -6 174 0 110 0 c 0
 56 0 -10 -3 -10 -3 c 1
 -3 62 l 1
 28 67 46 85 63 130 c 2
 242 637 l 1
 395 653 l 1
 406 648 l 1
 406 648 495 303 550 131 c 0
 564 83 583 66 629 62 c 1
 633 55 l 1
 626 -3 l 1
 626 -3 547 0 504 0 c 0xbc
 419 0 336 -8 336 -8 c 1x5c
223 286 m 1
 295 286 l 2
 316 286 348 288 369 289 c 1
 310 512 l 1
 297 512 l 1
 223 286 l 1
294 -210 m 0
 245 -210 220 -179 220 -136 c 0
 220 -88 251 -55 300 -55 c 0
 347 -55 374 -85 374 -129 c 0
 374 -177 343 -210 294 -210 c 0
EndSplineSet
Fore
SplineSet
336 -8 m 1x5c
 331 0 l 1
 336 59 l 1
 401 65 413 70 413 95 c 0
 413 104 411 116 408 130 c 2
 387 207 l 1
 361 208 319 209 295 209 c 0
 263 209 223 204 199 202 c 1
 174 125 l 2
 170 110 168 100 168 94 c 0
 168 70 180 62 215 62 c 2
 258 62 l 1
 263 55 l 1
 256 -6 l 1
 256 -6 174 0 110 0 c 0
 56 0 -10 -3 -10 -3 c 1
 -3 62 l 1
 28 67 46 85 63 130 c 2
 242 637 l 1
 395 653 l 1
 406 648 l 1
 406 648 495 303 550 131 c 0
 564 83 583 66 629 62 c 1
 633 55 l 1
 626 -3 l 1
 626 -3 547 0 504 0 c 0xbc
 419 0 336 -8 336 -8 c 1x5c
223 286 m 1
 295 286 l 2
 316 286 348 288 369 289 c 1
 310 512 l 1
 297 512 l 1
 223 286 l 1
294 -210 m 0
 245 -210 220 -179 220 -136 c 0
 220 -88 251 -55 300 -55 c 0
 347 -55 374 -85 374 -129 c 0
 374 -177 343 -210 294 -210 c 0
EndSplineSet
Substitution2: "'c2sc' Capitals to Small Capitals lookup 35 subtable" uni1EA1.sc
Substitution2: "'aalt' Access All Alternates lookup 0 subtable" uni1EA1.sc
Position2: "'cpsp' Capital Spacing lookup 0 subtable" dx=10 dy=0 dh=20 dv=0
EndChar

StartChar: Agrave
Encoding: 192 192 19
Width: 625
GlyphClass: 2
Flags: MW
HStem: -8 8 0 62 209 77<279 295 295 305.5 223 307> 633 20G<395 395>
VStem: -10 643<-3 55>
AnchorPoint: "Anchor-17" 0 0 basechar 0
AnchorPoint: "Anchor-16" 0 0 basechar 0
AnchorPoint: "Anchor-15" 294 856 basechar 0
AnchorPoint: "Anchor-14" 563 10 basechar 0
AnchorPoint: "Anchor-13" 313 0 basechar 0
LayerCount: 2
Back
SplineSet
397 698 m 1xb8
 284 734 170 763 170 763 c 1
 164 776 l 1
 189 851 l 1
 202 856 l 1
 202 856 316 799 423 751 c 1
 410 706 l 1
 397 698 l 1xb8
336 -8 m 1
 331 0 l 1
 336 59 l 1
 401 65 413 70 413 95 c 0
 413 104 411 116 408 130 c 2
 387 207 l 1
 361 208 319 209 295 209 c 0
 263 209 223 204 199 202 c 1
 174 125 l 2
 170 110 168 100 168 94 c 0
 168 70 180 62 215 62 c 2
 258 62 l 1
 263 55 l 1
 256 -6 l 1
 256 -6 174 0 110 0 c 0
 56 0 -10 -3 -10 -3 c 1
 -3 62 l 1
 28 67 46 85 63 130 c 2
 242 637 l 1
 395 653 l 1
 406 648 l 1
 406 648 495 303 550 131 c 0
 564 83 583 66 629 62 c 1
 633 55 l 1
 626 -3 l 1
 626 -3 547 0 504 0 c 0x78
 419 0 336 -8 336 -8 c 1
223 286 m 1
 295 286 l 2
 316 286 348 288 369 289 c 1
 310 512 l 1
 297 512 l 1
 223 286 l 1
EndSplineSet
Fore
SplineSet
397 698 m 1xb8
 284 734 170 763 170 763 c 1
 164 776 l 1
 189 851 l 1
 202 856 l 1
 202 856 316 799 423 751 c 1
 410 706 l 1
 397 698 l 1xb8
336 -8 m 1
 331 0 l 1
 336 59 l 1
 401 65 413 70 413 95 c 0
 413 104 411 116 408 130 c 2
 387 207 l 1
 361 208 319 209 295 209 c 0
 263 209 223 204 199 202 c 1
 174 125 l 2
 170 110 168 100 168 94 c 0
 168 70 180 62 215 62 c 2
 258 62 l 1
 263 55 l 1
 256 -6 l 1
 256 -6 174 0 110 0 c 0
 56 0 -10 -3 -10 -3 c 1
 -3 62 l 1
 28 67 46 85 63 130 c 2
 242 637 l 1
 395 653 l 1
 406 648 l 1
 406 648 495 303 550 131 c 0
 564 83 583 66 629 62 c 1
 633 55 l 1
 626 -3 l 1
 626 -3 547 0 504 0 c 0x78
 419 0 336 -8 336 -8 c 1
223 286 m 1
 295 286 l 2
 316 286 348 288 369 289 c 1
 310 512 l 1
 297 512 l 1
 223 286 l 1
EndSplineSet
Substitution2: "'c2sc' Capitals to Small Capitals lookup 35 subtable" agrave.sc
Substitution2: "'aalt' Access All Alternates lookup 0 subtable" agrave.sc
Position2: "'cpsp' Capital Spacing lookup 0 subtable" dx=10 dy=0 dh=20 dv=0
EndChar

StartChar: uni1EA2
Encoding: 7842 7842 20
Width: 625
GlyphClass: 2
Flags: MW
HStem: -8 8 0 62 209 77<279 295 295 305.5 223 307> 633 20G<395 395> 721 20G<338 338> 722 20G<266 266> 840 68<294 295.5>
VStem: 321 79<818 820.5>
AnchorPoint: "Anchor-17" 0 0 basechar 0
AnchorPoint: "Anchor-16" 0 0 basechar 0
AnchorPoint: "Anchor-15" 302 908 basechar 0
AnchorPoint: "Anchor-14" 563 10 basechar 0
AnchorPoint: "Anchor-13" 313 0 basechar 0
LayerCount: 2
Back
SplineSet
310 672 m 1xbb
 266 742 l 1xb5
 306 770 321 790 321 812 c 0
 321 829 307 840 284 840 c 0
 253 840 221 817 221 817 c 1
 203 845 l 1
 203 845 250 892 294 908 c 1
 359 908 400 879 400 831 c 0
 400 805 381 777 338 741 c 1
 363 701 l 1
 310 672 l 1xbb
336 -8 m 1
 331 0 l 1
 336 59 l 1
 401 65 413 70 413 95 c 0
 413 104 411 116 408 130 c 2
 387 207 l 1
 361 208 319 209 295 209 c 0
 263 209 223 204 199 202 c 1
 174 125 l 2
 170 110 168 100 168 94 c 0
 168 70 180 62 215 62 c 2
 258 62 l 1
 263 55 l 1
 256 -6 l 1
 256 -6 174 0 110 0 c 0
 56 0 -10 -3 -10 -3 c 1
 -3 62 l 1
 28 67 46 85 63 130 c 2
 242 637 l 1
 395 653 l 1
 406 648 l 1
 406 648 495 303 550 131 c 0
 564 83 583 66 629 62 c 1
 633 55 l 1
 626 -3 l 1
 626 -3 547 0 504 0 c 0x75
 419 0 336 -8 336 -8 c 1
223 286 m 1
 295 286 l 2
 316 286 348 288 369 289 c 1
 310 512 l 1
 297 512 l 1
 223 286 l 1
EndSplineSet
Fore
SplineSet
310 672 m 1xbb
 266 742 l 1xb5
 306 770 321 790 321 812 c 0
 321 829 307 840 284 840 c 0
 253 840 221 817 221 817 c 1
 203 845 l 1
 203 845 250 892 294 908 c 1
 359 908 400 879 400 831 c 0
 400 805 381 777 338 741 c 1
 363 701 l 1
 310 672 l 1xbb
336 -8 m 1
 331 0 l 1
 336 59 l 1
 401 65 413 70 413 95 c 0
 413 104 411 116 408 130 c 2
 387 207 l 1
 361 208 319 209 295 209 c 0
 263 209 223 204 199 202 c 1
 174 125 l 2
 170 110 168 100 168 94 c 0
 168 70 180 62 215 62 c 2
 258 62 l 1
 263 55 l 1
 256 -6 l 1
 256 -6 174 0 110 0 c 0
 56 0 -10 -3 -10 -3 c 1
 -3 62 l 1
 28 67 46 85 63 130 c 2
 242 637 l 1
 395 653 l 1
 406 648 l 1
 406 648 495 303 550 131 c 0
 564 83 583 66 629 62 c 1
 633 55 l 1
 626 -3 l 1
 626 -3 547 0 504 0 c 0x75
 419 0 336 -8 336 -8 c 1
223 286 m 1
 295 286 l 2
 316 286 348 288 369 289 c 1
 310 512 l 1
 297 512 l 1
 223 286 l 1
EndSplineSet
Substitution2: "'c2sc' Capitals to Small Capitals lookup 35 subtable" uni1EA3.sc
Substitution2: "'aalt' Access All Alternates lookup 0 subtable" uni1EA3.sc
Position2: "'cpsp' Capital Spacing lookup 0 subtable" dx=10 dy=0 dh=20 dv=0
EndChar

StartChar: uni0202
Encoding: 514 514 21
Width: 625
GlyphClass: 2
Flags: MW
HStem: -8 8 0 62 209 77<279 295 295 305.5 223 307> 633 20G<395 395> 775 93<290.5 335.5>
VStem: -10 643<-3 55>
AnchorPoint: "Anchor-17" 0 0 basechar 0
AnchorPoint: "Anchor-16" 0 0 basechar 0
AnchorPoint: "Anchor-15" 313 868 basechar 0
AnchorPoint: "Anchor-14" 563 10 basechar 0
AnchorPoint: "Anchor-13" 313 0 basechar 0
LayerCount: 2
Back
SplineSet
313 775 m 0xbc
 268 775 228 753 210 708 c 1
 194 711 l 1
 167 744 l 1
 184 806 229 868 313 868 c 0
 397 868 442 806 459 744 c 1
 432 711 l 1
 416 708 l 1
 397 753 358 775 313 775 c 0xbc
336 -8 m 1
 331 0 l 1
 336 59 l 1
 401 65 413 70 413 95 c 0
 413 104 411 116 408 130 c 2
 387 207 l 1
 361 208 319 209 295 209 c 0
 263 209 223 204 199 202 c 1
 174 125 l 2
 170 110 168 100 168 94 c 0
 168 70 180 62 215 62 c 2
 258 62 l 1
 263 55 l 1
 256 -6 l 1
 256 -6 174 0 110 0 c 0
 56 0 -10 -3 -10 -3 c 1
 -3 62 l 1
 28 67 46 85 63 130 c 2
 242 637 l 1
 395 653 l 1
 406 648 l 1
 406 648 495 303 550 131 c 0
 564 83 583 66 629 62 c 1
 633 55 l 1
 626 -3 l 1
 626 -3 547 0 504 0 c 0x7c
 419 0 336 -8 336 -8 c 1
223 286 m 1
 295 286 l 2
 316 286 348 288 369 289 c 1
 310 512 l 1
 297 512 l 1
 223 286 l 1
EndSplineSet
Fore
SplineSet
313 775 m 0xbc
 268 775 228 753 210 708 c 1
 194 711 l 1
 167 744 l 1
 184 806 229 868 313 868 c 0
 397 868 442 806 459 744 c 1
 432 711 l 1
 416 708 l 1
 397 753 358 775 313 775 c 0xbc
336 -8 m 1
 331 0 l 1
 336 59 l 1
 401 65 413 70 413 95 c 0
 413 104 411 116 408 130 c 2
 387 207 l 1
 361 208 319 209 295 209 c 0
 263 209 223 204 199 202 c 1
 174 125 l 2
 170 110 168 100 168 94 c 0
 168 70 180 62 215 62 c 2
 258 62 l 1
 263 55 l 1
 256 -6 l 1
 256 -6 174 0 110 0 c 0
 56 0 -10 -3 -10 -3 c 1
 -3 62 l 1
 28 67 46 85 63 130 c 2
 242 637 l 1
 395 653 l 1
 406 648 l 1
 406 648 495 303 550 131 c 0
 564 83 583 66 629 62 c 1
 633 55 l 1
 626 -3 l 1
 626 -3 547 0 504 0 c 0x7c
 419 0 336 -8 336 -8 c 1
223 286 m 1
 295 286 l 2
 316 286 348 288 369 289 c 1
 310 512 l 1
 297 512 l 1
 223 286 l 1
EndSplineSet
Substitution2: "'c2sc' Capitals to Small Capitals lookup 35 subtable" uni0203.sc
Substitution2: "'aalt' Access All Alternates lookup 0 subtable" uni0203.sc
Position2: "'cpsp' Capital Spacing lookup 0 subtable" dx=10 dy=0 dh=20 dv=0
EndChar

StartChar: Amacron
Encoding: 256 256 22
Width: 625
GlyphClass: 2
Flags: MW
HStem: -8 8 0 62 209 77<279 295 295 305.5 223 307> 633 20G<395 395> 709 83<306.5 318> 785 13<463 471>
VStem: -10 643<-3 55>
AnchorPoint: "Anchor-17" 0 0 basechar 0
AnchorPoint: "Anchor-16" 0 0 basechar 0
AnchorPoint: "Anchor-15" 320 780 basechar 0
AnchorPoint: "Anchor-14" 563 10 basechar 0
AnchorPoint: "Anchor-13" 313 0 basechar 0
LayerCount: 2
Back
SplineSet
178 708 m 1xba
 168 719 l 1
 182 793 l 1
 182 793 277 792 336 792 c 0
 386 792 463 798 463 798 c 1xba
 471 785 l 1xb6
 459 710 l 1
 318 709 l 2
 259 709 178 708 178 708 c 1xba
336 -8 m 1
 331 0 l 1
 336 59 l 1
 401 65 413 70 413 95 c 0
 413 104 411 116 408 130 c 2
 387 207 l 1
 361 208 319 209 295 209 c 0
 263 209 223 204 199 202 c 1
 174 125 l 2
 170 110 168 100 168 94 c 0
 168 70 180 62 215 62 c 2
 258 62 l 1
 263 55 l 1
 256 -6 l 1
 256 -6 174 0 110 0 c 0
 56 0 -10 -3 -10 -3 c 1
 -3 62 l 1
 28 67 46 85 63 130 c 2
 242 637 l 1
 395 653 l 1
 406 648 l 1
 406 648 495 303 550 131 c 0
 564 83 583 66 629 62 c 1
 633 55 l 1
 626 -3 l 1
 626 -3 547 0 504 0 c 0x7a
 419 0 336 -8 336 -8 c 1
223 286 m 1
 295 286 l 2
 316 286 348 288 369 289 c 1
 310 512 l 1
 297 512 l 1
 223 286 l 1
EndSplineSet
Fore
SplineSet
178 708 m 1xba
 168 719 l 1
 182 793 l 1
 182 793 277 792 336 792 c 0
 386 792 463 798 463 798 c 1xba
 471 785 l 1xb6
 459 710 l 1
 318 709 l 2
 259 709 178 708 178 708 c 1xba
336 -8 m 1
 331 0 l 1
 336 59 l 1
 401 65 413 70 413 95 c 0
 413 104 411 116 408 130 c 2
 387 207 l 1
 361 208 319 209 295 209 c 0
 263 209 223 204 199 202 c 1
 174 125 l 2
 170 110 168 100 168 94 c 0
 168 70 180 62 215 62 c 2
 258 62 l 1
 263 55 l 1
 256 -6 l 1
 256 -6 174 0 110 0 c 0
 56 0 -10 -3 -10 -3 c 1
 -3 62 l 1
 28 67 46 85 63 130 c 2
 242 637 l 1
 395 653 l 1
 406 648 l 1
 406 648 495 303 550 131 c 0
 564 83 583 66 629 62 c 1
 633 55 l 1
 626 -3 l 1
 626 -3 547 0 504 0 c 0x7a
 419 0 336 -8 336 -8 c 1
223 286 m 1
 295 286 l 2
 316 286 348 288 369 289 c 1
 310 512 l 1
 297 512 l 1
 223 286 l 1
EndSplineSet
Substitution2: "'c2sc' Capitals to Small Capitals lookup 35 subtable" amacron.sc
Substitution2: "'aalt' Access All Alternates lookup 0 subtable" amacron.sc
Position2: "'cpsp' Capital Spacing lookup 0 subtable" dx=10 dy=0 dh=20 dv=0
EndChar

StartChar: Aogonek
Encoding: 260 260 23
Width: 625
GlyphClass: 2
Flags: MW
HStem: -241 79<492.5 552> -8 8 0 62 209 77<279 295 295 305.5 223 307> 633 20G<395 395>
VStem: 410 90<-133.5 -126.5>
AnchorPoint: "Anchor-17" 0 0 basechar 0
AnchorPoint: "Anchor-16" 0 0 basechar 0
AnchorPoint: "Anchor-15" 313 642 basechar 0
AnchorPoint: "Anchor-14" 563 10 basechar 0
AnchorPoint: "Anchor-13" 313 0 basechar 0
LayerCount: 2
Back
SplineSet
542 -162 m 0xdc
 562 -162 590 -153 611 -139 c 1
 633 -173 l 1
 596 -209 557 -234 527 -241 c 1
 458 -241 410 -202 410 -145 c 0
 410 -108 424 -82 499 0 c 1
 416 0 336 -8 336 -8 c 1
 331 0 l 1
 336 59 l 1
 401 65 413 70 413 95 c 0
 413 104 411 116 408 130 c 2
 387 207 l 1
 361 208 319 209 295 209 c 0
 263 209 223 204 199 202 c 1
 174 125 l 2
 170 110 168 100 168 94 c 0
 168 70 180 62 215 62 c 2
 258 62 l 1
 263 55 l 1
 256 -6 l 1
 256 -6 174 0 110 0 c 0
 56 0 -10 -3 -10 -3 c 1
 -3 62 l 1xbc
 28 67 46 85 63 130 c 2
 242 637 l 1
 395 653 l 1
 406 648 l 1
 406 648 495 303 550 131 c 0
 564 83 583 66 629 62 c 1
 633 55 l 1
 626 -3 l 1
 564 -1 l 1
 514 -66 500 -94 500 -121 c 0
 500 -146 516 -162 542 -162 c 0xdc
295 286 m 2
 316 286 348 288 369 289 c 1
 310 512 l 1
 297 512 l 1
 223 286 l 1
 295 286 l 2
EndSplineSet
Fore
SplineSet
542 -162 m 0xdc
 562 -162 590 -153 611 -139 c 1
 633 -173 l 1
 596 -209 557 -234 527 -241 c 1
 458 -241 410 -202 410 -145 c 0
 410 -108 424 -82 499 0 c 1
 416 0 336 -8 336 -8 c 1
 331 0 l 1
 336 59 l 1
 401 65 413 70 413 95 c 0
 413 104 411 116 408 130 c 2
 387 207 l 1
 361 208 319 209 295 209 c 0
 263 209 223 204 199 202 c 1
 174 125 l 2
 170 110 168 100 168 94 c 0
 168 70 180 62 215 62 c 2
 258 62 l 1
 263 55 l 1
 256 -6 l 1
 256 -6 174 0 110 0 c 0
 56 0 -10 -3 -10 -3 c 1
 -3 62 l 1xbc
 28 67 46 85 63 130 c 2
 242 637 l 1
 395 653 l 1
 406 648 l 1
 406 648 495 303 550 131 c 0
 564 83 583 66 629 62 c 1
 633 55 l 1
 626 -3 l 1
 564 -1 l 1
 514 -66 500 -94 500 -121 c 0
 500 -146 516 -162 542 -162 c 0xdc
295 286 m 2
 316 286 348 288 369 289 c 1
 310 512 l 1
 297 512 l 1
 223 286 l 1
 295 286 l 2
EndSplineSet
Substitution2: "'c2sc' Capitals to Small Capitals lookup 35 subtable" aogonek.sc
Substitution2: "'aalt' Access All Alternates lookup 0 subtable" aogonek.sc
Position2: "'cpsp' Capital Spacing lookup 0 subtable" dx=10 dy=0 dh=20 dv=0
EndChar

StartChar: Aring
Encoding: 197 197 24
Width: 625
GlyphClass: 2
Flags: MW
HStem: -8 8 0 62 209 77<279 295 295 305.5 223 307> 633 20G<395 395> 678 52<310.5 327 310.5 344> 808 54<300.5 329>
VStem: 226 48<757 783.5 757 795> 360 50<750.5 779>
AnchorPoint: "Anchor-17" 0 0 basechar 0
AnchorPoint: "Anchor-16" 0 0 basechar 0
AnchorPoint: "Anchor-15" 318 862 basechar 0
AnchorPoint: "Anchor-14" 563 10 basechar 0
AnchorPoint: "Anchor-13" 313 0 basechar 0
LayerCount: 2
Back
SplineSet
313 678 m 0xaf
 257 678 226 715 226 768 c 0
 226 822 263 862 321 862 c 0
 385 862 410 820 410 776 c 0
 410 725 375 678 313 678 c 0xaf
320 730 m 0
 334 730 360 735 360 766 c 0
 360 792 344 808 314 808 c 0
 287 808 274 794 274 773 c 0
 274 741 301 730 320 730 c 0
336 -8 m 1
 331 0 l 1
 336 59 l 1
 401 65 413 70 413 95 c 0
 413 104 411 116 408 130 c 2
 387 207 l 1
 361 208 319 209 295 209 c 0
 263 209 223 204 199 202 c 1
 174 125 l 2
 170 110 168 100 168 94 c 0
 168 70 180 62 215 62 c 2
 258 62 l 1
 263 55 l 1
 256 -6 l 1
 256 -6 174 0 110 0 c 0
 56 0 -10 -3 -10 -3 c 1
 -3 62 l 1
 28 67 46 85 63 130 c 2
 242 637 l 1
 395 653 l 1
 406 648 l 1
 406 648 495 303 550 131 c 0
 564 83 583 66 629 62 c 1
 633 55 l 1
 626 -3 l 1
 626 -3 547 0 504 0 c 0x7f
 419 0 336 -8 336 -8 c 1
223 286 m 1
 295 286 l 2
 316 286 348 288 369 289 c 1
 310 512 l 1
 297 512 l 1
 223 286 l 1
EndSplineSet
Fore
SplineSet
313 678 m 0xaf
 257 678 226 715 226 768 c 0
 226 822 263 862 321 862 c 0
 385 862 410 820 410 776 c 0
 410 725 375 678 313 678 c 0xaf
320 730 m 0
 334 730 360 735 360 766 c 0
 360 792 344 808 314 808 c 0
 287 808 274 794 274 773 c 0
 274 741 301 730 320 730 c 0
336 -8 m 1
 331 0 l 1
 336 59 l 1
 401 65 413 70 413 95 c 0
 413 104 411 116 408 130 c 2
 387 207 l 1
 361 208 319 209 295 209 c 0
 263 209 223 204 199 202 c 1
 174 125 l 2
 170 110 168 100 168 94 c 0
 168 70 180 62 215 62 c 2
 258 62 l 1
 263 55 l 1
 256 -6 l 1
 256 -6 174 0 110 0 c 0
 56 0 -10 -3 -10 -3 c 1
 -3 62 l 1
 28 67 46 85 63 130 c 2
 242 637 l 1
 395 653 l 1
 406 648 l 1
 406 648 495 303 550 131 c 0
 564 83 583 66 629 62 c 1
 633 55 l 1
 626 -3 l 1
 626 -3 547 0 504 0 c 0x7f
 419 0 336 -8 336 -8 c 1
223 286 m 1
 295 286 l 2
 316 286 348 288 369 289 c 1
 310 512 l 1
 297 512 l 1
 223 286 l 1
EndSplineSet
Substitution2: "'c2sc' Capitals to Small Capitals lookup 35 subtable" aring.sc
Substitution2: "'aalt' Access All Alternates lookup 0 subtable" aring.sc
Position2: "'cpsp' Capital Spacing lookup 0 subtable" dx=10 dy=0 dh=20 dv=0
EndChar

StartChar: Aringacute
Encoding: 506 506 25
Width: 625
GlyphClass: 2
Flags: MW
HStem: -8 8 0 62 209 77<279 295 295 305.5 223 307> 633 20G<395 395> 673 47<320.5 335.5 320.5 350> 791 48<311.5 337>
VStem: 244 44<744.5 768.5 744.5 778.5> 365 44<739 764.5>
AnchorPoint: "Anchor-17" 0 0 basechar 0
AnchorPoint: "Anchor-16" 0 0 basechar 0
AnchorPoint: "Anchor-15" 323 917 basechar 0
AnchorPoint: "Anchor-14" 563 10 basechar 0
AnchorPoint: "Anchor-13" 313 0 basechar 0
LayerCount: 2
Back
SplineSet
239 833 m 1xb7
 227 840 l 1
 216 881 l 1
 312 924 415 976 415 976 c 1
 426 971 l 1
 449 903 l 1
 444 892 l 1
 444 892 341 865 239 833 c 1xb7
322 673 m 0xbf
 272 673 244 706 244 754 c 0
 244 803 278 839 330 839 c 0
 387 839 409 801 409 762 c 0
 409 716 378 673 322 673 c 0xbf
329 720 m 0
 342 720 365 725 365 753 c 0
 365 776 350 791 324 791 c 0
 299 791 288 778 288 759 c 0
 288 730 312 720 329 720 c 0
336 -8 m 1
 331 0 l 1
 336 59 l 1
 401 65 413 70 413 95 c 0
 413 104 411 116 408 130 c 2
 387 207 l 1
 361 208 319 209 295 209 c 0
 263 209 223 204 199 202 c 1
 174 125 l 2
 170 110 168 100 168 94 c 0
 168 70 180 62 215 62 c 2
 258 62 l 1
 263 55 l 1
 256 -6 l 1
 256 -6 174 0 110 0 c 0
 56 0 -10 -3 -10 -3 c 1
 -3 62 l 1
 28 67 46 85 63 130 c 2
 242 637 l 1
 395 653 l 1
 406 648 l 1
 406 648 495 303 550 131 c 0
 564 83 583 66 629 62 c 1
 633 55 l 1
 626 -3 l 1
 626 -3 547 0 504 0 c 0x77
 419 0 336 -8 336 -8 c 1
223 286 m 1
 295 286 l 2
 316 286 348 288 369 289 c 1
 310 512 l 1
 297 512 l 1
 223 286 l 1
EndSplineSet
Fore
SplineSet
239 833 m 1xb7
 227 840 l 1
 216 881 l 1
 312 924 415 976 415 976 c 1
 426 971 l 1
 449 903 l 1
 444 892 l 1
 444 892 341 865 239 833 c 1xb7
322 673 m 0xbf
 272 673 244 706 244 754 c 0
 244 803 278 839 330 839 c 0
 387 839 409 801 409 762 c 0
 409 716 378 673 322 673 c 0xbf
329 720 m 0
 342 720 365 725 365 753 c 0
 365 776 350 791 324 791 c 0
 299 791 288 778 288 759 c 0
 288 730 312 720 329 720 c 0
336 -8 m 1
 331 0 l 1
 336 59 l 1
 401 65 413 70 413 95 c 0
 413 104 411 116 408 130 c 2
 387 207 l 1
 361 208 319 209 295 209 c 0
 263 209 223 204 199 202 c 1
 174 125 l 2
 170 110 168 100 168 94 c 0
 168 70 180 62 215 62 c 2
 258 62 l 1
 263 55 l 1
 256 -6 l 1
 256 -6 174 0 110 0 c 0
 56 0 -10 -3 -10 -3 c 1
 -3 62 l 1
 28 67 46 85 63 130 c 2
 242 637 l 1
 395 653 l 1
 406 648 l 1
 406 648 495 303 550 131 c 0
 564 83 583 66 629 62 c 1
 633 55 l 1
 626 -3 l 1
 626 -3 547 0 504 0 c 0x77
 419 0 336 -8 336 -8 c 1
223 286 m 1
 295 286 l 2
 316 286 348 288 369 289 c 1
 310 512 l 1
 297 512 l 1
 223 286 l 1
EndSplineSet
Substitution2: "'c2sc' Capitals to Small Capitals lookup 35 subtable" aringacute.sc
Substitution2: "'aalt' Access All Alternates lookup 0 subtable" aringacute.sc
Position2: "'cpsp' Capital Spacing lookup 0 subtable" dx=10 dy=0 dh=20 dv=0
EndChar

StartChar: Atilde
Encoding: 195 195 26
Width: 625
GlyphClass: 2
Flags: MW
HStem: -8 8 0 62 209 77<279 295 295 305.5 223 307> 633 20G<395 395> 706 94<386 395.5 369.5 403> 739 94<241.5 251 234 268>
VStem: -10 643<-3 55>
AnchorPoint: "Anchor-17" 0 0 basechar 0
AnchorPoint: "Anchor-16" 0 0 basechar 0
AnchorPoint: "Anchor-15" 319 833 basechar 0
AnchorPoint: "Anchor-14" 563 10 basechar 0
AnchorPoint: "Anchor-13" 313 0 basechar 0
LayerCount: 2
Back
SplineSet
178 688 m 1xb6
 140 724 l 1
 140 734 l 1
 218 829 l 1
 234 833 l 1xb6
 268 833 355 800 384 800 c 0
 407 800 449 851 449 851 c 1
 459 851 l 1
 498 815 l 1
 498 805 l 1
 420 710 l 1
 403 706 l 1xba
 369 706 282 739 254 739 c 0
 229 739 189 688 189 688 c 1
 178 688 l 1xb6
336 -8 m 1
 331 0 l 1
 336 59 l 1
 401 65 413 70 413 95 c 0
 413 104 411 116 408 130 c 2
 387 207 l 1
 361 208 319 209 295 209 c 0
 263 209 223 204 199 202 c 1
 174 125 l 2
 170 110 168 100 168 94 c 0
 168 70 180 62 215 62 c 2
 258 62 l 1
 263 55 l 1
 256 -6 l 1
 256 -6 174 0 110 0 c 0
 56 0 -10 -3 -10 -3 c 1
 -3 62 l 1
 28 67 46 85 63 130 c 2
 242 637 l 1
 395 653 l 1
 406 648 l 1
 406 648 495 303 550 131 c 0
 564 83 583 66 629 62 c 1
 633 55 l 1
 626 -3 l 1
 626 -3 547 0 504 0 c 0x76
 419 0 336 -8 336 -8 c 1
223 286 m 1
 295 286 l 2
 316 286 348 288 369 289 c 1
 310 512 l 1
 297 512 l 1
 223 286 l 1
EndSplineSet
Fore
SplineSet
178 688 m 1xb6
 140 724 l 1
 140 734 l 1
 218 829 l 1
 234 833 l 1xb6
 268 833 355 800 384 800 c 0
 407 800 449 851 449 851 c 1
 459 851 l 1
 498 815 l 1
 498 805 l 1
 420 710 l 1
 403 706 l 1xba
 369 706 282 739 254 739 c 0
 229 739 189 688 189 688 c 1
 178 688 l 1xb6
336 -8 m 1
 331 0 l 1
 336 59 l 1
 401 65 413 70 413 95 c 0
 413 104 411 116 408 130 c 2
 387 207 l 1
 361 208 319 209 295 209 c 0
 263 209 223 204 199 202 c 1
 174 125 l 2
 170 110 168 100 168 94 c 0
 168 70 180 62 215 62 c 2
 258 62 l 1
 263 55 l 1
 256 -6 l 1
 256 -6 174 0 110 0 c 0
 56 0 -10 -3 -10 -3 c 1
 -3 62 l 1
 28 67 46 85 63 130 c 2
 242 637 l 1
 395 653 l 1
 406 648 l 1
 406 648 495 303 550 131 c 0
 564 83 583 66 629 62 c 1
 633 55 l 1
 626 -3 l 1
 626 -3 547 0 504 0 c 0x76
 419 0 336 -8 336 -8 c 1
223 286 m 1
 295 286 l 2
 316 286 348 288 369 289 c 1
 310 512 l 1
 297 512 l 1
 223 286 l 1
EndSplineSet
Substitution2: "'c2sc' Capitals to Small Capitals lookup 35 subtable" atilde.sc
Substitution2: "'aalt' Access All Alternates lookup 0 subtable" atilde.sc
Position2: "'cpsp' Capital Spacing lookup 0 subtable" dx=10 dy=0 dh=20 dv=0
EndChar

StartChar: AE
Encoding: 198 198 27
Width: 868
GlyphClass: 2
Flags: MW
HStem: -8 8 0 62 0 76<477 667> 245 79.5 274.5 79.5 560 82<512 525.5 384.5 593> 576 9<204 210> 578 64 643 11<768 775>
VStem: -5 849<55 189>
AnchorPoint: "Anchor-17" 0 0 basechar 0
AnchorPoint: "Anchor-16" 0 0 basechar 0
AnchorPoint: "Anchor-15" 499 647 basechar 0
AnchorPoint: "Anchor-14" 0 0 basechar 0
AnchorPoint: "Anchor-13" 0 0 basechar 0
LayerCount: 2
Back
SplineSet
318 59 m 1x2c40
 387 65 402 74 402 106 c 0
 402 123 400 138 398 157 c 2x2c40
 386 250 l 1
 297 240 l 1
 213 224 l 1
 167 125 l 2
 158 106 155 95 155 88 c 0
 155 68 168 62 210 62 c 1
 245 58 l 1
 239 -6 l 1
 238 -5 131 0 74 0 c 0
 43 0 1 -3 1 -3 c 1
 -5 55 l 1
 7 58 33 85 56 130 c 2
 266 557 l 1
 263 573 256 578 241 578 c 0x5140
 229 578 210 576 210 576 c 1
 204 585 l 1
 212 645 l 1x8a40
 212 645 320 642 449 642 c 0x8c40
 602 642 718 646 768 654 c 1
 775 643 l 1x88c0
 775 643 758 555 752 462 c 1
 664 456 l 1
 664 456 666 483 666 496 c 0
 666 552 651 560 535 560 c 0
 489 560 482 556 482 532 c 2
 507 348 l 1
 605 360 l 1
 701 379 l 1
 711 368 l 1
 698 287 l 1
 608 280 l 1
 519 269 l 1
 539 144 l 2
 547 95 567 76 610 76 c 0
 724 76 741 90 755 191 c 1
 837 198 l 1
 844 189 l 1
 844 189 826 99 817 4 c 1
 807 -7 l 2
 807 -8 640 0 515 0 c 2
 477 0 l 2
 396 0 319 -8 319 -8 c 1
 314 0 l 1
 318 59 l 1x2c40
315 321 m 1x9440
 378 328 l 1
 355 511 l 1
 340 511 l 1
 250 316 l 1
 315 321 l 1x9440
EndSplineSet
Fore
SplineSet
318 59 m 1x2c40
 387 65 402 74 402 106 c 0
 402 123 400 138 398 157 c 2x2c40
 386 250 l 1
 297 240 l 1
 213 224 l 1
 167 125 l 2
 158 106 155 95 155 88 c 0
 155 68 168 62 210 62 c 1
 245 58 l 1
 239 -6 l 1
 238 -5 131 0 74 0 c 0
 43 0 1 -3 1 -3 c 1
 -5 55 l 1
 7 58 33 85 56 130 c 2
 266 557 l 1
 263 573 256 578 241 578 c 0x5140
 229 578 210 576 210 576 c 1
 204 585 l 1
 212 645 l 1x8a40
 212 645 320 642 449 642 c 0x8c40
 602 642 718 646 768 654 c 1
 775 643 l 1x88c0
 775 643 758 555 752 462 c 1
 664 456 l 1
 664 456 666 483 666 496 c 0
 666 552 651 560 535 560 c 0
 489 560 482 556 482 532 c 2
 507 348 l 1
 605 360 l 1
 701 379 l 1
 711 368 l 1
 698 287 l 1
 608 280 l 1
 519 269 l 1
 539 144 l 2
 547 95 567 76 610 76 c 0
 724 76 741 90 755 191 c 1
 837 198 l 1
 844 189 l 1
 844 189 826 99 817 4 c 1
 807 -7 l 2
 807 -8 640 0 515 0 c 2
 477 0 l 2
 396 0 319 -8 319 -8 c 1
 314 0 l 1
 318 59 l 1x2c40
315 321 m 1x9440
 378 328 l 1
 355 511 l 1
 340 511 l 1
 250 316 l 1
 315 321 l 1x9440
EndSplineSet
Substitution2: "'c2sc' Capitals to Small Capitals lookup 35 subtable" ae.sc
Substitution2: "'aalt' Access All Alternates lookup 0 subtable" ae.sc
Position2: "'cpsp' Capital Spacing lookup 0 subtable" dx=10 dy=0 dh=20 dv=0
EndChar

StartChar: AEacute
Encoding: 508 508 28
Width: 868
GlyphClass: 2
Flags: MW
HStem: -8 8 0 62 0 76<477 667> 245 79.5 274.5 79.5 560 82<512 525.5 384.5 593> 576 9<204 210> 578 64 643 11<768 775>
VStem: -5 849<55 189>
AnchorPoint: "Anchor-17" 0 0 basechar 0
AnchorPoint: "Anchor-16" 0 0 basechar 0
AnchorPoint: "Anchor-15" 465 792 basechar 0
AnchorPoint: "Anchor-14" 0 0 basechar 0
AnchorPoint: "Anchor-13" 0 0 basechar 0
LayerCount: 2
Back
SplineSet
372 698 m 1x8c40
 359 706 l 1
 347 751 l 1
 454 799 568 856 568 856 c 1
 580 851 l 1
 605 776 l 1
 600 763 l 1
 600 763 486 734 372 698 c 1x8c40
318 59 m 1x2c40
 387 65 402 74 402 106 c 0
 402 123 400 138 398 157 c 2x2c40
 386 250 l 1
 297 240 l 1
 213 224 l 1
 167 125 l 2
 158 106 155 95 155 88 c 0
 155 68 168 62 210 62 c 1
 245 58 l 1
 239 -6 l 1
 238 -5 131 0 74 0 c 0
 43 0 1 -3 1 -3 c 1
 -5 55 l 1
 7 58 33 85 56 130 c 2
 266 557 l 1
 263 573 256 578 241 578 c 0x5140
 229 578 210 576 210 576 c 1
 204 585 l 1
 212 645 l 1x8a40
 212 645 320 642 449 642 c 0x8c40
 602 642 718 646 768 654 c 1
 775 643 l 1x88c0
 775 643 758 555 752 462 c 1
 664 456 l 1
 664 456 666 483 666 496 c 0
 666 552 651 560 535 560 c 0
 489 560 482 556 482 532 c 2
 507 348 l 1
 605 360 l 1
 701 379 l 1
 711 368 l 1
 698 287 l 1
 608 280 l 1
 519 269 l 1
 539 144 l 2
 547 95 567 76 610 76 c 0
 724 76 741 90 755 191 c 1
 837 198 l 1
 844 189 l 1
 844 189 826 99 817 4 c 1
 807 -7 l 2
 807 -8 640 0 515 0 c 2
 477 0 l 2
 396 0 319 -8 319 -8 c 1
 314 0 l 1
 318 59 l 1x2c40
315 321 m 1x9440
 378 328 l 1
 355 511 l 1
 340 511 l 1
 250 316 l 1
 315 321 l 1x9440
EndSplineSet
Fore
SplineSet
372 698 m 1x8c40
 359 706 l 1
 347 751 l 1
 454 799 568 856 568 856 c 1
 580 851 l 1
 605 776 l 1
 600 763 l 1
 600 763 486 734 372 698 c 1x8c40
318 59 m 1x2c40
 387 65 402 74 402 106 c 0
 402 123 400 138 398 157 c 2x2c40
 386 250 l 1
 297 240 l 1
 213 224 l 1
 167 125 l 2
 158 106 155 95 155 88 c 0
 155 68 168 62 210 62 c 1
 245 58 l 1
 239 -6 l 1
 238 -5 131 0 74 0 c 0
 43 0 1 -3 1 -3 c 1
 -5 55 l 1
 7 58 33 85 56 130 c 2
 266 557 l 1
 263 573 256 578 241 578 c 0x5140
 229 578 210 576 210 576 c 1
 204 585 l 1
 212 645 l 1x8a40
 212 645 320 642 449 642 c 0x8c40
 602 642 718 646 768 654 c 1
 775 643 l 1x88c0
 775 643 758 555 752 462 c 1
 664 456 l 1
 664 456 666 483 666 496 c 0
 666 552 651 560 535 560 c 0
 489 560 482 556 482 532 c 2
 507 348 l 1
 605 360 l 1
 701 379 l 1
 711 368 l 1
 698 287 l 1
 608 280 l 1
 519 269 l 1
 539 144 l 2
 547 95 567 76 610 76 c 0
 724 76 741 90 755 191 c 1
 837 198 l 1
 844 189 l 1
 844 189 826 99 817 4 c 1
 807 -7 l 2
 807 -8 640 0 515 0 c 2
 477 0 l 2
 396 0 319 -8 319 -8 c 1
 314 0 l 1
 318 59 l 1x2c40
315 321 m 1x9440
 378 328 l 1
 355 511 l 1
 340 511 l 1
 250 316 l 1
 315 321 l 1x9440
EndSplineSet
Substitution2: "'c2sc' Capitals to Small Capitals lookup 35 subtable" aeacute.sc
Substitution2: "'aalt' Access All Alternates lookup 0 subtable" aeacute.sc
Position2: "'cpsp' Capital Spacing lookup 0 subtable" dx=10 dy=0 dh=20 dv=0
EndChar

StartChar: B
Encoding: 66 66 29
Width: 627
GlyphClass: 2
Flags: MW
HStem: -10 84<330 373 306 407.5> 281.5 77.5 566 81<270.5 412.5> 576 8<46 53> 578 64
VStem: 118 127<112 133 112 136> 417 138<457 501> 445 144<143.5 202.5>
AnchorPoint: "Anchor-17" 0 0 basechar 0
AnchorPoint: "Anchor-16" 0 0 basechar 0
AnchorPoint: "Anchor-15" 335 647 basechar 0
AnchorPoint: "Anchor-14" 0 0 basechar 0
AnchorPoint: "Anchor-13" 330 0 basechar 0
LayerCount: 2
Back
SplineSet
182 0 m 0xe5
 126 0 38 -10 38 -10 c 1
 45 56 l 1
 103 67 118 84 118 136 c 2
 119 528 l 2
 119 565 111 578 87 578 c 0xcd
 75 578 53 576 53 576 c 1
 46 584 l 1xd5
 55 644 l 1
 55 644 157 642 193 642 c 0xcd
 228 642 344 647 344 647 c 1
 481 647 555 592 555 492 c 0xe6
 555 422 511 372 447 339 c 1
 528 318 589 271 589 190 c 0
 589 70 485 -10 330 -10 c 0
 292 -9 222 0 182 0 c 0xe5
251 368 m 1
 251 368 328 359 347 359 c 1
 347 359 417 383 417 467 c 0xe6
 417 535 373 566 277 566 c 0
 264 566 260 562 259 547 c 0
 255 492 252 414 251 368 c 1
249 281 m 1
 245 133 l 2
 245 91 272 74 340 74 c 0
 406 74 445 112 445 175 c 0
 445 230 409 267 342 282 c 1
 249 281 l 1
EndSplineSet
Fore
SplineSet
182 0 m 0xe5
 126 0 38 -10 38 -10 c 1
 45 56 l 1
 103 67 118 84 118 136 c 2
 119 528 l 2
 119 565 111 578 87 578 c 0xcd
 75 578 53 576 53 576 c 1
 46 584 l 1xd5
 55 644 l 1
 55 644 157 642 193 642 c 0xcd
 228 642 344 647 344 647 c 1
 481 647 555 592 555 492 c 0xe6
 555 422 511 372 447 339 c 1
 528 318 589 271 589 190 c 0
 589 70 485 -10 330 -10 c 0
 292 -9 222 0 182 0 c 0xe5
251 368 m 1
 251 368 328 359 347 359 c 1
 347 359 417 383 417 467 c 0xe6
 417 535 373 566 277 566 c 0
 264 566 260 562 259 547 c 0
 255 492 252 414 251 368 c 1
249 281 m 1
 245 133 l 2
 245 91 272 74 340 74 c 0
 406 74 445 112 445 175 c 0
 445 230 409 267 342 282 c 1
 249 281 l 1
EndSplineSet
Substitution2: "'c2sc' Capitals to Small Capitals lookup 35 subtable" b.sc
Substitution2: "'aalt' Access All Alternates lookup 0 subtable" b.sc
Position2: "'cpsp' Capital Spacing lookup 0 subtable" dx=10 dy=0 dh=20 dv=0
EndChar

StartChar: C
Encoding: 67 67 30
Width: 616
GlyphClass: 2
Flags: MW
HStem: -12 91<297 386.5 297 387.5> 559 95<290.5 381.5>
VStem: 29 152<256 409.5>
AnchorPoint: "Anchor-17" 0 0 basechar 0
AnchorPoint: "Anchor-16" 0 0 basechar 0
AnchorPoint: "Anchor-15" 335 647 basechar 0
AnchorPoint: "Anchor-14" 0 0 basechar 0
AnchorPoint: "Anchor-13" 314 0 basechar 0
LayerCount: 2
Back
SplineSet
326 -12 m 0
 142 -12 29 108 29 303 c 0
 29 516 166 654 379 654 c 0
 463 654 569 629 569 629 c 1
 575 616 l 1
 575 616 555 534 548 428 c 1
 453 422 l 1
 453 422 455 448 455 474 c 0
 455 533 420 559 343 559 c 0
 238 559 181 484 181 338 c 0
 181 174 244 79 350 79 c 0
 423 79 463 121 479 219 c 1
 575 225 l 1
 575 225 558 123 555 40 c 1
 545 28 l 1
 545 28 449 -12 326 -12 c 0
EndSplineSet
Fore
SplineSet
326 -12 m 0
 142 -12 29 108 29 303 c 0
 29 516 166 654 379 654 c 0
 463 654 569 629 569 629 c 1
 575 616 l 1
 575 616 555 534 548 428 c 1
 453 422 l 1
 453 422 455 448 455 474 c 0
 455 533 420 559 343 559 c 0
 238 559 181 484 181 338 c 0
 181 174 244 79 350 79 c 0
 423 79 463 121 479 219 c 1
 575 225 l 1
 575 225 558 123 555 40 c 1
 545 28 l 1
 545 28 449 -12 326 -12 c 0
EndSplineSet
Substitution2: "Single Substitution lookup 54 subtable" C.ss01
Substitution2: "'ss01' Style Set 1 lookup 44 subtable" C.ss01
Substitution2: "'c2sc' Capitals to Small Capitals lookup 35 subtable" c.sc
AlternateSubs2: "'aalt' Access All Alternates lookup 1 subtable" c.sc C.ss01
Position2: "'cpsp' Capital Spacing lookup 0 subtable" dx=10 dy=0 dh=20 dv=0
EndChar

StartChar: Cacute
Encoding: 262 262 31
Width: 616
GlyphClass: 2
Flags: MW
HStem: -12 91<297 386.5 297 387.5> 559 95<290.5 381.5>
VStem: 29 152<256 409.5>
AnchorPoint: "Anchor-17" 0 0 basechar 0
AnchorPoint: "Anchor-16" 0 0 basechar 0
AnchorPoint: "Anchor-15" 381 792 basechar 0
AnchorPoint: "Anchor-14" 0 0 basechar 0
AnchorPoint: "Anchor-13" 314 0 basechar 0
LayerCount: 2
Back
SplineSet
288 698 m 1
 275 706 l 1
 263 751 l 1
 370 799 484 856 484 856 c 1
 496 851 l 1
 521 776 l 1
 516 763 l 1
 516 763 402 734 288 698 c 1
326 -12 m 0
 142 -12 29 108 29 303 c 0
 29 516 166 654 379 654 c 0
 463 654 569 629 569 629 c 1
 575 616 l 1
 575 616 555 534 548 428 c 1
 453 422 l 1
 453 422 455 448 455 474 c 0
 455 533 420 559 343 559 c 0
 238 559 181 484 181 338 c 0
 181 174 244 79 350 79 c 0
 423 79 463 121 479 219 c 1
 575 225 l 1
 575 225 558 123 555 40 c 1
 545 28 l 1
 545 28 449 -12 326 -12 c 0
EndSplineSet
Fore
SplineSet
288 698 m 1
 275 706 l 1
 263 751 l 1
 370 799 484 856 484 856 c 1
 496 851 l 1
 521 776 l 1
 516 763 l 1
 516 763 402 734 288 698 c 1
326 -12 m 0
 142 -12 29 108 29 303 c 0
 29 516 166 654 379 654 c 0
 463 654 569 629 569 629 c 1
 575 616 l 1
 575 616 555 534 548 428 c 1
 453 422 l 1
 453 422 455 448 455 474 c 0
 455 533 420 559 343 559 c 0
 238 559 181 484 181 338 c 0
 181 174 244 79 350 79 c 0
 423 79 463 121 479 219 c 1
 575 225 l 1
 575 225 558 123 555 40 c 1
 545 28 l 1
 545 28 449 -12 326 -12 c 0
EndSplineSet
Substitution2: "'c2sc' Capitals to Small Capitals lookup 35 subtable" cacute.sc
Substitution2: "'aalt' Access All Alternates lookup 0 subtable" cacute.sc
Position2: "'cpsp' Capital Spacing lookup 0 subtable" dx=10 dy=0 dh=20 dv=0
EndChar

StartChar: Ccaron
Encoding: 268 268 32
Width: 616
GlyphClass: 2
Flags: MW
HStem: -12 91<297 386.5 297 387.5> 559 95<290.5 381.5>
VStem: 29 152<256 409.5>
AnchorPoint: "Anchor-17" 0 0 basechar 0
AnchorPoint: "Anchor-16" 0 0 basechar 0
AnchorPoint: "Anchor-15" 348 799 basechar 0
AnchorPoint: "Anchor-14" 0 0 basechar 0
AnchorPoint: "Anchor-13" 314 0 basechar 0
LayerCount: 2
Back
SplineSet
338 697 m 1
 338 697 256 766 183 820 c 1
 206 860 l 1
 222 864 l 1
 268 840 320 817 348 805 c 1
 377 817 427 840 474 864 c 1
 490 860 l 1
 513 820 l 1
 440 766 358 697 358 697 c 1
 338 697 l 1
326 -12 m 0
 142 -12 29 108 29 303 c 0
 29 516 166 654 379 654 c 0
 463 654 569 629 569 629 c 1
 575 616 l 1
 575 616 555 534 548 428 c 1
 453 422 l 1
 453 422 455 448 455 474 c 0
 455 533 420 559 343 559 c 0
 238 559 181 484 181 338 c 0
 181 174 244 79 350 79 c 0
 423 79 463 121 479 219 c 1
 575 225 l 1
 575 225 558 123 555 40 c 1
 545 28 l 1
 545 28 449 -12 326 -12 c 0
EndSplineSet
Fore
SplineSet
338 697 m 1
 338 697 256 766 183 820 c 1
 206 860 l 1
 222 864 l 1
 268 840 320 817 348 805 c 1
 377 817 427 840 474 864 c 1
 490 860 l 1
 513 820 l 1
 440 766 358 697 358 697 c 1
 338 697 l 1
326 -12 m 0
 142 -12 29 108 29 303 c 0
 29 516 166 654 379 654 c 0
 463 654 569 629 569 629 c 1
 575 616 l 1
 575 616 555 534 548 428 c 1
 453 422 l 1
 453 422 455 448 455 474 c 0
 455 533 420 559 343 559 c 0
 238 559 181 484 181 338 c 0
 181 174 244 79 350 79 c 0
 423 79 463 121 479 219 c 1
 575 225 l 1
 575 225 558 123 555 40 c 1
 545 28 l 1
 545 28 449 -12 326 -12 c 0
EndSplineSet
Substitution2: "'c2sc' Capitals to Small Capitals lookup 35 subtable" ccaron.sc
Substitution2: "'aalt' Access All Alternates lookup 0 subtable" ccaron.sc
Position2: "'cpsp' Capital Spacing lookup 0 subtable" dx=10 dy=0 dh=20 dv=0
EndChar

StartChar: Ccedilla
Encoding: 199 199 33
Width: 616
GlyphClass: 2
Flags: MW
HStem: -237 49<311 338 311 340> -11 90<302 302 354 354> 559 95<290.5 381.5>
VStem: 29 152<256 409.5> 265 9<-132 -132> 367 72<-166.5 -145.5>
AnchorPoint: "Anchor-17" 0 0 basechar 0
AnchorPoint: "Anchor-16" 0 0 basechar 0
AnchorPoint: "Anchor-15" 335 647 basechar 0
AnchorPoint: "Anchor-14" 0 0 basechar 0
AnchorPoint: "Anchor-13" 334 -237 basechar 0
LayerCount: 2
Back
SplineSet
350 79 m 0
 423 79 463 121 479 219 c 1
 575 225 l 1
 575 225 558 123 555 40 c 1
 545 28 l 1
 545 28 463 -6 354 -11 c 1
 344 -45 l 1
 381 -66 439 -100 439 -141 c 0
 439 -194 374 -237 306 -237 c 0
 272 -237 229 -221 229 -194 c 0
 229 -179 251 -149 265 -132 c 1
 274 -132 l 1
 275 -169 296 -188 326 -188 c 0
 350 -188 367 -176 367 -157 c 0
 367 -134 321 -107 281 -86 c 1
 302 -11 l 1
 132 -1 29 117 29 303 c 0
 29 516 166 654 379 654 c 0
 463 654 569 629 569 629 c 1
 575 616 l 1
 575 616 555 534 548 428 c 1
 453 422 l 1
 453 422 455 448 455 474 c 0
 455 533 420 559 343 559 c 0
 238 559 181 484 181 338 c 0
 181 174 244 79 350 79 c 0
EndSplineSet
Fore
SplineSet
350 79 m 0
 423 79 463 121 479 219 c 1
 575 225 l 1
 575 225 558 123 555 40 c 1
 545 28 l 1
 545 28 463 -6 354 -11 c 1
 344 -45 l 1
 381 -66 439 -100 439 -141 c 0
 439 -194 374 -237 306 -237 c 0
 272 -237 229 -221 229 -194 c 0
 229 -179 251 -149 265 -132 c 1
 274 -132 l 1
 275 -169 296 -188 326 -188 c 0
 350 -188 367 -176 367 -157 c 0
 367 -134 321 -107 281 -86 c 1
 302 -11 l 1
 132 -1 29 117 29 303 c 0
 29 516 166 654 379 654 c 0
 463 654 569 629 569 629 c 1
 575 616 l 1
 575 616 555 534 548 428 c 1
 453 422 l 1
 453 422 455 448 455 474 c 0
 455 533 420 559 343 559 c 0
 238 559 181 484 181 338 c 0
 181 174 244 79 350 79 c 0
EndSplineSet
Substitution2: "'c2sc' Capitals to Small Capitals lookup 35 subtable" ccedilla.sc
Substitution2: "'aalt' Access All Alternates lookup 0 subtable" ccedilla.sc
Position2: "'cpsp' Capital Spacing lookup 0 subtable" dx=10 dy=0 dh=20 dv=0
EndChar

StartChar: uni1E08
Encoding: 7688 7688 34
Width: 616
GlyphClass: 2
Flags: MW
HStem: -237 49<302 328.5 302 330.5> -11 90<293 386.5> 559 95<290.5 381.5>
VStem: 29 152<256 409.5> 256 9<-132 -132> 358 72<-166.5 -145.5>
AnchorPoint: "Anchor-17" 0 0 basechar 0
AnchorPoint: "Anchor-16" 0 0 basechar 0
AnchorPoint: "Anchor-15" 335 797 basechar 0
AnchorPoint: "Anchor-14" 0 0 basechar 0
AnchorPoint: "Anchor-13" 325 -237 basechar 0
LayerCount: 2
Back
SplineSet
242 703 m 1
 229 711 l 1
 216 756 l 1
 323 804 438 861 438 861 c 1
 450 856 l 1
 475 781 l 1
 470 768 l 1
 470 768 356 739 242 703 c 1
350 79 m 0
 423 79 463 121 479 219 c 1
 575 225 l 1
 575 225 558 123 555 40 c 1
 545 28 l 1
 545 28 458 -8 344 -12 c 1
 334 -45 l 1
 371 -66 430 -100 430 -141 c 0
 430 -194 364 -237 297 -237 c 0
 263 -237 220 -221 220 -194 c 0
 220 -179 241 -149 256 -132 c 1
 265 -132 l 1
 266 -169 287 -188 317 -188 c 0
 340 -188 358 -176 358 -157 c 0
 358 -134 312 -107 272 -86 c 1
 293 -11 l 1
 129 3 29 120 29 303 c 0
 29 516 166 654 379 654 c 0
 463 654 569 629 569 629 c 1
 575 616 l 1
 575 616 555 534 548 428 c 1
 453 422 l 1
 453 422 455 448 455 474 c 0
 455 533 420 559 343 559 c 0
 238 559 181 484 181 338 c 0
 181 174 244 79 350 79 c 0
EndSplineSet
Fore
SplineSet
242 703 m 1
 229 711 l 1
 216 756 l 1
 323 804 438 861 438 861 c 1
 450 856 l 1
 475 781 l 1
 470 768 l 1
 470 768 356 739 242 703 c 1
350 79 m 0
 423 79 463 121 479 219 c 1
 575 225 l 1
 575 225 558 123 555 40 c 1
 545 28 l 1
 545 28 458 -8 344 -12 c 1
 334 -45 l 1
 371 -66 430 -100 430 -141 c 0
 430 -194 364 -237 297 -237 c 0
 263 -237 220 -221 220 -194 c 0
 220 -179 241 -149 256 -132 c 1
 265 -132 l 1
 266 -169 287 -188 317 -188 c 0
 340 -188 358 -176 358 -157 c 0
 358 -134 312 -107 272 -86 c 1
 293 -11 l 1
 129 3 29 120 29 303 c 0
 29 516 166 654 379 654 c 0
 463 654 569 629 569 629 c 1
 575 616 l 1
 575 616 555 534 548 428 c 1
 453 422 l 1
 453 422 455 448 455 474 c 0
 455 533 420 559 343 559 c 0
 238 559 181 484 181 338 c 0
 181 174 244 79 350 79 c 0
EndSplineSet
Substitution2: "'c2sc' Capitals to Small Capitals lookup 35 subtable" uni1E09.sc
Substitution2: "'aalt' Access All Alternates lookup 0 subtable" uni1E09.sc
Position2: "'cpsp' Capital Spacing lookup 0 subtable" dx=10 dy=0 dh=20 dv=0
EndChar

StartChar: Ccircumflex
Encoding: 264 264 35
Width: 616
GlyphClass: 2
Flags: MW
HStem: -12 91<297 386.5 297 387.5> 559 95<290.5 381.5>
VStem: 29 152<256 409.5>
AnchorPoint: "Anchor-17" 0 0 basechar 0
AnchorPoint: "Anchor-16" 0 0 basechar 0
AnchorPoint: "Anchor-15" 341 903 basechar 0
AnchorPoint: "Anchor-14" 0 0 basechar 0
AnchorPoint: "Anchor-13" 314 0 basechar 0
LayerCount: 2
Back
SplineSet
224 705 m 1
 208 708 l 1
 180 748 l 1
 251 817 331 903 331 903 c 1
 351 903 l 1
 351 903 430 817 501 748 c 1
 473 708 l 1
 458 705 l 1
 415 739 367 771 341 789 c 1
 313 771 267 740 224 705 c 1
326 -12 m 0
 142 -12 29 108 29 303 c 0
 29 516 166 654 379 654 c 0
 463 654 569 629 569 629 c 1
 575 616 l 1
 575 616 555 534 548 428 c 1
 453 422 l 1
 453 422 455 448 455 474 c 0
 455 533 420 559 343 559 c 0
 238 559 181 484 181 338 c 0
 181 174 244 79 350 79 c 0
 423 79 463 121 479 219 c 1
 575 225 l 1
 575 225 558 123 555 40 c 1
 545 28 l 1
 545 28 449 -12 326 -12 c 0
EndSplineSet
Fore
SplineSet
224 705 m 1
 208 708 l 1
 180 748 l 1
 251 817 331 903 331 903 c 1
 351 903 l 1
 351 903 430 817 501 748 c 1
 473 708 l 1
 458 705 l 1
 415 739 367 771 341 789 c 1
 313 771 267 740 224 705 c 1
326 -12 m 0
 142 -12 29 108 29 303 c 0
 29 516 166 654 379 654 c 0
 463 654 569 629 569 629 c 1
 575 616 l 1
 575 616 555 534 548 428 c 1
 453 422 l 1
 453 422 455 448 455 474 c 0
 455 533 420 559 343 559 c 0
 238 559 181 484 181 338 c 0
 181 174 244 79 350 79 c 0
 423 79 463 121 479 219 c 1
 575 225 l 1
 575 225 558 123 555 40 c 1
 545 28 l 1
 545 28 449 -12 326 -12 c 0
EndSplineSet
Substitution2: "'c2sc' Capitals to Small Capitals lookup 35 subtable" ccircumflex.sc
Substitution2: "'aalt' Access All Alternates lookup 0 subtable" ccircumflex.sc
Position2: "'cpsp' Capital Spacing lookup 0 subtable" dx=10 dy=0 dh=20 dv=0
EndChar

StartChar: Cdotaccent
Encoding: 266 266 36
Width: 616
GlyphClass: 2
Flags: MW
HStem: -12 91<297 386.5 297 387.5> 559 95<290.5 381.5> 696 151<330.5 368.5>
VStem: 29 152<256 409.5> 276 147<752.5 790.5>
AnchorPoint: "Anchor-17" 0 0 basechar 0
AnchorPoint: "Anchor-16" 0 0 basechar 0
AnchorPoint: "Anchor-15" 350 847 basechar 0
AnchorPoint: "Anchor-14" 0 0 basechar 0
AnchorPoint: "Anchor-13" 314 0 basechar 0
LayerCount: 2
Back
SplineSet
345 696 m 0
 299 696 276 726 276 767 c 0
 276 814 307 847 354 847 c 0
 398 847 423 817 423 776 c 0
 423 729 392 696 345 696 c 0
326 -12 m 0
 142 -12 29 108 29 303 c 0
 29 516 166 654 379 654 c 0
 463 654 569 629 569 629 c 1
 575 616 l 1
 575 616 555 534 548 428 c 1
 453 422 l 1
 453 422 455 448 455 474 c 0
 455 533 420 559 343 559 c 0
 238 559 181 484 181 338 c 0
 181 174 244 79 350 79 c 0
 423 79 463 121 479 219 c 1
 575 225 l 1
 575 225 558 123 555 40 c 1
 545 28 l 1
 545 28 449 -12 326 -12 c 0
EndSplineSet
Fore
SplineSet
345 696 m 0
 299 696 276 726 276 767 c 0
 276 814 307 847 354 847 c 0
 398 847 423 817 423 776 c 0
 423 729 392 696 345 696 c 0
326 -12 m 0
 142 -12 29 108 29 303 c 0
 29 516 166 654 379 654 c 0
 463 654 569 629 569 629 c 1
 575 616 l 1
 575 616 555 534 548 428 c 1
 453 422 l 1
 453 422 455 448 455 474 c 0
 455 533 420 559 343 559 c 0
 238 559 181 484 181 338 c 0
 181 174 244 79 350 79 c 0
 423 79 463 121 479 219 c 1
 575 225 l 1
 575 225 558 123 555 40 c 1
 545 28 l 1
 545 28 449 -12 326 -12 c 0
EndSplineSet
Substitution2: "'c2sc' Capitals to Small Capitals lookup 35 subtable" cdotaccent.sc
Substitution2: "'aalt' Access All Alternates lookup 0 subtable" cdotaccent.sc
Position2: "'cpsp' Capital Spacing lookup 0 subtable" dx=10 dy=0 dh=20 dv=0
EndChar

StartChar: D
Encoding: 68 68 37
Width: 694
GlyphClass: 2
Flags: MW
HStem: -12 84<318 389.5 296.5 419.5> 562 84<341 362.5> 577 65<81 206>
VStem: 119 126<142 188 116 523> 512 153<241.5 401>
AnchorPoint: "Anchor-17" 0 0 basechar 0
AnchorPoint: "Anchor-16" 341 324 basechar 0
AnchorPoint: "Anchor-15" 347 647 basechar 0
AnchorPoint: "Anchor-14" 0 0 basechar 0
AnchorPoint: "Anchor-13" 329 0 basechar 0
LayerCount: 2
Back
SplineSet
318 -12 m 1xd8
 318 -12 224 0 167 0 c 0
 114 0 40 -10 40 -10 c 1
 46 57 l 1
 103 67 119 86 119 142 c 2
 119 523 l 2
 119 566 113 577 88 577 c 0
 74 577 54 575 54 575 c 1
 49 584 l 1
 57 645 l 1
 57 645 144 642 183 642 c 0xb8
 229 642 341 646 341 646 c 1
 543 646 665 534 665 347 c 0
 665 136 521 -12 318 -12 c 1xd8
287 562 m 0
 265 562 259 557 258 538 c 0
 250 366 245 231 245 145 c 0
 245 87 262 72 331 72 c 0
 448 72 512 155 512 316 c 0
 512 486 438 562 287 562 c 0
EndSplineSet
Fore
SplineSet
318 -12 m 1xd8
 318 -12 224 0 167 0 c 0
 114 0 40 -10 40 -10 c 1
 46 57 l 1
 103 67 119 86 119 142 c 2
 119 523 l 2
 119 566 113 577 88 577 c 0
 74 577 54 575 54 575 c 1
 49 584 l 1
 57 645 l 1
 57 645 144 642 183 642 c 0xb8
 229 642 341 646 341 646 c 1
 543 646 665 534 665 347 c 0
 665 136 521 -12 318 -12 c 1xd8
287 562 m 0
 265 562 259 557 258 538 c 0
 250 366 245 231 245 145 c 0
 245 87 262 72 331 72 c 0
 448 72 512 155 512 316 c 0
 512 486 438 562 287 562 c 0
EndSplineSet
Substitution2: "Single Substitution lookup 54 subtable" D.ss01
Substitution2: "'ss01' Style Set 1 lookup 44 subtable" D.ss01
Substitution2: "'c2sc' Capitals to Small Capitals lookup 35 subtable" d.sc
AlternateSubs2: "'aalt' Access All Alternates lookup 1 subtable" d.sc D.ss01
Position2: "'cpsp' Capital Spacing lookup 0 subtable" dx=10 dy=0 dh=20 dv=0
EndChar

StartChar: uni01C4
Encoding: 452 452 38
Width: 1273
GlyphClass: 2
Flags: MW
HStem: -12 84<318 389.5 296.5 419.5> 0 76.5 562 84<341 362.5> 566 77 577 65<81 206> 599 44 634 20G<765 765>
VStem: 119 126<142 188 116 523> 512 153<241.5 401>
AnchorPoint: "Anchor-17" 0 0 basechar 0
AnchorPoint: "Anchor-16" 341 324 basechar 0
AnchorPoint: "Anchor-15" 1004 799 basechar 0
AnchorPoint: "Anchor-14" 0 0 basechar 0
AnchorPoint: "Anchor-13" 1007 0 basechar 0
LayerCount: 2
Back
SplineSet
993 697 m 1x5180
 993 697 911 766 838 820 c 1
 862 860 l 1
 877 864 l 1
 923 840 975 817 1004 805 c 1
 1032 817 1082 840 1130 864 c 1
 1145 860 l 1
 1169 820 l 1
 1095 766 1013 697 1013 697 c 1
 993 697 l 1x5180
738 -5 m 1
 714 39 l 1
 1066 570 l 1
 936 562 l 2x5180
 851 553 828 529 821 435 c 1
 738 429 l 1
 738 429 752 552 755 644 c 1
 765 654 l 1x4380
 943 643 l 1
 1234 639 l 1x5180
 1251 599 l 1x4580
 1080 371 937 147 889 71 c 1
 1048 82 l 2
 1114 88 1149 132 1165 237 c 1
 1247 244 l 1
 1247 244 1227 114 1223 16 c 1
 1206 -3 l 1
 813 3 l 1
 738 -5 l 1
318 -12 m 1xa180
 318 -12 224 0 167 0 c 0
 114 0 40 -10 40 -10 c 1
 46 57 l 1
 103 67 119 86 119 142 c 2
 119 523 l 2
 119 566 113 577 88 577 c 0
 74 577 54 575 54 575 c 1
 49 584 l 1
 57 645 l 1
 57 645 144 642 183 642 c 0x8980
 229 642 341 646 341 646 c 1
 543 646 665 534 665 347 c 0
 665 136 521 -12 318 -12 c 1xa180
287 562 m 0
 265 562 259 557 258 538 c 0
 250 366 245 231 245 145 c 0
 245 87 262 72 331 72 c 0
 448 72 512 155 512 316 c 0
 512 486 438 562 287 562 c 0
EndSplineSet
Fore
SplineSet
993 697 m 1x5180
 993 697 911 766 838 820 c 1
 862 860 l 1
 877 864 l 1
 923 840 975 817 1004 805 c 1
 1032 817 1082 840 1130 864 c 1
 1145 860 l 1
 1169 820 l 1
 1095 766 1013 697 1013 697 c 1
 993 697 l 1x5180
738 -5 m 1
 714 39 l 1
 1066 570 l 1
 936 562 l 2x5180
 851 553 828 529 821 435 c 1
 738 429 l 1
 738 429 752 552 755 644 c 1
 765 654 l 1x4380
 943 643 l 1
 1234 639 l 1x5180
 1251 599 l 1x4580
 1080 371 937 147 889 71 c 1
 1048 82 l 2
 1114 88 1149 132 1165 237 c 1
 1247 244 l 1
 1247 244 1227 114 1223 16 c 1
 1206 -3 l 1
 813 3 l 1
 738 -5 l 1
318 -12 m 1xa180
 318 -12 224 0 167 0 c 0
 114 0 40 -10 40 -10 c 1
 46 57 l 1
 103 67 119 86 119 142 c 2
 119 523 l 2
 119 566 113 577 88 577 c 0
 74 577 54 575 54 575 c 1
 49 584 l 1
 57 645 l 1
 57 645 144 642 183 642 c 0x8980
 229 642 341 646 341 646 c 1
 543 646 665 534 665 347 c 0
 665 136 521 -12 318 -12 c 1xa180
287 562 m 0
 265 562 259 557 258 538 c 0
 250 366 245 231 245 145 c 0
 245 87 262 72 331 72 c 0
 448 72 512 155 512 316 c 0
 512 486 438 562 287 562 c 0
EndSplineSet
Substitution2: "'c2sc' Capitals to Small Capitals lookup 35 subtable" uni01C6.sc
Substitution2: "'aalt' Access All Alternates lookup 0 subtable" uni01C6.sc
Position2: "'cpsp' Capital Spacing lookup 0 subtable" dx=10 dy=0 dh=20 dv=0
EndChar

StartChar: Eth
Encoding: 208 208 39
Width: 709
GlyphClass: 1
Flags: MW
HStem: -12 84<332 404 311 433.5> 287 65<18 133 18 133 16 133> 345 8 562 84<355 376.5> 575 9<63 69> 577 65<95 217.5>
VStem: 133 126<116 287> 526 153<241.5 401>
LayerCount: 2
Back
SplineSet
332 -12 m 1xd3
 332 -12 238 0 181 0 c 0
 129 0 54 -10 54 -10 c 1
 61 57 l 1
 122 68 133 84 133 162 c 2
 133 287 l 1
 16 287 l 1
 8 294 l 1
 18 352 l 1
 133 352 l 1
 133 523 l 2
 133 566 127 577 102 577 c 0xc7
 88 577 69 575 69 575 c 1
 63 584 l 1xcb
 71 645 l 1
 71 645 158 642 197 642 c 0xc7
 238 642 355 646 355 646 c 1
 556 646 679 532 679 347 c 0
 679 136 535 -12 332 -12 c 1xd3
264 352 m 1
 391 354 l 1
 397 345 l 1xb3
 391 287 l 1
 262 287 l 1
 259 145 l 2
 259 87 277 72 345 72 c 0
 463 72 526 155 526 316 c 0
 526 486 452 562 301 562 c 0
 279 562 273 557 272 538 c 2
 264 352 l 1
EndSplineSet
Fore
SplineSet
332 -12 m 1xd3
 332 -12 238 0 181 0 c 0
 129 0 54 -10 54 -10 c 1
 61 57 l 1
 122 68 133 84 133 162 c 2
 133 287 l 1
 16 287 l 1
 8 294 l 1
 18 352 l 1
 133 352 l 1
 133 523 l 2
 133 566 127 577 102 577 c 0xc7
 88 577 69 575 69 575 c 1
 63 584 l 1xcb
 71 645 l 1
 71 645 158 642 197 642 c 0xc7
 238 642 355 646 355 646 c 1
 556 646 679 532 679 347 c 0
 679 136 535 -12 332 -12 c 1xd3
264 352 m 1
 391 354 l 1
 397 345 l 1xb3
 391 287 l 1
 262 287 l 1
 259 145 l 2
 259 87 277 72 345 72 c 0
 463 72 526 155 526 316 c 0
 526 486 452 562 301 562 c 0
 279 562 273 557 272 538 c 2
 264 352 l 1
EndSplineSet
Substitution2: "'c2sc' Capitals to Small Capitals lookup 35 subtable" eth.sc
Substitution2: "'aalt' Access All Alternates lookup 0 subtable" eth.sc
Position2: "'cpsp' Capital Spacing lookup 0 subtable" dx=10 dy=0 dh=20 dv=0
EndChar

StartChar: Dcaron
Encoding: 270 270 40
Width: 694
GlyphClass: 2
Flags: MW
HStem: -12 84<318 389.5 296.5 419.5> 562 84<341 362.5> 577 65<81 206>
VStem: 119 126<142 188 116 523> 512 153<241.5 401>
AnchorPoint: "Anchor-17" 0 0 basechar 0
AnchorPoint: "Anchor-16" 341 324 basechar 0
AnchorPoint: "Anchor-15" 338 799 basechar 0
AnchorPoint: "Anchor-14" 0 0 basechar 0
AnchorPoint: "Anchor-13" 329 0 basechar 0
LayerCount: 2
Back
SplineSet
328 697 m 1xd8
 328 697 246 766 173 820 c 1
 196 860 l 1
 212 864 l 1
 258 840 310 817 338 805 c 1
 367 817 417 840 464 864 c 1
 480 860 l 1
 504 820 l 1
 430 766 348 697 348 697 c 1
 328 697 l 1xd8
318 -12 m 1
 318 -12 224 0 167 0 c 0
 114 0 40 -10 40 -10 c 1
 46 57 l 1
 103 67 119 86 119 142 c 2
 119 523 l 2
 119 566 113 577 88 577 c 0
 74 577 54 575 54 575 c 1
 49 584 l 1
 57 645 l 1
 57 645 144 642 183 642 c 0xb8
 229 642 341 646 341 646 c 1
 543 646 665 534 665 347 c 0
 665 136 521 -12 318 -12 c 1
287 562 m 0
 265 562 259 557 258 538 c 0
 250 366 245 231 245 145 c 0
 245 87 262 72 331 72 c 0
 448 72 512 155 512 316 c 0
 512 486 438 562 287 562 c 0
EndSplineSet
Fore
SplineSet
328 697 m 1xd8
 328 697 246 766 173 820 c 1
 196 860 l 1
 212 864 l 1
 258 840 310 817 338 805 c 1
 367 817 417 840 464 864 c 1
 480 860 l 1
 504 820 l 1
 430 766 348 697 348 697 c 1
 328 697 l 1xd8
318 -12 m 1
 318 -12 224 0 167 0 c 0
 114 0 40 -10 40 -10 c 1
 46 57 l 1
 103 67 119 86 119 142 c 2
 119 523 l 2
 119 566 113 577 88 577 c 0
 74 577 54 575 54 575 c 1
 49 584 l 1
 57 645 l 1
 57 645 144 642 183 642 c 0xb8
 229 642 341 646 341 646 c 1
 543 646 665 534 665 347 c 0
 665 136 521 -12 318 -12 c 1
287 562 m 0
 265 562 259 557 258 538 c 0
 250 366 245 231 245 145 c 0
 245 87 262 72 331 72 c 0
 448 72 512 155 512 316 c 0
 512 486 438 562 287 562 c 0
EndSplineSet
Substitution2: "'c2sc' Capitals to Small Capitals lookup 35 subtable" dcaron.sc
Substitution2: "'aalt' Access All Alternates lookup 0 subtable" dcaron.sc
Position2: "'cpsp' Capital Spacing lookup 0 subtable" dx=10 dy=0 dh=20 dv=0
EndChar

StartChar: Dcroat
Encoding: 272 272 41
Width: 709
GlyphClass: 1
Flags: MW
HStem: -12 84<332 404 311 433.5> 287 65<18 133 18 133 16 133> 345 8 562 84<355 376.5> 575 9<63 69> 577 65<95 217.5>
VStem: 133 126<116 287> 526 153<241.5 401>
LayerCount: 2
Back
SplineSet
332 -12 m 1xd3
 332 -12 238 0 181 0 c 0
 129 0 54 -10 54 -10 c 1
 61 57 l 1
 122 68 133 84 133 162 c 2
 133 287 l 1
 16 287 l 1
 8 294 l 1
 18 352 l 1
 133 352 l 1
 133 523 l 2
 133 566 127 577 102 577 c 0xc7
 88 577 69 575 69 575 c 1
 63 584 l 1xcb
 71 645 l 1
 71 645 158 642 197 642 c 0xc7
 238 642 355 646 355 646 c 1
 556 646 679 532 679 347 c 0
 679 136 535 -12 332 -12 c 1xd3
264 352 m 1
 391 354 l 1
 397 345 l 1xb3
 391 287 l 1
 262 287 l 1
 259 145 l 2
 259 87 277 72 345 72 c 0
 463 72 526 155 526 316 c 0
 526 486 452 562 301 562 c 0
 279 562 273 557 272 538 c 2
 264 352 l 1
EndSplineSet
Fore
SplineSet
332 -12 m 1xd3
 332 -12 238 0 181 0 c 0
 129 0 54 -10 54 -10 c 1
 61 57 l 1
 122 68 133 84 133 162 c 2
 133 287 l 1
 16 287 l 1
 8 294 l 1
 18 352 l 1
 133 352 l 1
 133 523 l 2
 133 566 127 577 102 577 c 0xc7
 88 577 69 575 69 575 c 1
 63 584 l 1xcb
 71 645 l 1
 71 645 158 642 197 642 c 0xc7
 238 642 355 646 355 646 c 1
 556 646 679 532 679 347 c 0
 679 136 535 -12 332 -12 c 1xd3
264 352 m 1
 391 354 l 1
 397 345 l 1xb3
 391 287 l 1
 262 287 l 1
 259 145 l 2
 259 87 277 72 345 72 c 0
 463 72 526 155 526 316 c 0
 526 486 452 562 301 562 c 0
 279 562 273 557 272 538 c 2
 264 352 l 1
EndSplineSet
Substitution2: "'c2sc' Capitals to Small Capitals lookup 35 subtable" dcroat.sc
Substitution2: "'aalt' Access All Alternates lookup 0 subtable" dcroat.sc
Position2: "'cpsp' Capital Spacing lookup 0 subtable" dx=10 dy=0 dh=20 dv=0
EndChar

StartChar: uni1E0C
Encoding: 7692 7692 42
Width: 694
GlyphClass: 2
Flags: MW
HStem: -210 155<304.5 347> -12 84<318 389.5 296.5 419.5> 562 84<341 362.5> 577 65<81 206>
VStem: 119 126<142 188 116 523> 249 154<-153 -112> 512 153<241.5 401>
AnchorPoint: "Anchor-17" 0 0 basechar 0
AnchorPoint: "Anchor-16" 341 324 basechar 0
AnchorPoint: "Anchor-15" 347 647 basechar 0
AnchorPoint: "Anchor-14" 0 0 basechar 0
AnchorPoint: "Anchor-13" 326 -210 basechar 0
LayerCount: 2
Back
SplineSet
318 -12 m 1x6a
 318 -12 224 0 167 0 c 0
 114 0 40 -10 40 -10 c 1
 46 57 l 1
 103 67 119 86 119 142 c 2
 119 523 l 2
 119 566 113 577 88 577 c 0
 74 577 54 575 54 575 c 1
 49 584 l 1
 57 645 l 1
 57 645 144 642 183 642 c 0x5a
 229 642 341 646 341 646 c 1
 543 646 665 534 665 347 c 0
 665 136 521 -12 318 -12 c 1x6a
287 562 m 0
 265 562 259 557 258 538 c 0
 250 366 245 231 245 145 c 0
 245 87 262 72 331 72 c 0
 448 72 512 155 512 316 c 0
 512 486 438 562 287 562 c 0
322 -210 m 0xe6
 274 -210 249 -179 249 -136 c 0
 249 -88 280 -55 329 -55 c 0
 376 -55 403 -85 403 -129 c 0
 403 -177 372 -210 322 -210 c 0xe6
EndSplineSet
Fore
SplineSet
318 -12 m 1x6a
 318 -12 224 0 167 0 c 0
 114 0 40 -10 40 -10 c 1
 46 57 l 1
 103 67 119 86 119 142 c 2
 119 523 l 2
 119 566 113 577 88 577 c 0
 74 577 54 575 54 575 c 1
 49 584 l 1
 57 645 l 1
 57 645 144 642 183 642 c 0x5a
 229 642 341 646 341 646 c 1
 543 646 665 534 665 347 c 0
 665 136 521 -12 318 -12 c 1x6a
287 562 m 0
 265 562 259 557 258 538 c 0
 250 366 245 231 245 145 c 0
 245 87 262 72 331 72 c 0
 448 72 512 155 512 316 c 0
 512 486 438 562 287 562 c 0
322 -210 m 0xe6
 274 -210 249 -179 249 -136 c 0
 249 -88 280 -55 329 -55 c 0
 376 -55 403 -85 403 -129 c 0
 403 -177 372 -210 322 -210 c 0xe6
EndSplineSet
Substitution2: "'c2sc' Capitals to Small Capitals lookup 35 subtable" uni1E0D.sc
Substitution2: "'aalt' Access All Alternates lookup 0 subtable" uni1E0D.sc
Position2: "'cpsp' Capital Spacing lookup 0 subtable" dx=10 dy=0 dh=20 dv=0
EndChar

StartChar: uni1E0E
Encoding: 7694 7694 43
Width: 694
GlyphClass: 2
Flags: MW
HStem: -177 84<315.5 327> -12 84<318 389.5 296.5 419.5> 562 84<341 362.5> 577 65<81 206>
VStem: 119 126<142 188 116 523> 512 153<241.5 401>
AnchorPoint: "Anchor-17" 0 0 basechar 0
AnchorPoint: "Anchor-16" 341 324 basechar 0
AnchorPoint: "Anchor-15" 347 647 basechar 0
AnchorPoint: "Anchor-14" 0 0 basechar 0
AnchorPoint: "Anchor-13" 329 -167 basechar 0
LayerCount: 2
Back
SplineSet
318 -12 m 1xec
 318 -12 224 0 167 0 c 0
 114 0 40 -10 40 -10 c 1
 46 57 l 1
 103 67 119 86 119 142 c 2
 119 523 l 2
 119 566 113 577 88 577 c 0
 74 577 54 575 54 575 c 1
 49 584 l 1
 57 645 l 1
 57 645 144 642 183 642 c 0xdc
 229 642 341 646 341 646 c 1
 543 646 665 534 665 347 c 0
 665 136 521 -12 318 -12 c 1xec
287 562 m 0
 265 562 259 557 258 538 c 0
 250 366 245 231 245 145 c 0
 245 87 262 72 331 72 c 0
 448 72 512 155 512 316 c 0
 512 486 438 562 287 562 c 0
188 -178 m 1
 177 -166 l 1
 191 -92 l 1
 191 -92 286 -93 345 -93 c 0
 395 -93 472 -87 472 -87 c 1
 480 -101 l 1
 468 -176 l 1
 327 -177 l 2
 268 -177 188 -178 188 -178 c 1
EndSplineSet
Fore
SplineSet
318 -12 m 1xec
 318 -12 224 0 167 0 c 0
 114 0 40 -10 40 -10 c 1
 46 57 l 1
 103 67 119 86 119 142 c 2
 119 523 l 2
 119 566 113 577 88 577 c 0
 74 577 54 575 54 575 c 1
 49 584 l 1
 57 645 l 1
 57 645 144 642 183 642 c 0xdc
 229 642 341 646 341 646 c 1
 543 646 665 534 665 347 c 0
 665 136 521 -12 318 -12 c 1xec
287 562 m 0
 265 562 259 557 258 538 c 0
 250 366 245 231 245 145 c 0
 245 87 262 72 331 72 c 0
 448 72 512 155 512 316 c 0
 512 486 438 562 287 562 c 0
188 -178 m 1
 177 -166 l 1
 191 -92 l 1
 191 -92 286 -93 345 -93 c 0
 395 -93 472 -87 472 -87 c 1
 480 -101 l 1
 468 -176 l 1
 327 -177 l 2
 268 -177 188 -178 188 -178 c 1
EndSplineSet
Substitution2: "'c2sc' Capitals to Small Capitals lookup 35 subtable" uni1E0F.sc
Substitution2: "'aalt' Access All Alternates lookup 0 subtable" uni1E0F.sc
Position2: "'cpsp' Capital Spacing lookup 0 subtable" dx=10 dy=0 dh=20 dv=0
EndChar

StartChar: uni01C5
Encoding: 453 453 44
Width: 1152
GlyphClass: 2
Flags: MW
HStem: -12 84<318 389.5 296.5 419.5> -1.5 68 395 67 430 32 450 20G<750 750> 562 84<341 362.5> 577 65<81 206>
VStem: 119 126<142 188 116 523> 512 153<241.5 401> 1086 15
AnchorPoint: "Anchor-17" 0 0 basechar 0
AnchorPoint: "Anchor-16" 341 324 basechar 0
AnchorPoint: "Anchor-15" 935 724 basechar 0
AnchorPoint: "Anchor-14" 0 0 basechar 0
AnchorPoint: "Anchor-13" 904 0 basechar 0
LayerCount: 2
Back
SplineSet
925 521 m 1x6580
 925 521 843 609 770 679 c 1
 799 720 l 1
 814 724 l 1
 860 687 907 655 935 637 c 1
 962 655 1010 688 1055 724 c 1
 1070 720 l 1
 1100 679 l 1
 1026 609 945 521 945 521 c 1
 925 521 l 1x6580
318 -12 m 1xa580
 318 -12 224 0 167 0 c 0
 114 0 40 -10 40 -10 c 1
 46 57 l 1
 103 67 119 86 119 142 c 2
 119 523 l 2
 119 566 113 577 88 577 c 0
 74 577 54 575 54 575 c 1
 49 584 l 1
 57 645 l 1
 57 645 144 642 183 642 c 0xa380
 229 642 341 646 341 646 c 1
 543 646 665 534 665 347 c 0
 665 136 521 -12 318 -12 c 1xa580
287 562 m 0
 265 562 259 557 258 538 c 0
 250 366 245 231 245 145 c 0
 245 87 262 72 331 72 c 0
 448 72 512 155 512 316 c 0
 512 486 438 562 287 562 c 0
715 28 m 1x55c0
 968 398 l 1
 876 392 l 2
 806 386 788 369 783 304 c 1
 733 298 l 1x6580
 733 298 742 398 744 464 c 1
 750 470 l 1x4d80
 880 462 l 1
 1111 459 l 1x65c0
 1124 430 l 1
 1003 269 899 117 863 62 c 1
 971 71 l 2
 1028 77 1054 110 1066 189 c 1
 1118 194 l 1
 1118 194 1101 85 1101 11 c 1
 1086 -5 l 1
 787 2 l 1
 732 -4 l 1
 715 28 l 1x55c0
EndSplineSet
Fore
SplineSet
925 521 m 1x6580
 925 521 843 609 770 679 c 1
 799 720 l 1
 814 724 l 1
 860 687 907 655 935 637 c 1
 962 655 1010 688 1055 724 c 1
 1070 720 l 1
 1100 679 l 1
 1026 609 945 521 945 521 c 1
 925 521 l 1x6580
318 -12 m 1xa580
 318 -12 224 0 167 0 c 0
 114 0 40 -10 40 -10 c 1
 46 57 l 1
 103 67 119 86 119 142 c 2
 119 523 l 2
 119 566 113 577 88 577 c 0
 74 577 54 575 54 575 c 1
 49 584 l 1
 57 645 l 1
 57 645 144 642 183 642 c 0xa380
 229 642 341 646 341 646 c 1
 543 646 665 534 665 347 c 0
 665 136 521 -12 318 -12 c 1xa580
287 562 m 0
 265 562 259 557 258 538 c 0
 250 366 245 231 245 145 c 0
 245 87 262 72 331 72 c 0
 448 72 512 155 512 316 c 0
 512 486 438 562 287 562 c 0
715 28 m 1x55c0
 968 398 l 1
 876 392 l 2
 806 386 788 369 783 304 c 1
 733 298 l 1x6580
 733 298 742 398 744 464 c 1
 750 470 l 1x4d80
 880 462 l 1
 1111 459 l 1x65c0
 1124 430 l 1
 1003 269 899 117 863 62 c 1
 971 71 l 2
 1028 77 1054 110 1066 189 c 1
 1118 194 l 1
 1118 194 1101 85 1101 11 c 1
 1086 -5 l 1
 787 2 l 1
 732 -4 l 1
 715 28 l 1x55c0
EndSplineSet
Substitution2: "'c2sc' Capitals to Small Capitals lookup 35 subtable" uni01C6.sc
Substitution2: "'aalt' Access All Alternates lookup 0 subtable" uni01C6.sc
Position2: "'cpsp' Capital Spacing lookup 0 subtable" dx=10 dy=0 dh=20 dv=0
EndChar

StartChar: E
Encoding: 69 69 45
Width: 596
GlyphClass: 2
Flags: MW
HStem: 0 77<184.5 373> 286 82<330.5 342.5> 560 82<288 310 211 369> 578 7
VStem: 117 128<113.5 137 110 143> 440 87<462 524>
AnchorPoint: "Anchor-17" 0 0 basechar 0
AnchorPoint: "Anchor-16" 0 0 basechar 0
AnchorPoint: "Anchor-15" 326 647 basechar 0
AnchorPoint: "Anchor-14" 524 40 basechar 0
AnchorPoint: "Anchor-13" 318 0 basechar 0
LayerCount: 2
Back
SplineSet
550 198 m 1xec
 557 189 l 1
 547 140 536 62 530 4 c 1
 520 -7 l 1
 411 -3 280 0 209 0 c 0
 160 0 90 -4 38 -10 c 1
 45 57 l 1
 101 65 117 84 117 143 c 2
 118 524 l 2
 118 568 112 578 86 578 c 0
 78 578 64 577 55 576 c 1
 49 585 l 1
 57 645 l 1xdc
 103 644 184 642 238 642 c 0
 382 642 481 645 542 654 c 1
 550 643 l 1
 539 592 530 516 527 462 c 1
 438 456 l 1
 439 467 440 487 440 496 c 0
 440 552 426 560 312 560 c 0
 264 560 259 557 258 526 c 2
 251 369 l 1
 271 369 316 368 345 368 c 0
 366 368 421 372 461 377 c 1
 469 368 l 1
 455 283 l 1
 420 284 361 286 324 286 c 0
 299 286 270 283 247 280 c 1
 245 137 l 2
 245 83 252 77 310 77 c 0
 436 77 454 90 468 191 c 1
 550 198 l 1xec
EndSplineSet
Fore
SplineSet
550 198 m 1xec
 557 189 l 1
 547 140 536 62 530 4 c 1
 520 -7 l 1
 411 -3 280 0 209 0 c 0
 160 0 90 -4 38 -10 c 1
 45 57 l 1
 101 65 117 84 117 143 c 2
 118 524 l 2
 118 568 112 578 86 578 c 0
 78 578 64 577 55 576 c 1
 49 585 l 1
 57 645 l 1xdc
 103 644 184 642 238 642 c 0
 382 642 481 645 542 654 c 1
 550 643 l 1
 539 592 530 516 527 462 c 1
 438 456 l 1
 439 467 440 487 440 496 c 0
 440 552 426 560 312 560 c 0
 264 560 259 557 258 526 c 2
 251 369 l 1
 271 369 316 368 345 368 c 0
 366 368 421 372 461 377 c 1
 469 368 l 1
 455 283 l 1
 420 284 361 286 324 286 c 0
 299 286 270 283 247 280 c 1
 245 137 l 2
 245 83 252 77 310 77 c 0
 436 77 454 90 468 191 c 1
 550 198 l 1xec
EndSplineSet
Substitution2: "'c2sc' Capitals to Small Capitals lookup 35 subtable" e.sc
Substitution2: "'aalt' Access All Alternates lookup 0 subtable" e.sc
Position2: "'cpsp' Capital Spacing lookup 0 subtable" dx=10 dy=0 dh=20 dv=0
EndChar

StartChar: Eacute
Encoding: 201 201 46
Width: 596
GlyphClass: 2
Flags: MW
HStem: 0 77<184.5 373> 286 82<330.5 342.5> 560 82<288 310 211 369> 578 7
VStem: 117 128<113.5 137 110 143> 440 87<462 524>
AnchorPoint: "Anchor-17" 0 0 basechar 0
AnchorPoint: "Anchor-16" 0 0 basechar 0
AnchorPoint: "Anchor-15" 350 792 basechar 0
AnchorPoint: "Anchor-14" 524 40 basechar 0
AnchorPoint: "Anchor-13" 318 0 basechar 0
LayerCount: 2
Back
SplineSet
257 698 m 1xec
 244 706 l 1
 232 751 l 1
 339 799 453 856 453 856 c 1
 465 851 l 1
 490 776 l 1
 485 763 l 1
 485 763 371 734 257 698 c 1xec
550 198 m 1
 557 189 l 1
 547 140 536 62 530 4 c 1
 520 -7 l 1
 411 -3 280 0 209 0 c 0
 160 0 90 -4 38 -10 c 1
 45 57 l 1
 101 65 117 84 117 143 c 2
 118 524 l 2
 118 568 112 578 86 578 c 0
 78 578 64 577 55 576 c 1
 49 585 l 1
 57 645 l 1xdc
 103 644 184 642 238 642 c 0
 382 642 481 645 542 654 c 1
 550 643 l 1
 539 592 530 516 527 462 c 1
 438 456 l 1
 439 467 440 487 440 496 c 0
 440 552 426 560 312 560 c 0
 264 560 259 557 258 526 c 2
 251 369 l 1
 271 369 316 368 345 368 c 0
 366 368 421 372 461 377 c 1
 469 368 l 1
 455 283 l 1
 420 284 361 286 324 286 c 0
 299 286 270 283 247 280 c 1
 245 137 l 2
 245 83 252 77 310 77 c 0
 436 77 454 90 468 191 c 1
 550 198 l 1
EndSplineSet
Fore
SplineSet
257 698 m 1xec
 244 706 l 1
 232 751 l 1
 339 799 453 856 453 856 c 1
 465 851 l 1
 490 776 l 1
 485 763 l 1
 485 763 371 734 257 698 c 1xec
550 198 m 1
 557 189 l 1
 547 140 536 62 530 4 c 1
 520 -7 l 1
 411 -3 280 0 209 0 c 0
 160 0 90 -4 38 -10 c 1
 45 57 l 1
 101 65 117 84 117 143 c 2
 118 524 l 2
 118 568 112 578 86 578 c 0
 78 578 64 577 55 576 c 1
 49 585 l 1
 57 645 l 1xdc
 103 644 184 642 238 642 c 0
 382 642 481 645 542 654 c 1
 550 643 l 1
 539 592 530 516 527 462 c 1
 438 456 l 1
 439 467 440 487 440 496 c 0
 440 552 426 560 312 560 c 0
 264 560 259 557 258 526 c 2
 251 369 l 1
 271 369 316 368 345 368 c 0
 366 368 421 372 461 377 c 1
 469 368 l 1
 455 283 l 1
 420 284 361 286 324 286 c 0
 299 286 270 283 247 280 c 1
 245 137 l 2
 245 83 252 77 310 77 c 0
 436 77 454 90 468 191 c 1
 550 198 l 1
EndSplineSet
Substitution2: "'c2sc' Capitals to Small Capitals lookup 35 subtable" eacute.sc
Substitution2: "'aalt' Access All Alternates lookup 0 subtable" eacute.sc
Position2: "'cpsp' Capital Spacing lookup 0 subtable" dx=10 dy=0 dh=20 dv=0
EndChar

StartChar: Ebreve
Encoding: 276 276 47
Width: 596
GlyphClass: 2
Flags: MW
HStem: 0 77<184.5 373> 286 82<330.5 342.5> 560 82<288 310 211 369> 578 7 699 93<304.5 349.5 304.5 369>
VStem: 117 128<113.5 137 110 143> 440 87<462 524>
AnchorPoint: "Anchor-17" 0 0 basechar 0
AnchorPoint: "Anchor-16" 0 0 basechar 0
AnchorPoint: "Anchor-15" 327 860 basechar 0
AnchorPoint: "Anchor-14" 524 40 basechar 0
AnchorPoint: "Anchor-13" 318 0 basechar 0
LayerCount: 2
Back
SplineSet
327 699 m 0xee
 243 699 198 761 181 823 c 1
 208 856 l 1
 224 860 l 1
 243 814 282 792 327 792 c 0
 372 792 411 814 430 860 c 1
 446 856 l 1
 473 823 l 1
 456 761 411 699 327 699 c 0xee
550 198 m 1
 557 189 l 1
 547 140 536 62 530 4 c 1
 520 -7 l 1
 411 -3 280 0 209 0 c 0
 160 0 90 -4 38 -10 c 1
 45 57 l 1
 101 65 117 84 117 143 c 2
 118 524 l 2
 118 568 112 578 86 578 c 0
 78 578 64 577 55 576 c 1
 49 585 l 1
 57 645 l 1xde
 103 644 184 642 238 642 c 0
 382 642 481 645 542 654 c 1
 550 643 l 1
 539 592 530 516 527 462 c 1
 438 456 l 1
 439 467 440 487 440 496 c 0
 440 552 426 560 312 560 c 0
 264 560 259 557 258 526 c 2
 251 369 l 1
 271 369 316 368 345 368 c 0
 366 368 421 372 461 377 c 1
 469 368 l 1
 455 283 l 1
 420 284 361 286 324 286 c 0
 299 286 270 283 247 280 c 1
 245 137 l 2
 245 83 252 77 310 77 c 0
 436 77 454 90 468 191 c 1
 550 198 l 1
EndSplineSet
Fore
SplineSet
327 699 m 0xee
 243 699 198 761 181 823 c 1
 208 856 l 1
 224 860 l 1
 243 814 282 792 327 792 c 0
 372 792 411 814 430 860 c 1
 446 856 l 1
 473 823 l 1
 456 761 411 699 327 699 c 0xee
550 198 m 1
 557 189 l 1
 547 140 536 62 530 4 c 1
 520 -7 l 1
 411 -3 280 0 209 0 c 0
 160 0 90 -4 38 -10 c 1
 45 57 l 1
 101 65 117 84 117 143 c 2
 118 524 l 2
 118 568 112 578 86 578 c 0
 78 578 64 577 55 576 c 1
 49 585 l 1
 57 645 l 1xde
 103 644 184 642 238 642 c 0
 382 642 481 645 542 654 c 1
 550 643 l 1
 539 592 530 516 527 462 c 1
 438 456 l 1
 439 467 440 487 440 496 c 0
 440 552 426 560 312 560 c 0
 264 560 259 557 258 526 c 2
 251 369 l 1
 271 369 316 368 345 368 c 0
 366 368 421 372 461 377 c 1
 469 368 l 1
 455 283 l 1
 420 284 361 286 324 286 c 0
 299 286 270 283 247 280 c 1
 245 137 l 2
 245 83 252 77 310 77 c 0
 436 77 454 90 468 191 c 1
 550 198 l 1
EndSplineSet
Substitution2: "'c2sc' Capitals to Small Capitals lookup 35 subtable" ebreve.sc
Substitution2: "'aalt' Access All Alternates lookup 0 subtable" ebreve.sc
Position2: "'cpsp' Capital Spacing lookup 0 subtable" dx=10 dy=0 dh=20 dv=0
EndChar

StartChar: Ecaron
Encoding: 282 282 48
Width: 596
GlyphClass: 2
Flags: MW
HStem: 0 77<184.5 373> 286 82<330.5 342.5> 560 82<288 310 211 369> 578 7
VStem: 117 128<113.5 137 110 143> 440 87<462 524>
AnchorPoint: "Anchor-17" 0 0 basechar 0
AnchorPoint: "Anchor-16" 0 0 basechar 0
AnchorPoint: "Anchor-15" 317 799 basechar 0
AnchorPoint: "Anchor-14" 524 40 basechar 0
AnchorPoint: "Anchor-13" 318 0 basechar 0
LayerCount: 2
Back
SplineSet
327 697 m 1xec
 307 697 l 1
 307 697 225 766 152 820 c 1
 175 860 l 1
 191 864 l 1
 237 840 289 817 317 805 c 1
 346 817 396 840 443 864 c 1
 459 860 l 1
 483 820 l 1
 409 766 327 697 327 697 c 1xec
550 198 m 1
 557 189 l 1
 547 140 536 62 530 4 c 1
 520 -7 l 1
 411 -3 280 0 209 0 c 0
 160 0 90 -4 38 -10 c 1
 45 57 l 1
 101 65 117 84 117 143 c 2
 118 524 l 2
 118 568 112 578 86 578 c 0
 78 578 64 577 55 576 c 1
 49 585 l 1
 57 645 l 1xdc
 103 644 184 642 238 642 c 0
 382 642 481 645 542 654 c 1
 550 643 l 1
 539 592 530 516 527 462 c 1
 438 456 l 1
 439 467 440 487 440 496 c 0
 440 552 426 560 312 560 c 0
 264 560 259 557 258 526 c 2
 251 369 l 1
 271 369 316 368 345 368 c 0
 366 368 421 372 461 377 c 1
 469 368 l 1
 455 283 l 1
 420 284 361 286 324 286 c 0
 299 286 270 283 247 280 c 1
 245 137 l 2
 245 83 252 77 310 77 c 0
 436 77 454 90 468 191 c 1
 550 198 l 1
EndSplineSet
Fore
SplineSet
327 697 m 1xec
 307 697 l 1
 307 697 225 766 152 820 c 1
 175 860 l 1
 191 864 l 1
 237 840 289 817 317 805 c 1
 346 817 396 840 443 864 c 1
 459 860 l 1
 483 820 l 1
 409 766 327 697 327 697 c 1xec
550 198 m 1
 557 189 l 1
 547 140 536 62 530 4 c 1
 520 -7 l 1
 411 -3 280 0 209 0 c 0
 160 0 90 -4 38 -10 c 1
 45 57 l 1
 101 65 117 84 117 143 c 2
 118 524 l 2
 118 568 112 578 86 578 c 0
 78 578 64 577 55 576 c 1
 49 585 l 1
 57 645 l 1xdc
 103 644 184 642 238 642 c 0
 382 642 481 645 542 654 c 1
 550 643 l 1
 539 592 530 516 527 462 c 1
 438 456 l 1
 439 467 440 487 440 496 c 0
 440 552 426 560 312 560 c 0
 264 560 259 557 258 526 c 2
 251 369 l 1
 271 369 316 368 345 368 c 0
 366 368 421 372 461 377 c 1
 469 368 l 1
 455 283 l 1
 420 284 361 286 324 286 c 0
 299 286 270 283 247 280 c 1
 245 137 l 2
 245 83 252 77 310 77 c 0
 436 77 454 90 468 191 c 1
 550 198 l 1
EndSplineSet
Substitution2: "'c2sc' Capitals to Small Capitals lookup 35 subtable" ecaron.sc
Substitution2: "'aalt' Access All Alternates lookup 0 subtable" ecaron.sc
Position2: "'cpsp' Capital Spacing lookup 0 subtable" dx=10 dy=0 dh=20 dv=0
EndChar

StartChar: uni1E1C
Encoding: 7708 7708 49
Width: 596
GlyphClass: 2
Flags: MW
HStem: -237 49<306 332.5 306 334.5> -2 79<350 350> 286 82<330.5 342.5> 560 82<288 310 211 369> 578 7 694 93<303.5 348.5 303.5 368>
VStem: 117 128<113.5 137 110 143> 260 9<-132 -132> 362 72<-166.5 -145.5> 440 87<462 524>
AnchorPoint: "Anchor-17" 0 0 basechar 0
AnchorPoint: "Anchor-16" 0 0 basechar 0
AnchorPoint: "Anchor-15" 326 846 basechar 0
AnchorPoint: "Anchor-14" 524 40 basechar 0
AnchorPoint: "Anchor-13" 329 -237 basechar 0
LayerCount: 2
Back
SplineSet
326 694 m 0xf640
 242 694 197 752 180 809 c 1
 207 843 l 1
 223 846 l 1
 242 807 281 787 326 787 c 0
 371 787 410 807 429 846 c 1
 445 843 l 1
 472 809 l 1
 455 752 410 694 326 694 c 0xf640
550 198 m 1
 557 189 l 1
 547 140 536 62 530 4 c 1
 520 -7 l 1
 466 -5 406 -3 350 -2 c 1
 338 -45 l 1
 375 -66 434 -100 434 -141 c 0
 434 -194 368 -237 301 -237 c 0
 267 -237 224 -221 224 -194 c 0
 224 -179 245 -149 260 -132 c 1
 269 -132 l 1xf780
 270 -169 291 -188 321 -188 c 0
 344 -188 362 -176 362 -157 c 0
 362 -134 316 -107 276 -86 c 1
 300 -1 l 1
 265 0 233 0 209 0 c 0
 160 0 90 -4 38 -10 c 1
 45 57 l 1
 101 65 117 84 117 143 c 2
 118 524 l 2
 118 568 112 578 86 578 c 0
 78 578 64 577 55 576 c 1
 49 585 l 1
 57 645 l 1xee80
 103 644 184 642 238 642 c 0
 382 642 481 645 542 654 c 1
 550 643 l 1
 539 592 530 516 527 462 c 1
 438 456 l 1
 439 467 440 487 440 496 c 0
 440 552 426 560 312 560 c 0
 264 560 259 557 258 526 c 2
 251 369 l 1
 271 369 316 368 345 368 c 0
 366 368 421 372 461 377 c 1
 469 368 l 1
 455 283 l 1
 420 284 361 286 324 286 c 0
 299 286 270 283 247 280 c 1
 245 137 l 2
 245 83 252 77 310 77 c 0
 436 77 454 90 468 191 c 1
 550 198 l 1
EndSplineSet
Fore
SplineSet
326 694 m 0xf640
 242 694 197 752 180 809 c 1
 207 843 l 1
 223 846 l 1
 242 807 281 787 326 787 c 0
 371 787 410 807 429 846 c 1
 445 843 l 1
 472 809 l 1
 455 752 410 694 326 694 c 0xf640
550 198 m 1
 557 189 l 1
 547 140 536 62 530 4 c 1
 520 -7 l 1
 466 -5 406 -3 350 -2 c 1
 338 -45 l 1
 375 -66 434 -100 434 -141 c 0
 434 -194 368 -237 301 -237 c 0
 267 -237 224 -221 224 -194 c 0
 224 -179 245 -149 260 -132 c 1
 269 -132 l 1xf780
 270 -169 291 -188 321 -188 c 0
 344 -188 362 -176 362 -157 c 0
 362 -134 316 -107 276 -86 c 1
 300 -1 l 1
 265 0 233 0 209 0 c 0
 160 0 90 -4 38 -10 c 1
 45 57 l 1
 101 65 117 84 117 143 c 2
 118 524 l 2
 118 568 112 578 86 578 c 0
 78 578 64 577 55 576 c 1
 49 585 l 1
 57 645 l 1xee80
 103 644 184 642 238 642 c 0
 382 642 481 645 542 654 c 1
 550 643 l 1
 539 592 530 516 527 462 c 1
 438 456 l 1
 439 467 440 487 440 496 c 0
 440 552 426 560 312 560 c 0
 264 560 259 557 258 526 c 2
 251 369 l 1
 271 369 316 368 345 368 c 0
 366 368 421 372 461 377 c 1
 469 368 l 1
 455 283 l 1
 420 284 361 286 324 286 c 0
 299 286 270 283 247 280 c 1
 245 137 l 2
 245 83 252 77 310 77 c 0
 436 77 454 90 468 191 c 1
 550 198 l 1
EndSplineSet
Substitution2: "'c2sc' Capitals to Small Capitals lookup 35 subtable" uni1E1D.sc
Substitution2: "'aalt' Access All Alternates lookup 0 subtable" uni1E1D.sc
Position2: "'cpsp' Capital Spacing lookup 0 subtable" dx=10 dy=0 dh=20 dv=0
EndChar

StartChar: Ecircumflex
Encoding: 202 202 50
Width: 596
GlyphClass: 2
Flags: MW
HStem: 0 77<184.5 373> 286 82<330.5 342.5> 560 82<288 310 211 369> 578 7
VStem: 117 128<113.5 137 110 143> 440 87<462 524>
AnchorPoint: "Anchor-17" 0 0 basechar 0
AnchorPoint: "Anchor-16" 0 0 basechar 0
AnchorPoint: "Anchor-15" 318 874 basechar 0
AnchorPoint: "Anchor-14" 524 40 basechar 0
AnchorPoint: "Anchor-13" 318 0 basechar 0
LayerCount: 2
Back
SplineSet
192 707 m 1xec
 177 711 l 1
 153 751 l 1
 226 805 308 874 308 874 c 1
 328 874 l 1
 328 877 410 806 483 751 c 1
 460 711 l 1
 445 707 l 1
 399 730 346 754 318 766 c 1
 289 754 240 731 192 707 c 1xec
550 198 m 1
 557 189 l 1
 547 140 536 62 530 4 c 1
 520 -7 l 1
 411 -3 280 0 209 0 c 0
 160 0 90 -4 38 -10 c 1
 45 57 l 1
 101 65 117 84 117 143 c 2
 118 524 l 2
 118 568 112 578 86 578 c 0
 78 578 64 577 55 576 c 1
 49 585 l 1
 57 645 l 1xdc
 103 644 184 642 238 642 c 0
 382 642 481 645 542 654 c 1
 550 643 l 1
 539 592 530 516 527 462 c 1
 438 456 l 1
 439 467 440 487 440 496 c 0
 440 552 426 560 312 560 c 0
 264 560 259 557 258 526 c 2
 251 369 l 1
 271 369 316 368 345 368 c 0
 366 368 421 372 461 377 c 1
 469 368 l 1
 455 283 l 1
 420 284 361 286 324 286 c 0
 299 286 270 283 247 280 c 1
 245 137 l 2
 245 83 252 77 310 77 c 0
 436 77 454 90 468 191 c 1
 550 198 l 1
EndSplineSet
Fore
SplineSet
192 707 m 1xec
 177 711 l 1
 153 751 l 1
 226 805 308 874 308 874 c 1
 328 874 l 1
 328 877 410 806 483 751 c 1
 460 711 l 1
 445 707 l 1
 399 730 346 754 318 766 c 1
 289 754 240 731 192 707 c 1xec
550 198 m 1
 557 189 l 1
 547 140 536 62 530 4 c 1
 520 -7 l 1
 411 -3 280 0 209 0 c 0
 160 0 90 -4 38 -10 c 1
 45 57 l 1
 101 65 117 84 117 143 c 2
 118 524 l 2
 118 568 112 578 86 578 c 0
 78 578 64 577 55 576 c 1
 49 585 l 1
 57 645 l 1xdc
 103 644 184 642 238 642 c 0
 382 642 481 645 542 654 c 1
 550 643 l 1
 539 592 530 516 527 462 c 1
 438 456 l 1
 439 467 440 487 440 496 c 0
 440 552 426 560 312 560 c 0
 264 560 259 557 258 526 c 2
 251 369 l 1
 271 369 316 368 345 368 c 0
 366 368 421 372 461 377 c 1
 469 368 l 1
 455 283 l 1
 420 284 361 286 324 286 c 0
 299 286 270 283 247 280 c 1
 245 137 l 2
 245 83 252 77 310 77 c 0
 436 77 454 90 468 191 c 1
 550 198 l 1
EndSplineSet
Substitution2: "'c2sc' Capitals to Small Capitals lookup 35 subtable" ecircumflex.sc
Substitution2: "'aalt' Access All Alternates lookup 0 subtable" ecircumflex.sc
Position2: "'cpsp' Capital Spacing lookup 0 subtable" dx=10 dy=0 dh=20 dv=0
EndChar

StartChar: uni1EBE
Encoding: 7870 7870 51
Width: 596
GlyphClass: 2
Flags: MW
HStem: 0 77<184.5 373> 286 82<330.5 342.5> 560 82<288 310 211 369> 578 7
VStem: 117 128<113.5 137 110 143> 440 87<462 524>
AnchorPoint: "Anchor-17" 0 0 basechar 0
AnchorPoint: "Anchor-16" 0 0 basechar 0
AnchorPoint: "Anchor-15" 323 981 basechar 0
AnchorPoint: "Anchor-14" 524 40 basechar 0
AnchorPoint: "Anchor-13" 318 0 basechar 0
LayerCount: 2
Back
SplineSet
458 790 m 1xec
 443 789 l 1
 402 817 l 1
 468 962 l 1
 481 965 l 1
 544 927 l 1
 547 914 l 1
 458 790 l 1xec
205 670 m 1
 191 674 l 1
 168 711 l 1
 239 763 318 830 318 830 c 1
 337 830 l 1
 337 830 415 764 486 711 c 1
 463 674 l 1
 449 670 l 1
 404 693 354 715 327 727 c 1
 299 715 252 693 205 670 c 1
550 198 m 1
 557 189 l 1
 547 140 536 62 530 4 c 1
 520 -7 l 1
 411 -3 280 0 209 0 c 0
 160 0 90 -4 38 -10 c 1
 45 57 l 1
 101 65 117 84 117 143 c 2
 118 524 l 2
 118 568 112 578 86 578 c 0
 78 578 64 577 55 576 c 1
 49 585 l 1
 57 645 l 1xdc
 103 644 184 642 238 642 c 0
 382 642 481 645 542 654 c 1
 550 643 l 1
 539 592 530 516 527 462 c 1
 438 456 l 1
 439 467 440 487 440 496 c 0
 440 552 426 560 312 560 c 0
 264 560 259 557 258 526 c 2
 251 369 l 1
 271 369 316 368 345 368 c 0
 366 368 421 372 461 377 c 1
 469 368 l 1
 455 283 l 1
 420 284 361 286 324 286 c 0
 299 286 270 283 247 280 c 1
 245 137 l 2
 245 83 252 77 310 77 c 0
 436 77 454 90 468 191 c 1
 550 198 l 1
EndSplineSet
Fore
SplineSet
458 790 m 1xec
 443 789 l 1
 402 817 l 1
 468 962 l 1
 481 965 l 1
 544 927 l 1
 547 914 l 1
 458 790 l 1xec
205 670 m 1
 191 674 l 1
 168 711 l 1
 239 763 318 830 318 830 c 1
 337 830 l 1
 337 830 415 764 486 711 c 1
 463 674 l 1
 449 670 l 1
 404 693 354 715 327 727 c 1
 299 715 252 693 205 670 c 1
550 198 m 1
 557 189 l 1
 547 140 536 62 530 4 c 1
 520 -7 l 1
 411 -3 280 0 209 0 c 0
 160 0 90 -4 38 -10 c 1
 45 57 l 1
 101 65 117 84 117 143 c 2
 118 524 l 2
 118 568 112 578 86 578 c 0
 78 578 64 577 55 576 c 1
 49 585 l 1
 57 645 l 1xdc
 103 644 184 642 238 642 c 0
 382 642 481 645 542 654 c 1
 550 643 l 1
 539 592 530 516 527 462 c 1
 438 456 l 1
 439 467 440 487 440 496 c 0
 440 552 426 560 312 560 c 0
 264 560 259 557 258 526 c 2
 251 369 l 1
 271 369 316 368 345 368 c 0
 366 368 421 372 461 377 c 1
 469 368 l 1
 455 283 l 1
 420 284 361 286 324 286 c 0
 299 286 270 283 247 280 c 1
 245 137 l 2
 245 83 252 77 310 77 c 0
 436 77 454 90 468 191 c 1
 550 198 l 1
EndSplineSet
Substitution2: "'c2sc' Capitals to Small Capitals lookup 35 subtable" uni1EBF.sc
Substitution2: "'aalt' Access All Alternates lookup 0 subtable" uni1EBF.sc
Position2: "'cpsp' Capital Spacing lookup 0 subtable" dx=10 dy=0 dh=20 dv=0
EndChar

StartChar: uni1EC6
Encoding: 7878 7878 52
Width: 596
GlyphClass: 2
Flags: MW
HStem: -210 155<285.5 327.5> 0 77<184.5 373> 286 82<330.5 342.5> 560 82<288 310 211 369> 578 7
VStem: 117 128<113.5 137 110 143> 230 153<-153 -112> 440 87<462 524>
AnchorPoint: "Anchor-17" 0 0 basechar 0
AnchorPoint: "Anchor-16" 0 0 basechar 0
AnchorPoint: "Anchor-15" 318 874 basechar 0
AnchorPoint: "Anchor-14" 524 40 basechar 0
AnchorPoint: "Anchor-13" 307 -210 basechar 0
LayerCount: 2
Back
SplineSet
192 707 m 1x75
 177 711 l 1
 153 751 l 1
 226 805 308 874 308 874 c 1
 328 874 l 1
 328 877 410 806 483 751 c 1
 460 711 l 1
 445 707 l 1
 399 730 346 754 318 766 c 1
 289 754 240 731 192 707 c 1x75
550 198 m 1
 557 189 l 1
 547 140 536 62 530 4 c 1
 520 -7 l 1
 411 -3 280 0 209 0 c 0
 160 0 90 -4 38 -10 c 1
 45 57 l 1
 101 65 117 84 117 143 c 2
 118 524 l 2
 118 568 112 578 86 578 c 0
 78 578 64 577 55 576 c 1
 49 585 l 1
 57 645 l 1x6d
 103 644 184 642 238 642 c 0
 382 642 481 645 542 654 c 1
 550 643 l 1
 539 592 530 516 527 462 c 1
 438 456 l 1
 439 467 440 487 440 496 c 0
 440 552 426 560 312 560 c 0
 264 560 259 557 258 526 c 2
 251 369 l 1
 271 369 316 368 345 368 c 0
 366 368 421 372 461 377 c 1
 469 368 l 1
 455 283 l 1
 420 284 361 286 324 286 c 0
 299 286 270 283 247 280 c 1
 245 137 l 2
 245 83 252 77 310 77 c 0
 436 77 454 90 468 191 c 1
 550 198 l 1
310 -55 m 0xf3
 357 -55 383 -85 383 -129 c 0
 383 -177 352 -210 303 -210 c 0
 255 -210 230 -179 230 -136 c 0
 230 -88 261 -55 310 -55 c 0xf3
EndSplineSet
Fore
SplineSet
192 707 m 1x75
 177 711 l 1
 153 751 l 1
 226 805 308 874 308 874 c 1
 328 874 l 1
 328 877 410 806 483 751 c 1
 460 711 l 1
 445 707 l 1
 399 730 346 754 318 766 c 1
 289 754 240 731 192 707 c 1x75
550 198 m 1
 557 189 l 1
 547 140 536 62 530 4 c 1
 520 -7 l 1
 411 -3 280 0 209 0 c 0
 160 0 90 -4 38 -10 c 1
 45 57 l 1
 101 65 117 84 117 143 c 2
 118 524 l 2
 118 568 112 578 86 578 c 0
 78 578 64 577 55 576 c 1
 49 585 l 1
 57 645 l 1x6d
 103 644 184 642 238 642 c 0
 382 642 481 645 542 654 c 1
 550 643 l 1
 539 592 530 516 527 462 c 1
 438 456 l 1
 439 467 440 487 440 496 c 0
 440 552 426 560 312 560 c 0
 264 560 259 557 258 526 c 2
 251 369 l 1
 271 369 316 368 345 368 c 0
 366 368 421 372 461 377 c 1
 469 368 l 1
 455 283 l 1
 420 284 361 286 324 286 c 0
 299 286 270 283 247 280 c 1
 245 137 l 2
 245 83 252 77 310 77 c 0
 436 77 454 90 468 191 c 1
 550 198 l 1
310 -55 m 0xf3
 357 -55 383 -85 383 -129 c 0
 383 -177 352 -210 303 -210 c 0
 255 -210 230 -179 230 -136 c 0
 230 -88 261 -55 310 -55 c 0xf3
EndSplineSet
Substitution2: "'c2sc' Capitals to Small Capitals lookup 35 subtable" uni1EC7.sc
Substitution2: "'aalt' Access All Alternates lookup 0 subtable" uni1EC7.sc
Position2: "'cpsp' Capital Spacing lookup 0 subtable" dx=10 dy=0 dh=20 dv=0
EndChar

StartChar: uni1EC0
Encoding: 7872 7872 53
Width: 596
GlyphClass: 2
Flags: MW
HStem: 0 77<184.5 373> 286 82<330.5 342.5> 560 82<288 310 211 369> 578 7
VStem: 117 128<113.5 137 110 143> 440 87<462 524>
AnchorPoint: "Anchor-17" 0 0 basechar 0
AnchorPoint: "Anchor-16" 0 0 basechar 0
AnchorPoint: "Anchor-15" 321 986 basechar 0
AnchorPoint: "Anchor-14" 524 40 basechar 0
AnchorPoint: "Anchor-13" 318 0 basechar 0
LayerCount: 2
Back
SplineSet
463 783 m 1xec
 447 784 l 1
 359 908 l 1
 362 921 l 1
 424 959 l 1
 437 955 l 1
 503 811 l 1
 463 783 l 1xec
205 670 m 1
 191 674 l 1
 168 711 l 1
 239 763 318 830 318 830 c 1
 337 830 l 1
 337 830 415 764 486 711 c 1
 463 674 l 1
 449 670 l 1
 404 693 354 715 327 727 c 1
 299 715 252 693 205 670 c 1
550 198 m 1
 557 189 l 1
 547 140 536 62 530 4 c 1
 520 -7 l 1
 411 -3 280 0 209 0 c 0
 160 0 90 -4 38 -10 c 1
 45 57 l 1
 101 65 117 84 117 143 c 2
 118 524 l 2
 118 568 112 578 86 578 c 0
 78 578 64 577 55 576 c 1
 49 585 l 1
 57 645 l 1xdc
 103 644 184 642 238 642 c 0
 382 642 481 645 542 654 c 1
 550 643 l 1
 539 592 530 516 527 462 c 1
 438 456 l 1
 439 467 440 487 440 496 c 0
 440 552 426 560 312 560 c 0
 264 560 259 557 258 526 c 2
 251 369 l 1
 271 369 316 368 345 368 c 0
 366 368 421 372 461 377 c 1
 469 368 l 1
 455 283 l 1
 420 284 361 286 324 286 c 0
 299 286 270 283 247 280 c 1
 245 137 l 2
 245 83 252 77 310 77 c 0
 436 77 454 90 468 191 c 1
 550 198 l 1
EndSplineSet
Fore
SplineSet
463 783 m 1xec
 447 784 l 1
 359 908 l 1
 362 921 l 1
 424 959 l 1
 437 955 l 1
 503 811 l 1
 463 783 l 1xec
205 670 m 1
 191 674 l 1
 168 711 l 1
 239 763 318 830 318 830 c 1
 337 830 l 1
 337 830 415 764 486 711 c 1
 463 674 l 1
 449 670 l 1
 404 693 354 715 327 727 c 1
 299 715 252 693 205 670 c 1
550 198 m 1
 557 189 l 1
 547 140 536 62 530 4 c 1
 520 -7 l 1
 411 -3 280 0 209 0 c 0
 160 0 90 -4 38 -10 c 1
 45 57 l 1
 101 65 117 84 117 143 c 2
 118 524 l 2
 118 568 112 578 86 578 c 0
 78 578 64 577 55 576 c 1
 49 585 l 1
 57 645 l 1xdc
 103 644 184 642 238 642 c 0
 382 642 481 645 542 654 c 1
 550 643 l 1
 539 592 530 516 527 462 c 1
 438 456 l 1
 439 467 440 487 440 496 c 0
 440 552 426 560 312 560 c 0
 264 560 259 557 258 526 c 2
 251 369 l 1
 271 369 316 368 345 368 c 0
 366 368 421 372 461 377 c 1
 469 368 l 1
 455 283 l 1
 420 284 361 286 324 286 c 0
 299 286 270 283 247 280 c 1
 245 137 l 2
 245 83 252 77 310 77 c 0
 436 77 454 90 468 191 c 1
 550 198 l 1
EndSplineSet
Substitution2: "'c2sc' Capitals to Small Capitals lookup 35 subtable" uni1EC1.sc
Substitution2: "'aalt' Access All Alternates lookup 0 subtable" uni1EC1.sc
Position2: "'cpsp' Capital Spacing lookup 0 subtable" dx=10 dy=0 dh=20 dv=0
EndChar

StartChar: uni1EC2
Encoding: 7874 7874 54
Width: 596
GlyphClass: 2
Flags: MW
HStem: 0 77<184.5 373> 286 82<330.5 342.5> 560 82<288 310 211 369> 578 7 933 63<428 429>
VStem: 117 128<113.5 137 110 143> 440 87<462 524> 453 74<913 915>
AnchorPoint: "Anchor-17" 0 0 basechar 0
AnchorPoint: "Anchor-16" 0 0 basechar 0
AnchorPoint: "Anchor-15" 340 1011 basechar 0
AnchorPoint: "Anchor-14" 524 40 basechar 0
AnchorPoint: "Anchor-13" 318 0 basechar 0
LayerCount: 2
Back
SplineSet
418 933 m 0xed
 390 933 360 913 360 913 c 1
 343 938 l 1
 343 938 387 982 428 996 c 1
 489 996 527 970 527 925 c 0
 527 901 510 874 469 842 c 1
 492 804 l 1
 444 777 l 1
 402 842 l 1
 439 868 453 886 453 907 c 0
 453 923 440 933 418 933 c 0xed
205 670 m 1
 191 674 l 1
 168 711 l 1
 239 763 318 830 318 830 c 1
 337 830 l 1
 337 830 415 764 486 711 c 1
 463 674 l 1
 449 670 l 1
 404 693 354 715 327 727 c 1
 299 715 252 693 205 670 c 1
550 198 m 1
 557 189 l 1
 547 140 536 62 530 4 c 1
 520 -7 l 1
 411 -3 280 0 209 0 c 0
 160 0 90 -4 38 -10 c 1
 45 57 l 1
 101 65 117 84 117 143 c 2
 118 524 l 2
 118 568 112 578 86 578 c 0
 78 578 64 577 55 576 c 1
 49 585 l 1
 57 645 l 1xdd
 103 644 184 642 238 642 c 0
 382 642 481 645 542 654 c 1
 550 643 l 1
 539 592 530 516 527 462 c 1
 438 456 l 1
 439 467 440 487 440 496 c 0xee
 440 552 426 560 312 560 c 0
 264 560 259 557 258 526 c 2
 251 369 l 1
 271 369 316 368 345 368 c 0
 366 368 421 372 461 377 c 1
 469 368 l 1
 455 283 l 1
 420 284 361 286 324 286 c 0
 299 286 270 283 247 280 c 1
 245 137 l 2
 245 83 252 77 310 77 c 0
 436 77 454 90 468 191 c 1
 550 198 l 1
EndSplineSet
Fore
SplineSet
418 933 m 0xed
 390 933 360 913 360 913 c 1
 343 938 l 1
 343 938 387 982 428 996 c 1
 489 996 527 970 527 925 c 0
 527 901 510 874 469 842 c 1
 492 804 l 1
 444 777 l 1
 402 842 l 1
 439 868 453 886 453 907 c 0
 453 923 440 933 418 933 c 0xed
205 670 m 1
 191 674 l 1
 168 711 l 1
 239 763 318 830 318 830 c 1
 337 830 l 1
 337 830 415 764 486 711 c 1
 463 674 l 1
 449 670 l 1
 404 693 354 715 327 727 c 1
 299 715 252 693 205 670 c 1
550 198 m 1
 557 189 l 1
 547 140 536 62 530 4 c 1
 520 -7 l 1
 411 -3 280 0 209 0 c 0
 160 0 90 -4 38 -10 c 1
 45 57 l 1
 101 65 117 84 117 143 c 2
 118 524 l 2
 118 568 112 578 86 578 c 0
 78 578 64 577 55 576 c 1
 49 585 l 1
 57 645 l 1xdd
 103 644 184 642 238 642 c 0
 382 642 481 645 542 654 c 1
 550 643 l 1
 539 592 530 516 527 462 c 1
 438 456 l 1
 439 467 440 487 440 496 c 0xee
 440 552 426 560 312 560 c 0
 264 560 259 557 258 526 c 2
 251 369 l 1
 271 369 316 368 345 368 c 0
 366 368 421 372 461 377 c 1
 469 368 l 1
 455 283 l 1
 420 284 361 286 324 286 c 0
 299 286 270 283 247 280 c 1
 245 137 l 2
 245 83 252 77 310 77 c 0
 436 77 454 90 468 191 c 1
 550 198 l 1
EndSplineSet
Substitution2: "'c2sc' Capitals to Small Capitals lookup 35 subtable" uni1EC3.sc
Substitution2: "'aalt' Access All Alternates lookup 0 subtable" uni1EC3.sc
Position2: "'cpsp' Capital Spacing lookup 0 subtable" dx=10 dy=0 dh=20 dv=0
EndChar

StartChar: uni1EC4
Encoding: 7876 7876 55
Width: 596
GlyphClass: 2
Flags: MW
HStem: 0 77<184.5 373> 286 82<330.5 342.5> 560 82<288 310 211 369> 578 7 845 84<387 395 371.5 402> 875 85<258 266 251 282>
VStem: 117 128<113.5 137 110 143> 440 87<462 524>
AnchorPoint: "Anchor-17" 0 0 basechar 0
AnchorPoint: "Anchor-16" 0 0 basechar 0
AnchorPoint: "Anchor-15" 327 975 basechar 0
AnchorPoint: "Anchor-14" 524 40 basechar 0
AnchorPoint: "Anchor-13" 318 0 basechar 0
LayerCount: 2
Back
SplineSet
212 830 m 1xe6
 202 830 l 1
 167 862 l 1
 167 871 l 1
 236 956 l 1
 251 960 l 1xe7
 281 960 358 929 385 929 c 0
 405 929 442 975 442 975 c 1
 452 975 l 1
 487 942 l 1
 487 934 l 1
 417 849 l 1
 402 845 l 1xea
 372 845 295 875 269 875 c 0
 247 875 212 830 212 830 c 1xe6
318 830 m 1
 337 830 l 1
 337 830 415 764 486 711 c 1
 463 674 l 1
 449 670 l 1
 404 693 354 715 327 727 c 1
 299 715 252 693 205 670 c 1
 191 674 l 1
 168 711 l 1
 239 763 318 830 318 830 c 1
550 198 m 1
 557 189 l 1
 547 140 536 62 530 4 c 1
 520 -7 l 1
 411 -3 280 0 209 0 c 0
 160 0 90 -4 38 -10 c 1
 45 57 l 1
 101 65 117 84 117 143 c 2
 118 524 l 2
 118 568 112 578 86 578 c 0
 78 578 64 577 55 576 c 1
 49 585 l 1
 57 645 l 1xd6
 103 644 184 642 238 642 c 0
 382 642 481 645 542 654 c 1
 550 643 l 1
 539 592 530 516 527 462 c 1
 438 456 l 1
 439 467 440 487 440 496 c 0
 440 552 426 560 312 560 c 0
 264 560 259 557 258 526 c 2
 251 369 l 1
 271 369 316 368 345 368 c 0
 366 368 421 372 461 377 c 1
 469 368 l 1
 455 283 l 1
 420 284 361 286 324 286 c 0
 299 286 270 283 247 280 c 1
 245 137 l 2
 245 83 252 77 310 77 c 0
 436 77 454 90 468 191 c 1
 550 198 l 1
EndSplineSet
Fore
SplineSet
212 830 m 1xe6
 202 830 l 1
 167 862 l 1
 167 871 l 1
 236 956 l 1
 251 960 l 1xe7
 281 960 358 929 385 929 c 0
 405 929 442 975 442 975 c 1
 452 975 l 1
 487 942 l 1
 487 934 l 1
 417 849 l 1
 402 845 l 1xea
 372 845 295 875 269 875 c 0
 247 875 212 830 212 830 c 1xe6
318 830 m 1
 337 830 l 1
 337 830 415 764 486 711 c 1
 463 674 l 1
 449 670 l 1
 404 693 354 715 327 727 c 1
 299 715 252 693 205 670 c 1
 191 674 l 1
 168 711 l 1
 239 763 318 830 318 830 c 1
550 198 m 1
 557 189 l 1
 547 140 536 62 530 4 c 1
 520 -7 l 1
 411 -3 280 0 209 0 c 0
 160 0 90 -4 38 -10 c 1
 45 57 l 1
 101 65 117 84 117 143 c 2
 118 524 l 2
 118 568 112 578 86 578 c 0
 78 578 64 577 55 576 c 1
 49 585 l 1
 57 645 l 1xd6
 103 644 184 642 238 642 c 0
 382 642 481 645 542 654 c 1
 550 643 l 1
 539 592 530 516 527 462 c 1
 438 456 l 1
 439 467 440 487 440 496 c 0
 440 552 426 560 312 560 c 0
 264 560 259 557 258 526 c 2
 251 369 l 1
 271 369 316 368 345 368 c 0
 366 368 421 372 461 377 c 1
 469 368 l 1
 455 283 l 1
 420 284 361 286 324 286 c 0
 299 286 270 283 247 280 c 1
 245 137 l 2
 245 83 252 77 310 77 c 0
 436 77 454 90 468 191 c 1
 550 198 l 1
EndSplineSet
Substitution2: "'c2sc' Capitals to Small Capitals lookup 35 subtable" uni1EC5.sc
Substitution2: "'aalt' Access All Alternates lookup 0 subtable" uni1EC5.sc
Position2: "'cpsp' Capital Spacing lookup 0 subtable" dx=10 dy=0 dh=20 dv=0
EndChar

StartChar: uni0204
Encoding: 516 516 56
Width: 596
GlyphClass: 2
Flags: MW
HStem: 0 77<184.5 373> 286 82<330.5 342.5> 560 82<288 310 211 369> 578 7
VStem: 117 128<113.5 137 110 143> 440 87<462 524>
AnchorPoint: "Anchor-17" 0 0 basechar 0
AnchorPoint: "Anchor-16" 0 0 basechar 0
AnchorPoint: "Anchor-15" 299 856 basechar 0
AnchorPoint: "Anchor-14" 524 40 basechar 0
AnchorPoint: "Anchor-13" 318 0 basechar 0
LayerCount: 2
Back
SplineSet
449 685 m 1xec
 365 736 281 782 281 782 c 1
 280 794 l 1
 321 854 l 1
 333 856 l 1
 333 856 411 786 484 723 c 1
 462 690 l 1
 449 685 l 1xec
283 680 m 1
 199 732 115 777 115 777 c 1
 113 789 l 1
 155 849 l 1
 167 851 l 1
 167 851 244 781 318 718 c 1
 296 684 l 1
 283 680 l 1
550 198 m 1
 557 189 l 1
 547 140 536 62 530 4 c 1
 520 -7 l 1
 411 -3 280 0 209 0 c 0
 160 0 90 -4 38 -10 c 1
 45 57 l 1
 101 65 117 84 117 143 c 2
 118 524 l 2
 118 568 112 578 86 578 c 0
 78 578 64 577 55 576 c 1
 49 585 l 1
 57 645 l 1xdc
 103 644 184 642 238 642 c 0
 382 642 481 645 542 654 c 1
 550 643 l 1
 539 592 530 516 527 462 c 1
 438 456 l 1
 439 467 440 487 440 496 c 0
 440 552 426 560 312 560 c 0
 264 560 259 557 258 526 c 2
 251 369 l 1
 271 369 316 368 345 368 c 0
 366 368 421 372 461 377 c 1
 469 368 l 1
 455 283 l 1
 420 284 361 286 324 286 c 0
 299 286 270 283 247 280 c 1
 245 137 l 2
 245 83 252 77 310 77 c 0
 436 77 454 90 468 191 c 1
 550 198 l 1
EndSplineSet
Fore
SplineSet
449 685 m 1xec
 365 736 281 782 281 782 c 1
 280 794 l 1
 321 854 l 1
 333 856 l 1
 333 856 411 786 484 723 c 1
 462 690 l 1
 449 685 l 1xec
283 680 m 1
 199 732 115 777 115 777 c 1
 113 789 l 1
 155 849 l 1
 167 851 l 1
 167 851 244 781 318 718 c 1
 296 684 l 1
 283 680 l 1
550 198 m 1
 557 189 l 1
 547 140 536 62 530 4 c 1
 520 -7 l 1
 411 -3 280 0 209 0 c 0
 160 0 90 -4 38 -10 c 1
 45 57 l 1
 101 65 117 84 117 143 c 2
 118 524 l 2
 118 568 112 578 86 578 c 0
 78 578 64 577 55 576 c 1
 49 585 l 1
 57 645 l 1xdc
 103 644 184 642 238 642 c 0
 382 642 481 645 542 654 c 1
 550 643 l 1
 539 592 530 516 527 462 c 1
 438 456 l 1
 439 467 440 487 440 496 c 0
 440 552 426 560 312 560 c 0
 264 560 259 557 258 526 c 2
 251 369 l 1
 271 369 316 368 345 368 c 0
 366 368 421 372 461 377 c 1
 469 368 l 1
 455 283 l 1
 420 284 361 286 324 286 c 0
 299 286 270 283 247 280 c 1
 245 137 l 2
 245 83 252 77 310 77 c 0
 436 77 454 90 468 191 c 1
 550 198 l 1
EndSplineSet
Substitution2: "'c2sc' Capitals to Small Capitals lookup 35 subtable" uni0205.sc
Substitution2: "'aalt' Access All Alternates lookup 0 subtable" uni0205.sc
Position2: "'cpsp' Capital Spacing lookup 0 subtable" dx=10 dy=0 dh=20 dv=0
EndChar

StartChar: Edieresis
Encoding: 203 203 57
Width: 596
GlyphClass: 2
Flags: MW
HStem: 0 77<184.5 373> 286 82<330.5 342.5> 560 82<288 310 211 369> 578 7 701 127<212.5 244 390 422>
VStem: 117 128<113.5 137 110 143> 166 124<748.5 780.5> 344 124<748.5 780.5> 440 87<462 524>
AnchorPoint: "Anchor-17" 0 0 basechar 0
AnchorPoint: "Anchor-16" 0 0 basechar 0
AnchorPoint: "Anchor-15" 318 828 basechar 0
AnchorPoint: "Anchor-14" 524 40 basechar 0
AnchorPoint: "Anchor-13" 318 0 basechar 0
LayerCount: 2
Back
SplineSet
224 701 m 0xeb
 186 701 166 726 166 761 c 0
 166 800 193 828 232 828 c 0
 270 828 290 803 290 768 c 0
 290 729 264 701 224 701 c 0xeb
402 701 m 0
 364 701 344 726 344 761 c 0
 344 800 370 828 410 828 c 0
 447 828 468 803 468 768 c 0
 468 729 442 701 402 701 c 0
550 198 m 1
 557 189 l 1
 547 140 536 62 530 4 c 1
 520 -7 l 1
 411 -3 280 0 209 0 c 0
 160 0 90 -4 38 -10 c 1
 45 57 l 1
 101 65 117 84 117 143 c 2
 118 524 l 2
 118 568 112 578 86 578 c 0
 78 578 64 577 55 576 c 1
 49 585 l 1
 57 645 l 1xdc
 103 644 184 642 238 642 c 0
 382 642 481 645 542 654 c 1
 550 643 l 1
 539 592 530 516 527 462 c 1
 438 456 l 1
 439 467 440 487 440 496 c 0xec80
 440 552 426 560 312 560 c 0
 264 560 259 557 258 526 c 2
 251 369 l 1
 271 369 316 368 345 368 c 0
 366 368 421 372 461 377 c 1
 469 368 l 1
 455 283 l 1
 420 284 361 286 324 286 c 0
 299 286 270 283 247 280 c 1
 245 137 l 2
 245 83 252 77 310 77 c 0xed
 436 77 454 90 468 191 c 1
 550 198 l 1
EndSplineSet
Fore
SplineSet
224 701 m 0xeb
 186 701 166 726 166 761 c 0
 166 800 193 828 232 828 c 0
 270 828 290 803 290 768 c 0
 290 729 264 701 224 701 c 0xeb
402 701 m 0
 364 701 344 726 344 761 c 0
 344 800 370 828 410 828 c 0
 447 828 468 803 468 768 c 0
 468 729 442 701 402 701 c 0
550 198 m 1
 557 189 l 1
 547 140 536 62 530 4 c 1
 520 -7 l 1
 411 -3 280 0 209 0 c 0
 160 0 90 -4 38 -10 c 1
 45 57 l 1
 101 65 117 84 117 143 c 2
 118 524 l 2
 118 568 112 578 86 578 c 0
 78 578 64 577 55 576 c 1
 49 585 l 1
 57 645 l 1xdc
 103 644 184 642 238 642 c 0
 382 642 481 645 542 654 c 1
 550 643 l 1
 539 592 530 516 527 462 c 1
 438 456 l 1
 439 467 440 487 440 496 c 0xec80
 440 552 426 560 312 560 c 0
 264 560 259 557 258 526 c 2
 251 369 l 1
 271 369 316 368 345 368 c 0
 366 368 421 372 461 377 c 1
 469 368 l 1
 455 283 l 1
 420 284 361 286 324 286 c 0
 299 286 270 283 247 280 c 1
 245 137 l 2
 245 83 252 77 310 77 c 0xed
 436 77 454 90 468 191 c 1
 550 198 l 1
EndSplineSet
Substitution2: "'c2sc' Capitals to Small Capitals lookup 35 subtable" edieresis.sc
Substitution2: "'aalt' Access All Alternates lookup 0 subtable" edieresis.sc
Position2: "'cpsp' Capital Spacing lookup 0 subtable" dx=10 dy=0 dh=20 dv=0
EndChar

StartChar: Edotaccent
Encoding: 278 278 58
Width: 596
GlyphClass: 2
Flags: MW
HStem: 0 77<184.5 373> 286 82<330.5 342.5> 560 82<288 310 211 369> 578 7 696 151<299.5 337.5>
VStem: 117 128<113.5 137 110 143> 245 147<752.5 790.5> 440 87<462 524>
AnchorPoint: "Anchor-17" 0 0 basechar 0
AnchorPoint: "Anchor-16" 0 0 basechar 0
AnchorPoint: "Anchor-15" 319 847 basechar 0
AnchorPoint: "Anchor-14" 524 40 basechar 0
AnchorPoint: "Anchor-13" 318 0 basechar 0
LayerCount: 2
Back
SplineSet
314 696 m 0xea
 268 696 245 726 245 767 c 0
 245 814 276 847 323 847 c 0
 367 847 392 817 392 776 c 0
 392 729 361 696 314 696 c 0xea
550 198 m 1
 557 189 l 1
 547 140 536 62 530 4 c 1
 520 -7 l 1
 411 -3 280 0 209 0 c 0
 160 0 90 -4 38 -10 c 1
 45 57 l 1
 101 65 117 84 117 143 c 2
 118 524 l 2
 118 568 112 578 86 578 c 0
 78 578 64 577 55 576 c 1
 49 585 l 1
 57 645 l 1xd4
 103 644 184 642 238 642 c 0
 382 642 481 645 542 654 c 1
 550 643 l 1
 539 592 530 516 527 462 c 1
 438 456 l 1
 439 467 440 487 440 496 c 0
 440 552 426 560 312 560 c 0
 264 560 259 557 258 526 c 2
 251 369 l 1
 271 369 316 368 345 368 c 0
 366 368 421 372 461 377 c 1
 469 368 l 1
 455 283 l 1
 420 284 361 286 324 286 c 0
 299 286 270 283 247 280 c 1
 245 137 l 2
 245 83 252 77 310 77 c 0xe5
 436 77 454 90 468 191 c 1
 550 198 l 1
EndSplineSet
Fore
SplineSet
314 696 m 0xea
 268 696 245 726 245 767 c 0
 245 814 276 847 323 847 c 0
 367 847 392 817 392 776 c 0
 392 729 361 696 314 696 c 0xea
550 198 m 1
 557 189 l 1
 547 140 536 62 530 4 c 1
 520 -7 l 1
 411 -3 280 0 209 0 c 0
 160 0 90 -4 38 -10 c 1
 45 57 l 1
 101 65 117 84 117 143 c 2
 118 524 l 2
 118 568 112 578 86 578 c 0
 78 578 64 577 55 576 c 1
 49 585 l 1
 57 645 l 1xd4
 103 644 184 642 238 642 c 0
 382 642 481 645 542 654 c 1
 550 643 l 1
 539 592 530 516 527 462 c 1
 438 456 l 1
 439 467 440 487 440 496 c 0
 440 552 426 560 312 560 c 0
 264 560 259 557 258 526 c 2
 251 369 l 1
 271 369 316 368 345 368 c 0
 366 368 421 372 461 377 c 1
 469 368 l 1
 455 283 l 1
 420 284 361 286 324 286 c 0
 299 286 270 283 247 280 c 1
 245 137 l 2
 245 83 252 77 310 77 c 0xe5
 436 77 454 90 468 191 c 1
 550 198 l 1
EndSplineSet
Substitution2: "'c2sc' Capitals to Small Capitals lookup 35 subtable" edotaccent.sc
Substitution2: "'aalt' Access All Alternates lookup 0 subtable" edotaccent.sc
Position2: "'cpsp' Capital Spacing lookup 0 subtable" dx=10 dy=0 dh=20 dv=0
EndChar

StartChar: uni1EB8
Encoding: 7864 7864 59
Width: 596
GlyphClass: 2
Flags: MW
HStem: -210 155<285.5 327.5> 0 77<184.5 373> 286 82<330.5 342.5> 560 82<288 310 211 369> 578 7
VStem: 117 128<113.5 137 110 143> 230 153<-153 -112> 440 87<462 524>
AnchorPoint: "Anchor-17" 0 0 basechar 0
AnchorPoint: "Anchor-16" 0 0 basechar 0
AnchorPoint: "Anchor-15" 326 647 basechar 0
AnchorPoint: "Anchor-14" 524 40 basechar 0
AnchorPoint: "Anchor-13" 307 -210 basechar 0
LayerCount: 2
Back
SplineSet
550 198 m 1x75
 557 189 l 1
 547 140 536 62 530 4 c 1
 520 -7 l 1
 411 -3 280 0 209 0 c 0
 160 0 90 -4 38 -10 c 1
 45 57 l 1
 101 65 117 84 117 143 c 2
 118 524 l 2
 118 568 112 578 86 578 c 0
 78 578 64 577 55 576 c 1
 49 585 l 1
 57 645 l 1x6d
 103 644 184 642 238 642 c 0
 382 642 481 645 542 654 c 1
 550 643 l 1
 539 592 530 516 527 462 c 1
 438 456 l 1
 439 467 440 487 440 496 c 0
 440 552 426 560 312 560 c 0
 264 560 259 557 258 526 c 2
 251 369 l 1
 271 369 316 368 345 368 c 0
 366 368 421 372 461 377 c 1
 469 368 l 1
 455 283 l 1
 420 284 361 286 324 286 c 0
 299 286 270 283 247 280 c 1
 245 137 l 2
 245 83 252 77 310 77 c 0
 436 77 454 90 468 191 c 1
 550 198 l 1x75
310 -55 m 0xf3
 357 -55 383 -85 383 -129 c 0
 383 -177 352 -210 303 -210 c 0
 255 -210 230 -179 230 -136 c 0
 230 -88 261 -55 310 -55 c 0xf3
EndSplineSet
Fore
SplineSet
550 198 m 1x75
 557 189 l 1
 547 140 536 62 530 4 c 1
 520 -7 l 1
 411 -3 280 0 209 0 c 0
 160 0 90 -4 38 -10 c 1
 45 57 l 1
 101 65 117 84 117 143 c 2
 118 524 l 2
 118 568 112 578 86 578 c 0
 78 578 64 577 55 576 c 1
 49 585 l 1
 57 645 l 1x6d
 103 644 184 642 238 642 c 0
 382 642 481 645 542 654 c 1
 550 643 l 1
 539 592 530 516 527 462 c 1
 438 456 l 1
 439 467 440 487 440 496 c 0
 440 552 426 560 312 560 c 0
 264 560 259 557 258 526 c 2
 251 369 l 1
 271 369 316 368 345 368 c 0
 366 368 421 372 461 377 c 1
 469 368 l 1
 455 283 l 1
 420 284 361 286 324 286 c 0
 299 286 270 283 247 280 c 1
 245 137 l 2
 245 83 252 77 310 77 c 0
 436 77 454 90 468 191 c 1
 550 198 l 1x75
310 -55 m 0xf3
 357 -55 383 -85 383 -129 c 0
 383 -177 352 -210 303 -210 c 0
 255 -210 230 -179 230 -136 c 0
 230 -88 261 -55 310 -55 c 0xf3
EndSplineSet
Substitution2: "'c2sc' Capitals to Small Capitals lookup 35 subtable" uni1EB9.sc
Substitution2: "'aalt' Access All Alternates lookup 0 subtable" uni1EB9.sc
Position2: "'cpsp' Capital Spacing lookup 0 subtable" dx=10 dy=0 dh=20 dv=0
EndChar

StartChar: Egrave
Encoding: 200 200 60
Width: 596
GlyphClass: 2
Flags: MW
HStem: 0 77<184.5 373> 286 82<330.5 342.5> 560 82<288 310 211 369> 578 7
VStem: 117 128<113.5 137 110 143> 440 87<462 524>
AnchorPoint: "Anchor-17" 0 0 basechar 0
AnchorPoint: "Anchor-16" 0 0 basechar 0
AnchorPoint: "Anchor-15" 280 856 basechar 0
AnchorPoint: "Anchor-14" 524 40 basechar 0
AnchorPoint: "Anchor-13" 318 0 basechar 0
LayerCount: 2
Back
SplineSet
384 698 m 1xec
 270 734 156 763 156 763 c 1
 151 776 l 1
 176 851 l 1
 188 856 l 1
 188 856 302 799 409 751 c 1
 397 706 l 1
 384 698 l 1xec
550 198 m 1
 557 189 l 1
 547 140 536 62 530 4 c 1
 520 -7 l 1
 411 -3 280 0 209 0 c 0
 160 0 90 -4 38 -10 c 1
 45 57 l 1
 101 65 117 84 117 143 c 2
 118 524 l 2
 118 568 112 578 86 578 c 0
 78 578 64 577 55 576 c 1
 49 585 l 1
 57 645 l 1xdc
 103 644 184 642 238 642 c 0
 382 642 481 645 542 654 c 1
 550 643 l 1
 539 592 530 516 527 462 c 1
 438 456 l 1
 439 467 440 487 440 496 c 0
 440 552 426 560 312 560 c 0
 264 560 259 557 258 526 c 2
 251 369 l 1
 271 369 316 368 345 368 c 0
 366 368 421 372 461 377 c 1
 469 368 l 1
 455 283 l 1
 420 284 361 286 324 286 c 0
 299 286 270 283 247 280 c 1
 245 137 l 2
 245 83 252 77 310 77 c 0
 436 77 454 90 468 191 c 1
 550 198 l 1
EndSplineSet
Fore
SplineSet
384 698 m 1xec
 270 734 156 763 156 763 c 1
 151 776 l 1
 176 851 l 1
 188 856 l 1
 188 856 302 799 409 751 c 1
 397 706 l 1
 384 698 l 1xec
550 198 m 1
 557 189 l 1
 547 140 536 62 530 4 c 1
 520 -7 l 1
 411 -3 280 0 209 0 c 0
 160 0 90 -4 38 -10 c 1
 45 57 l 1
 101 65 117 84 117 143 c 2
 118 524 l 2
 118 568 112 578 86 578 c 0
 78 578 64 577 55 576 c 1
 49 585 l 1
 57 645 l 1xdc
 103 644 184 642 238 642 c 0
 382 642 481 645 542 654 c 1
 550 643 l 1
 539 592 530 516 527 462 c 1
 438 456 l 1
 439 467 440 487 440 496 c 0
 440 552 426 560 312 560 c 0
 264 560 259 557 258 526 c 2
 251 369 l 1
 271 369 316 368 345 368 c 0
 366 368 421 372 461 377 c 1
 469 368 l 1
 455 283 l 1
 420 284 361 286 324 286 c 0
 299 286 270 283 247 280 c 1
 245 137 l 2
 245 83 252 77 310 77 c 0
 436 77 454 90 468 191 c 1
 550 198 l 1
EndSplineSet
Substitution2: "'c2sc' Capitals to Small Capitals lookup 35 subtable" egrave.sc
Substitution2: "'aalt' Access All Alternates lookup 0 subtable" egrave.sc
Position2: "'cpsp' Capital Spacing lookup 0 subtable" dx=10 dy=0 dh=20 dv=0
EndChar

StartChar: uni1EBA
Encoding: 7866 7866 61
Width: 596
GlyphClass: 2
Flags: MW
HStem: 0 77<184.5 373> 286 82<330.5 342.5> 560 82<288 310 211 369> 578 7 848 67<302 303>
VStem: 117 128<113.5 137 110 143> 329 79<826 828> 440 87<462 524>
AnchorPoint: "Anchor-17" 0 0 basechar 0
AnchorPoint: "Anchor-16" 0 0 basechar 0
AnchorPoint: "Anchor-15" 310 915 basechar 0
AnchorPoint: "Anchor-14" 524 40 basechar 0
AnchorPoint: "Anchor-13" 318 0 basechar 0
LayerCount: 2
Back
SplineSet
291 848 m 0xef
 261 848 229 825 229 825 c 1
 211 853 l 1
 211 853 258 900 302 915 c 1
 367 915 408 887 408 839 c 0
 408 813 389 784 345 749 c 1
 371 709 l 1
 318 680 l 1
 274 750 l 1
 314 778 329 798 329 819 c 0
 329 837 315 848 291 848 c 0xef
550 198 m 1
 557 189 l 1
 547 140 536 62 530 4 c 1
 520 -7 l 1
 411 -3 280 0 209 0 c 0
 160 0 90 -4 38 -10 c 1
 45 57 l 1
 101 65 117 84 117 143 c 2
 118 524 l 2
 118 568 112 578 86 578 c 0
 78 578 64 577 55 576 c 1
 49 585 l 1
 57 645 l 1xdf
 103 644 184 642 238 642 c 0
 382 642 481 645 542 654 c 1
 550 643 l 1
 539 592 530 516 527 462 c 1
 438 456 l 1
 439 467 440 487 440 496 c 0
 440 552 426 560 312 560 c 0
 264 560 259 557 258 526 c 2
 251 369 l 1
 271 369 316 368 345 368 c 0
 366 368 421 372 461 377 c 1
 469 368 l 1
 455 283 l 1
 420 284 361 286 324 286 c 0
 299 286 270 283 247 280 c 1
 245 137 l 2
 245 83 252 77 310 77 c 0
 436 77 454 90 468 191 c 1
 550 198 l 1
EndSplineSet
Fore
SplineSet
291 848 m 0xef
 261 848 229 825 229 825 c 1
 211 853 l 1
 211 853 258 900 302 915 c 1
 367 915 408 887 408 839 c 0
 408 813 389 784 345 749 c 1
 371 709 l 1
 318 680 l 1
 274 750 l 1
 314 778 329 798 329 819 c 0
 329 837 315 848 291 848 c 0xef
550 198 m 1
 557 189 l 1
 547 140 536 62 530 4 c 1
 520 -7 l 1
 411 -3 280 0 209 0 c 0
 160 0 90 -4 38 -10 c 1
 45 57 l 1
 101 65 117 84 117 143 c 2
 118 524 l 2
 118 568 112 578 86 578 c 0
 78 578 64 577 55 576 c 1
 49 585 l 1
 57 645 l 1xdf
 103 644 184 642 238 642 c 0
 382 642 481 645 542 654 c 1
 550 643 l 1
 539 592 530 516 527 462 c 1
 438 456 l 1
 439 467 440 487 440 496 c 0
 440 552 426 560 312 560 c 0
 264 560 259 557 258 526 c 2
 251 369 l 1
 271 369 316 368 345 368 c 0
 366 368 421 372 461 377 c 1
 469 368 l 1
 455 283 l 1
 420 284 361 286 324 286 c 0
 299 286 270 283 247 280 c 1
 245 137 l 2
 245 83 252 77 310 77 c 0
 436 77 454 90 468 191 c 1
 550 198 l 1
EndSplineSet
Substitution2: "'c2sc' Capitals to Small Capitals lookup 35 subtable" uni1EBB.sc
Substitution2: "'aalt' Access All Alternates lookup 0 subtable" uni1EBB.sc
Position2: "'cpsp' Capital Spacing lookup 0 subtable" dx=10 dy=0 dh=20 dv=0
EndChar

StartChar: uni0206
Encoding: 518 518 62
Width: 596
GlyphClass: 2
Flags: MW
HStem: 0 77<184.5 373> 286 82<330.5 342.5> 560 82<288 310 211 369> 578 7 781 93<303.5 348.5>
VStem: 117 128<113.5 137 110 143> 440 87<462 524>
AnchorPoint: "Anchor-17" 0 0 basechar 0
AnchorPoint: "Anchor-16" 0 0 basechar 0
AnchorPoint: "Anchor-15" 326 874 basechar 0
AnchorPoint: "Anchor-14" 524 40 basechar 0
AnchorPoint: "Anchor-13" 318 0 basechar 0
LayerCount: 2
Back
SplineSet
223 714 m 1xee
 207 717 l 1
 180 750 l 1
 197 812 242 874 326 874 c 0
 410 874 455 812 472 750 c 1
 445 717 l 1
 429 714 l 1
 410 759 371 781 326 781 c 0
 281 781 241 759 223 714 c 1xee
550 198 m 1
 557 189 l 1
 547 140 536 62 530 4 c 1
 520 -7 l 1
 411 -3 280 0 209 0 c 0
 160 0 90 -4 38 -10 c 1
 45 57 l 1
 101 65 117 84 117 143 c 2
 118 524 l 2
 118 568 112 578 86 578 c 0
 78 578 64 577 55 576 c 1
 49 585 l 1
 57 645 l 1xde
 103 644 184 642 238 642 c 0
 382 642 481 645 542 654 c 1
 550 643 l 1
 539 592 530 516 527 462 c 1
 438 456 l 1
 439 467 440 487 440 496 c 0
 440 552 426 560 312 560 c 0
 264 560 259 557 258 526 c 2
 251 369 l 1
 271 369 316 368 345 368 c 0
 366 368 421 372 461 377 c 1
 469 368 l 1
 455 283 l 1
 420 284 361 286 324 286 c 0
 299 286 270 283 247 280 c 1
 245 137 l 2
 245 83 252 77 310 77 c 0
 436 77 454 90 468 191 c 1
 550 198 l 1
EndSplineSet
Fore
SplineSet
223 714 m 1xee
 207 717 l 1
 180 750 l 1
 197 812 242 874 326 874 c 0
 410 874 455 812 472 750 c 1
 445 717 l 1
 429 714 l 1
 410 759 371 781 326 781 c 0
 281 781 241 759 223 714 c 1xee
550 198 m 1
 557 189 l 1
 547 140 536 62 530 4 c 1
 520 -7 l 1
 411 -3 280 0 209 0 c 0
 160 0 90 -4 38 -10 c 1
 45 57 l 1
 101 65 117 84 117 143 c 2
 118 524 l 2
 118 568 112 578 86 578 c 0
 78 578 64 577 55 576 c 1
 49 585 l 1
 57 645 l 1xde
 103 644 184 642 238 642 c 0
 382 642 481 645 542 654 c 1
 550 643 l 1
 539 592 530 516 527 462 c 1
 438 456 l 1
 439 467 440 487 440 496 c 0
 440 552 426 560 312 560 c 0
 264 560 259 557 258 526 c 2
 251 369 l 1
 271 369 316 368 345 368 c 0
 366 368 421 372 461 377 c 1
 469 368 l 1
 455 283 l 1
 420 284 361 286 324 286 c 0
 299 286 270 283 247 280 c 1
 245 137 l 2
 245 83 252 77 310 77 c 0
 436 77 454 90 468 191 c 1
 550 198 l 1
EndSplineSet
Substitution2: "'c2sc' Capitals to Small Capitals lookup 35 subtable" uni0207.sc
Substitution2: "'aalt' Access All Alternates lookup 0 subtable" uni0207.sc
Position2: "'cpsp' Capital Spacing lookup 0 subtable" dx=10 dy=0 dh=20 dv=0
EndChar

StartChar: Emacron
Encoding: 274 274 63
Width: 596
GlyphClass: 2
Flags: MW
HStem: 0 77<184.5 373> 286 82<330.5 342.5> 560 82<288 310 211 369> 578 7 709 83<306.5 318> 785 13<462 471>
VStem: 117 128<113.5 137 110 143> 440 87<462 524>
AnchorPoint: "Anchor-17" 0 0 basechar 0
AnchorPoint: "Anchor-16" 0 0 basechar 0
AnchorPoint: "Anchor-15" 319 780 basechar 0
AnchorPoint: "Anchor-14" 524 40 basechar 0
AnchorPoint: "Anchor-13" 318 0 basechar 0
LayerCount: 2
Back
SplineSet
318 709 m 2xea
 259 709 178 708 178 708 c 1
 168 719 l 1
 182 793 l 1
 182 793 277 792 336 792 c 0
 386 792 462 798 462 798 c 1xea
 471 785 l 1xe6
 459 710 l 1
 318 709 l 2xea
550 198 m 1
 557 189 l 1
 547 140 536 62 530 4 c 1
 520 -7 l 1
 411 -3 280 0 209 0 c 0
 160 0 90 -4 38 -10 c 1
 45 57 l 1
 101 65 117 84 117 143 c 2
 118 524 l 2
 118 568 112 578 86 578 c 0
 78 578 64 577 55 576 c 1
 49 585 l 1
 57 645 l 1xda
 103 644 184 642 238 642 c 0
 382 642 481 645 542 654 c 1
 550 643 l 1
 539 592 530 516 527 462 c 1
 438 456 l 1
 439 467 440 487 440 496 c 0xeb
 440 552 426 560 312 560 c 0
 264 560 259 557 258 526 c 2
 251 369 l 1
 271 369 316 368 345 368 c 0
 366 368 421 372 461 377 c 1
 469 368 l 1
 455 283 l 1
 420 284 361 286 324 286 c 0
 299 286 270 283 247 280 c 1
 245 137 l 2
 245 83 252 77 310 77 c 0
 436 77 454 90 468 191 c 1
 550 198 l 1
EndSplineSet
Fore
SplineSet
318 709 m 2xea
 259 709 178 708 178 708 c 1
 168 719 l 1
 182 793 l 1
 182 793 277 792 336 792 c 0
 386 792 462 798 462 798 c 1xea
 471 785 l 1xe6
 459 710 l 1
 318 709 l 2xea
550 198 m 1
 557 189 l 1
 547 140 536 62 530 4 c 1
 520 -7 l 1
 411 -3 280 0 209 0 c 0
 160 0 90 -4 38 -10 c 1
 45 57 l 1
 101 65 117 84 117 143 c 2
 118 524 l 2
 118 568 112 578 86 578 c 0
 78 578 64 577 55 576 c 1
 49 585 l 1
 57 645 l 1xda
 103 644 184 642 238 642 c 0
 382 642 481 645 542 654 c 1
 550 643 l 1
 539 592 530 516 527 462 c 1
 438 456 l 1
 439 467 440 487 440 496 c 0xeb
 440 552 426 560 312 560 c 0
 264 560 259 557 258 526 c 2
 251 369 l 1
 271 369 316 368 345 368 c 0
 366 368 421 372 461 377 c 1
 469 368 l 1
 455 283 l 1
 420 284 361 286 324 286 c 0
 299 286 270 283 247 280 c 1
 245 137 l 2
 245 83 252 77 310 77 c 0
 436 77 454 90 468 191 c 1
 550 198 l 1
EndSplineSet
Substitution2: "'c2sc' Capitals to Small Capitals lookup 35 subtable" emacron.sc
Substitution2: "'aalt' Access All Alternates lookup 0 subtable" emacron.sc
Position2: "'cpsp' Capital Spacing lookup 0 subtable" dx=10 dy=0 dh=20 dv=0
EndChar

StartChar: uni1E16
Encoding: 7702 7702 64
Width: 596
GlyphClass: 2
Flags: MW
HStem: 0 77<184.5 373> 286 82<330.5 342.5> 560 82<288 310 211 369> 578 7 710 84<312.5 324>
VStem: 117 128<113.5 137 110 143> 440 87<462 524>
AnchorPoint: "Anchor-17" 0 0 basechar 0
AnchorPoint: "Anchor-16" 0 0 basechar 0
AnchorPoint: "Anchor-15" 326 983 basechar 0
AnchorPoint: "Anchor-14" 524 40 basechar 0
AnchorPoint: "Anchor-13" 318 0 basechar 0
LayerCount: 2
Back
SplineSet
221 828 m 1xee
 208 837 l 1
 195 882 l 1
 302 930 417 987 417 987 c 1
 429 982 l 1
 454 907 l 1
 448 894 l 1
 448 894 334 864 221 828 c 1xee
324 710 m 2
 265 710 185 709 185 709 c 1
 174 721 l 1
 188 795 l 1
 188 795 283 794 342 794 c 0
 392 794 469 800 469 800 c 1
 477 786 l 1
 465 711 l 1
 324 710 l 2
550 198 m 1
 557 189 l 1
 547 140 536 62 530 4 c 1
 520 -7 l 1
 411 -3 280 0 209 0 c 0
 160 0 90 -4 38 -10 c 1
 45 57 l 1
 101 65 117 84 117 143 c 2
 118 524 l 2
 118 568 112 578 86 578 c 0
 78 578 64 577 55 576 c 1
 49 585 l 1
 57 645 l 1xde
 103 644 184 642 238 642 c 0
 382 642 481 645 542 654 c 1
 550 643 l 1
 539 592 530 516 527 462 c 1
 438 456 l 1
 439 467 440 487 440 496 c 0
 440 552 426 560 312 560 c 0
 264 560 259 557 258 526 c 2
 251 369 l 1
 271 369 316 368 345 368 c 0
 366 368 421 372 461 377 c 1
 469 368 l 1
 455 283 l 1
 420 284 361 286 324 286 c 0
 299 286 270 283 247 280 c 1
 245 137 l 2
 245 83 252 77 310 77 c 0
 436 77 454 90 468 191 c 1
 550 198 l 1
EndSplineSet
Fore
SplineSet
221 828 m 1xee
 208 837 l 1
 195 882 l 1
 302 930 417 987 417 987 c 1
 429 982 l 1
 454 907 l 1
 448 894 l 1
 448 894 334 864 221 828 c 1xee
324 710 m 2
 265 710 185 709 185 709 c 1
 174 721 l 1
 188 795 l 1
 188 795 283 794 342 794 c 0
 392 794 469 800 469 800 c 1
 477 786 l 1
 465 711 l 1
 324 710 l 2
550 198 m 1
 557 189 l 1
 547 140 536 62 530 4 c 1
 520 -7 l 1
 411 -3 280 0 209 0 c 0
 160 0 90 -4 38 -10 c 1
 45 57 l 1
 101 65 117 84 117 143 c 2
 118 524 l 2
 118 568 112 578 86 578 c 0
 78 578 64 577 55 576 c 1
 49 585 l 1
 57 645 l 1xde
 103 644 184 642 238 642 c 0
 382 642 481 645 542 654 c 1
 550 643 l 1
 539 592 530 516 527 462 c 1
 438 456 l 1
 439 467 440 487 440 496 c 0
 440 552 426 560 312 560 c 0
 264 560 259 557 258 526 c 2
 251 369 l 1
 271 369 316 368 345 368 c 0
 366 368 421 372 461 377 c 1
 469 368 l 1
 455 283 l 1
 420 284 361 286 324 286 c 0
 299 286 270 283 247 280 c 1
 245 137 l 2
 245 83 252 77 310 77 c 0
 436 77 454 90 468 191 c 1
 550 198 l 1
EndSplineSet
Substitution2: "'c2sc' Capitals to Small Capitals lookup 35 subtable" uni1E17.sc
Substitution2: "'aalt' Access All Alternates lookup 0 subtable" uni1E17.sc
Position2: "'cpsp' Capital Spacing lookup 0 subtable" dx=10 dy=0 dh=20 dv=0
EndChar

StartChar: uni1E14
Encoding: 7700 7700 65
Width: 596
GlyphClass: 2
Flags: MW
HStem: 0 77<184.5 373> 286 82<330.5 342.5> 560 82<288 310 211 369> 578 7 710 84<311.5 323>
VStem: 117 128<113.5 137 110 143> 440 87<462 524>
AnchorPoint: "Anchor-17" 0 0 basechar 0
AnchorPoint: "Anchor-16" 0 0 basechar 0
AnchorPoint: "Anchor-15" 326 983 basechar 0
AnchorPoint: "Anchor-14" 524 40 basechar 0
AnchorPoint: "Anchor-13" 318 0 basechar 0
LayerCount: 2
Back
SplineSet
436 828 m 1xee
 323 864 209 894 209 894 c 1
 203 907 l 1
 228 982 l 1
 240 987 l 1
 240 987 355 930 462 882 c 1
 449 837 l 1
 436 828 l 1xee
323 710 m 2
 264 710 184 709 184 709 c 1
 173 721 l 1
 187 795 l 1
 187 795 282 794 341 794 c 0
 391 794 468 800 468 800 c 1
 476 786 l 1
 464 711 l 1
 323 710 l 2
550 198 m 1
 557 189 l 1
 547 140 536 62 530 4 c 1
 520 -7 l 1
 411 -3 280 0 209 0 c 0
 160 0 90 -4 38 -10 c 1
 45 57 l 1
 101 65 117 84 117 143 c 2
 118 524 l 2
 118 568 112 578 86 578 c 0
 78 578 64 577 55 576 c 1
 49 585 l 1
 57 645 l 1xde
 103 644 184 642 238 642 c 0
 382 642 481 645 542 654 c 1
 550 643 l 1
 539 592 530 516 527 462 c 1
 438 456 l 1
 439 467 440 487 440 496 c 0
 440 552 426 560 312 560 c 0
 264 560 259 557 258 526 c 2
 251 369 l 1
 271 369 316 368 345 368 c 0
 366 368 421 372 461 377 c 1
 469 368 l 1
 455 283 l 1
 420 284 361 286 324 286 c 0
 299 286 270 283 247 280 c 1
 245 137 l 2
 245 83 252 77 310 77 c 0
 436 77 454 90 468 191 c 1
 550 198 l 1
EndSplineSet
Fore
SplineSet
436 828 m 1xee
 323 864 209 894 209 894 c 1
 203 907 l 1
 228 982 l 1
 240 987 l 1
 240 987 355 930 462 882 c 1
 449 837 l 1
 436 828 l 1xee
323 710 m 2
 264 710 184 709 184 709 c 1
 173 721 l 1
 187 795 l 1
 187 795 282 794 341 794 c 0
 391 794 468 800 468 800 c 1
 476 786 l 1
 464 711 l 1
 323 710 l 2
550 198 m 1
 557 189 l 1
 547 140 536 62 530 4 c 1
 520 -7 l 1
 411 -3 280 0 209 0 c 0
 160 0 90 -4 38 -10 c 1
 45 57 l 1
 101 65 117 84 117 143 c 2
 118 524 l 2
 118 568 112 578 86 578 c 0
 78 578 64 577 55 576 c 1
 49 585 l 1
 57 645 l 1xde
 103 644 184 642 238 642 c 0
 382 642 481 645 542 654 c 1
 550 643 l 1
 539 592 530 516 527 462 c 1
 438 456 l 1
 439 467 440 487 440 496 c 0
 440 552 426 560 312 560 c 0
 264 560 259 557 258 526 c 2
 251 369 l 1
 271 369 316 368 345 368 c 0
 366 368 421 372 461 377 c 1
 469 368 l 1
 455 283 l 1
 420 284 361 286 324 286 c 0
 299 286 270 283 247 280 c 1
 245 137 l 2
 245 83 252 77 310 77 c 0
 436 77 454 90 468 191 c 1
 550 198 l 1
EndSplineSet
Substitution2: "'c2sc' Capitals to Small Capitals lookup 35 subtable" uni1E15.sc
Substitution2: "'aalt' Access All Alternates lookup 0 subtable" uni1E15.sc
Position2: "'cpsp' Capital Spacing lookup 0 subtable" dx=10 dy=0 dh=20 dv=0
EndChar

StartChar: Eogonek
Encoding: 280 280 66
Width: 596
GlyphClass: 2
Flags: MW
HStem: -241 79<406 465.5> -6 200.5 0 77<184.5 373> 286 82<330.5 342.5> 560 82<288 310 211 369> 578 7
VStem: 117 128<113.5 137 110 143> 323 91<-133.5 -126.5> 440 87<462 524>
AnchorPoint: "Anchor-17" 0 0 basechar 0
AnchorPoint: "Anchor-16" 0 0 basechar 0
AnchorPoint: "Anchor-15" 326 647 basechar 0
AnchorPoint: "Anchor-14" 524 40 basechar 0
AnchorPoint: "Anchor-13" 318 0 basechar 0
LayerCount: 2
Back
SplineSet
456 -162 m 0xbb
 475 -162 503 -153 524 -139 c 1
 546 -173 l 1
 510 -209 471 -234 441 -241 c 1
 371 -241 323 -202 323 -145 c 0
 323 -108 337 -83 409 -3 c 1
 332 -1 257 0 209 0 c 0
 160 0 90 -4 38 -10 c 1
 45 57 l 1
 101 65 117 84 117 143 c 2
 118 524 l 2
 118 568 112 578 86 578 c 0
 78 578 64 577 55 576 c 1
 49 585 l 1
 57 645 l 1xb7
 103 644 184 642 238 642 c 0
 382 642 481 645 542 654 c 1
 550 643 l 1
 539 592 530 516 527 462 c 1
 438 456 l 1
 439 467 440 487 440 496 c 0
 440 552 426 560 312 560 c 0
 264 560 259 557 258 526 c 2
 251 369 l 1
 271 369 316 368 345 368 c 0
 366 368 421 372 461 377 c 1
 469 368 l 1
 455 283 l 1
 420 284 361 286 324 286 c 0
 299 286 270 283 247 280 c 1
 245 137 l 2
 245 83 252 77 310 77 c 0xbb80
 436 77 454 90 468 191 c 1
 550 198 l 1
 557 189 l 1
 547 140 536 62 530 4 c 1
 520 -7 l 1
 505 -6 489 -6 474 -5 c 1xdb
 427 -67 414 -95 414 -121 c 0
 414 -146 430 -162 456 -162 c 0xbb
EndSplineSet
Fore
SplineSet
456 -162 m 0xbb
 475 -162 503 -153 524 -139 c 1
 546 -173 l 1
 510 -209 471 -234 441 -241 c 1
 371 -241 323 -202 323 -145 c 0
 323 -108 337 -83 409 -3 c 1
 332 -1 257 0 209 0 c 0
 160 0 90 -4 38 -10 c 1
 45 57 l 1
 101 65 117 84 117 143 c 2
 118 524 l 2
 118 568 112 578 86 578 c 0
 78 578 64 577 55 576 c 1
 49 585 l 1
 57 645 l 1xb7
 103 644 184 642 238 642 c 0
 382 642 481 645 542 654 c 1
 550 643 l 1
 539 592 530 516 527 462 c 1
 438 456 l 1
 439 467 440 487 440 496 c 0
 440 552 426 560 312 560 c 0
 264 560 259 557 258 526 c 2
 251 369 l 1
 271 369 316 368 345 368 c 0
 366 368 421 372 461 377 c 1
 469 368 l 1
 455 283 l 1
 420 284 361 286 324 286 c 0
 299 286 270 283 247 280 c 1
 245 137 l 2
 245 83 252 77 310 77 c 0xbb80
 436 77 454 90 468 191 c 1
 550 198 l 1
 557 189 l 1
 547 140 536 62 530 4 c 1
 520 -7 l 1
 505 -6 489 -6 474 -5 c 1xdb
 427 -67 414 -95 414 -121 c 0
 414 -146 430 -162 456 -162 c 0xbb
EndSplineSet
Substitution2: "'c2sc' Capitals to Small Capitals lookup 35 subtable" eogonek.sc
Substitution2: "'aalt' Access All Alternates lookup 0 subtable" eogonek.sc
Position2: "'cpsp' Capital Spacing lookup 0 subtable" dx=10 dy=0 dh=20 dv=0
EndChar

StartChar: uni1EBC
Encoding: 7868 7868 67
Width: 596
GlyphClass: 2
Flags: MW
HStem: 0 77<184.5 373> 286 82<330.5 342.5> 560 82<288 310 211 369> 578 7 706 94<386 395.5 369.5 403> 739 94<241.5 251 234 268.5>
VStem: 117 128<113.5 137 110 143> 440 87<462 524>
AnchorPoint: "Anchor-17" 0 0 basechar 0
AnchorPoint: "Anchor-16" 0 0 basechar 0
AnchorPoint: "Anchor-15" 319 833 basechar 0
AnchorPoint: "Anchor-14" 524 40 basechar 0
AnchorPoint: "Anchor-13" 318 0 basechar 0
LayerCount: 2
Back
SplineSet
189 688 m 1xe6
 178 688 l 1
 140 724 l 1
 140 734 l 1
 218 829 l 1
 234 833 l 1xe7
 268 833 355 800 384 800 c 0
 407 800 449 851 449 851 c 1
 459 851 l 1
 498 815 l 1
 498 805 l 1
 420 710 l 1
 403 706 l 1xea
 369 706 283 739 254 739 c 0
 229 739 189 688 189 688 c 1xe6
550 198 m 1
 557 189 l 1
 547 140 536 62 530 4 c 1
 520 -7 l 1
 411 -3 280 0 209 0 c 0
 160 0 90 -4 38 -10 c 1
 45 57 l 1
 101 65 117 84 117 143 c 2
 118 524 l 2
 118 568 112 578 86 578 c 0
 78 578 64 577 55 576 c 1
 49 585 l 1
 57 645 l 1xd6
 103 644 184 642 238 642 c 0
 382 642 481 645 542 654 c 1
 550 643 l 1
 539 592 530 516 527 462 c 1
 438 456 l 1
 439 467 440 487 440 496 c 0
 440 552 426 560 312 560 c 0
 264 560 259 557 258 526 c 2
 251 369 l 1
 271 369 316 368 345 368 c 0
 366 368 421 372 461 377 c 1
 469 368 l 1
 455 283 l 1
 420 284 361 286 324 286 c 0
 299 286 270 283 247 280 c 1
 245 137 l 2
 245 83 252 77 310 77 c 0
 436 77 454 90 468 191 c 1
 550 198 l 1
EndSplineSet
Fore
SplineSet
189 688 m 1xe6
 178 688 l 1
 140 724 l 1
 140 734 l 1
 218 829 l 1
 234 833 l 1xe7
 268 833 355 800 384 800 c 0
 407 800 449 851 449 851 c 1
 459 851 l 1
 498 815 l 1
 498 805 l 1
 420 710 l 1
 403 706 l 1xea
 369 706 283 739 254 739 c 0
 229 739 189 688 189 688 c 1xe6
550 198 m 1
 557 189 l 1
 547 140 536 62 530 4 c 1
 520 -7 l 1
 411 -3 280 0 209 0 c 0
 160 0 90 -4 38 -10 c 1
 45 57 l 1
 101 65 117 84 117 143 c 2
 118 524 l 2
 118 568 112 578 86 578 c 0
 78 578 64 577 55 576 c 1
 49 585 l 1
 57 645 l 1xd6
 103 644 184 642 238 642 c 0
 382 642 481 645 542 654 c 1
 550 643 l 1
 539 592 530 516 527 462 c 1
 438 456 l 1
 439 467 440 487 440 496 c 0
 440 552 426 560 312 560 c 0
 264 560 259 557 258 526 c 2
 251 369 l 1
 271 369 316 368 345 368 c 0
 366 368 421 372 461 377 c 1
 469 368 l 1
 455 283 l 1
 420 284 361 286 324 286 c 0
 299 286 270 283 247 280 c 1
 245 137 l 2
 245 83 252 77 310 77 c 0
 436 77 454 90 468 191 c 1
 550 198 l 1
EndSplineSet
Ligature2: "'liga' Standard Ligatures lookup 39 subtable" tilde E
Ligature2: "'liga' Standard Ligatures lookup 39 subtable" tildecomb E
Ligature2: "'liga' Standard Ligatures lookup 39 subtable" asciitilde E
Substitution2: "'c2sc' Capitals to Small Capitals lookup 35 subtable" uni1EBD.sc
Substitution2: "'aalt' Access All Alternates lookup 0 subtable" uni1EBD.sc
Position2: "'cpsp' Capital Spacing lookup 0 subtable" dx=10 dy=0 dh=20 dv=0
EndChar

StartChar: uni01B7
Encoding: 439 439 68
Width: 566
GlyphClass: 2
Flags: MW
HStem: -12 88<221 298 221 326.5> 540 102<255 381> 588 54 632 20G<86 86>
VStem: 63 85 76 73 378 152<147.5 223>
AnchorPoint: "Anchor-17" 0 0 basechar 0
AnchorPoint: "Anchor-16" 0 0 basechar 0
AnchorPoint: "Anchor-15" 298 642 basechar 0
AnchorPoint: "Anchor-14" 0 0 basechar 0
AnchorPoint: "Anchor-13" 281 0 basechar 0
LayerCount: 2
Back
SplineSet
326 364 m 1xca
 462 350 530 292 530 192 c 0
 530 64 417 -12 236 -12 c 0
 183 -12 121 -6 67 6 c 1
 59 16 l 1
 62 42 63 64 63 94 c 0
 63 118 62 146 61 187 c 1
 72 197 l 1
 148 202 l 1xca
 147 114 182 76 260 76 c 0
 336 76 378 112 378 183 c 0
 378 263 330 293 217 289 c 1
 209 298 l 1
 214 349 l 1
 381 540 l 1
 230 540 l 2
 171 540 158 525 149 446 c 1
 61 441 l 1xc6
 68 484 74 558 76 642 c 1
 86 652 l 1x96
 255 642 l 1
 505 642 l 1xca
 523 588 l 1xaa
 326 364 l 1xca
EndSplineSet
Fore
SplineSet
326 364 m 1xca
 462 350 530 292 530 192 c 0
 530 64 417 -12 236 -12 c 0
 183 -12 121 -6 67 6 c 1
 59 16 l 1
 62 42 63 64 63 94 c 0
 63 118 62 146 61 187 c 1
 72 197 l 1
 148 202 l 1xca
 147 114 182 76 260 76 c 0
 336 76 378 112 378 183 c 0
 378 263 330 293 217 289 c 1
 209 298 l 1
 214 349 l 1
 381 540 l 1
 230 540 l 2
 171 540 158 525 149 446 c 1
 61 441 l 1xc6
 68 484 74 558 76 642 c 1
 86 652 l 1x96
 255 642 l 1
 505 642 l 1xca
 523 588 l 1xaa
 326 364 l 1xca
EndSplineSet
Substitution2: "'c2sc' Capitals to Small Capitals lookup 35 subtable" uni0292.sc
Substitution2: "'aalt' Access All Alternates lookup 0 subtable" uni0292.sc
EndChar

StartChar: uni01EE
Encoding: 494 494 69
Width: 566
GlyphClass: 2
Flags: MW
HStem: -12 88<221 298 221 326.5> 540 102<255 381> 588 54 632 20G<86 86>
VStem: 63 85 76 73 378 152<147.5 223>
AnchorPoint: "Anchor-17" 0 0 basechar 0
AnchorPoint: "Anchor-16" 0 0 basechar 0
AnchorPoint: "Anchor-15" 298 799 basechar 0
AnchorPoint: "Anchor-14" 0 0 basechar 0
AnchorPoint: "Anchor-13" 281 0 basechar 0
LayerCount: 2
Back
SplineSet
308 697 m 1xca
 288 697 l 1
 288 697 206 766 133 820 c 1
 156 860 l 1
 171 864 l 1
 218 840 270 817 298 805 c 1
 327 817 377 840 424 864 c 1
 439 860 l 1
 463 820 l 1
 390 766 308 697 308 697 c 1xca
326 364 m 1
 462 350 530 292 530 192 c 0
 530 64 417 -12 236 -12 c 0
 183 -12 121 -6 67 6 c 1
 59 16 l 1
 62 42 63 64 63 94 c 0
 63 118 62 146 61 187 c 1
 72 197 l 1
 148 202 l 1xca
 147 114 182 76 260 76 c 0
 336 76 378 112 378 183 c 0
 378 263 330 293 217 289 c 1
 209 298 l 1
 214 349 l 1
 381 540 l 1
 230 540 l 2
 171 540 158 525 149 446 c 1
 61 441 l 1xc6
 68 484 74 558 76 642 c 1
 86 652 l 1x96
 255 642 l 1
 505 642 l 1xca
 523 588 l 1xaa
 326 364 l 1
EndSplineSet
Fore
SplineSet
308 697 m 1xca
 288 697 l 1
 288 697 206 766 133 820 c 1
 156 860 l 1
 171 864 l 1
 218 840 270 817 298 805 c 1
 327 817 377 840 424 864 c 1
 439 860 l 1
 463 820 l 1
 390 766 308 697 308 697 c 1xca
326 364 m 1
 462 350 530 292 530 192 c 0
 530 64 417 -12 236 -12 c 0
 183 -12 121 -6 67 6 c 1
 59 16 l 1
 62 42 63 64 63 94 c 0
 63 118 62 146 61 187 c 1
 72 197 l 1
 148 202 l 1xca
 147 114 182 76 260 76 c 0
 336 76 378 112 378 183 c 0
 378 263 330 293 217 289 c 1
 209 298 l 1
 214 349 l 1
 381 540 l 1
 230 540 l 2
 171 540 158 525 149 446 c 1
 61 441 l 1xc6
 68 484 74 558 76 642 c 1
 86 652 l 1x96
 255 642 l 1
 505 642 l 1xca
 523 588 l 1xaa
 326 364 l 1
EndSplineSet
Substitution2: "'c2sc' Capitals to Small Capitals lookup 35 subtable" uni01EF.sc
Substitution2: "'aalt' Access All Alternates lookup 0 subtable" uni01EF.sc
EndChar

StartChar: F
Encoding: 70 70 70
Width: 531
GlyphClass: 2
Flags: MW
HStem: 0 76<158.5 300.5> 71 10<353 362> 269 82<345 346.5> 560 82<288 301.5 201 358.5> 576 9<49 55> 578 64 643 11<519 527>
VStem: 117 128<114.5 140 114.5 143>
AnchorPoint: "Anchor-17" 0 0 basechar 0
AnchorPoint: "Anchor-16" 0 0 basechar 0
AnchorPoint: "Anchor-15" 318 647 basechar 0
AnchorPoint: "Anchor-14" 0 0 basechar 0
AnchorPoint: "Anchor-13" 182 0 basechar 0
LayerCount: 2
Back
SplineSet
38 -11 m 1xb1
 45 56 l 1
 102 66 117 85 117 143 c 2
 118 524 l 2
 118 567 112 578 86 578 c 0xa5
 74 578 55 576 55 576 c 1
 49 585 l 1
 57 645 l 1xa9
 57 645 164 642 238 642 c 0xb1
 365 642 462 645 519 654 c 1
 527 643 l 1xa3
 527 643 511 552 506 460 c 1
 417 455 l 1
 417 455 419 483 419 496 c 0
 419 551 405 560 312 560 c 0
 264 560 259 557 258 526 c 2
 251 352 l 1
 345 351 l 2
 375 351 450 360 450 360 c 1
 457 351 l 1
 443 266 l 1
 443 266 369 269 324 269 c 0
 294 269 265 265 248 262 c 1
 245 140 l 2
 245 89 254 76 288 76 c 0xb1
 313 76 353 81 353 81 c 1
 362 71 l 1x71
 351 -4 l 1
 351 -4 246 0 195 0 c 0
 122 0 38 -11 38 -11 c 1xb1
EndSplineSet
Fore
SplineSet
38 -11 m 1xb1
 45 56 l 1
 102 66 117 85 117 143 c 2
 118 524 l 2
 118 567 112 578 86 578 c 0xa5
 74 578 55 576 55 576 c 1
 49 585 l 1
 57 645 l 1xa9
 57 645 164 642 238 642 c 0xb1
 365 642 462 645 519 654 c 1
 527 643 l 1xa3
 527 643 511 552 506 460 c 1
 417 455 l 1
 417 455 419 483 419 496 c 0
 419 551 405 560 312 560 c 0
 264 560 259 557 258 526 c 2
 251 352 l 1
 345 351 l 2
 375 351 450 360 450 360 c 1
 457 351 l 1
 443 266 l 1
 443 266 369 269 324 269 c 0
 294 269 265 265 248 262 c 1
 245 140 l 2
 245 89 254 76 288 76 c 0xb1
 313 76 353 81 353 81 c 1
 362 71 l 1x71
 351 -4 l 1
 351 -4 246 0 195 0 c 0
 122 0 38 -11 38 -11 c 1xb1
EndSplineSet
Substitution2: "'c2sc' Capitals to Small Capitals lookup 35 subtable" f.sc
Substitution2: "'aalt' Access All Alternates lookup 0 subtable" f.sc
Position2: "'cpsp' Capital Spacing lookup 0 subtable" dx=10 dy=0 dh=20 dv=0
EndChar

StartChar: G
Encoding: 71 71 71
Width: 654
GlyphClass: 2
Flags: MW
HStem: -12 91<297 381.5 297 398> 249 76<353 521.5> 559 95<300 399.5>
VStem: 29 150<254.5 411.5> 450 114<109 184.5 109 201 109 220.5>
AnchorPoint: "Anchor-17" 0 0 basechar 0
AnchorPoint: "Anchor-16" 0 0 basechar 0
AnchorPoint: "Anchor-15" 372 642 basechar 0
AnchorPoint: "Anchor-14" 0 0 basechar 0
AnchorPoint: "Anchor-13" 328 0 basechar 0
LayerCount: 2
Back
SplineSet
327 -12 m 0
 142 -12 29 108 29 303 c 0
 29 520 164 654 384 654 c 0
 472 654 582 629 582 629 c 1
 589 616 l 1
 589 616 569 537 563 434 c 1
 467 427 l 1
 467 427 470 452 470 482 c 0
 470 538 439 559 360 559 c 0
 240 559 179 488 179 337 c 0
 179 172 243 79 351 79 c 0
 412 79 450 106 450 106 c 1
 450 201 l 2
 450 240 441 249 405 249 c 2
 353 249 l 1
 348 257 l 1
 358 328 l 1
 381 328 441 325 497 325 c 0
 546 325 597 330 597 330 c 1
 604 292 l 1
 570 270 564 241 564 128 c 0
 564 90 566 60 571 41 c 1
 562 29 l 1
 562 29 469 -12 327 -12 c 0
EndSplineSet
Fore
SplineSet
327 -12 m 0
 142 -12 29 108 29 303 c 0
 29 520 164 654 384 654 c 0
 472 654 582 629 582 629 c 1
 589 616 l 1
 589 616 569 537 563 434 c 1
 467 427 l 1
 467 427 470 452 470 482 c 0
 470 538 439 559 360 559 c 0
 240 559 179 488 179 337 c 0
 179 172 243 79 351 79 c 0
 412 79 450 106 450 106 c 1
 450 201 l 2
 450 240 441 249 405 249 c 2
 353 249 l 1
 348 257 l 1
 358 328 l 1
 381 328 441 325 497 325 c 0
 546 325 597 330 597 330 c 1
 604 292 l 1
 570 270 564 241 564 128 c 0
 564 90 566 60 571 41 c 1
 562 29 l 1
 562 29 469 -12 327 -12 c 0
EndSplineSet
Substitution2: "'c2sc' Capitals to Small Capitals lookup 35 subtable" g.sc
Substitution2: "'aalt' Access All Alternates lookup 0 subtable" g.sc
Position2: "'cpsp' Capital Spacing lookup 0 subtable" dx=10 dy=0 dh=20 dv=0
EndChar

StartChar: Gbreve
Encoding: 286 286 72
Width: 654
GlyphClass: 2
Flags: MW
HStem: -12 91<297 381.5 297 398> 249 76<353 521.5> 559 95<300 399.5> 689 93<349.5 394.5 349.5 414>
VStem: 29 150<254.5 411.5> 450 114<109 184.5 109 201 109 220.5>
AnchorPoint: "Anchor-17" 0 0 basechar 0
AnchorPoint: "Anchor-16" 0 0 basechar 0
AnchorPoint: "Anchor-15" 372 841 basechar 0
AnchorPoint: "Anchor-14" 0 0 basechar 0
AnchorPoint: "Anchor-13" 328 0 basechar 0
LayerCount: 2
Back
SplineSet
372 689 m 0
 288 689 243 747 226 804 c 1
 253 838 l 1
 269 841 l 1
 288 802 327 782 372 782 c 0
 417 782 456 802 475 841 c 1
 491 838 l 1
 518 804 l 1
 501 747 456 689 372 689 c 0
327 -12 m 0
 142 -12 29 108 29 303 c 0
 29 520 164 654 384 654 c 0
 472 654 582 629 582 629 c 1
 589 616 l 1
 589 616 569 537 563 434 c 1
 467 427 l 1
 467 427 470 452 470 482 c 0
 470 538 439 559 360 559 c 0
 240 559 179 488 179 337 c 0
 179 172 243 79 351 79 c 0
 412 79 450 106 450 106 c 1
 450 201 l 2
 450 240 441 249 405 249 c 2
 353 249 l 1
 348 257 l 1
 358 328 l 1
 381 328 441 325 497 325 c 0
 546 325 597 330 597 330 c 1
 604 292 l 1
 570 270 564 241 564 128 c 0
 564 90 566 60 571 41 c 1
 562 29 l 1
 562 29 469 -12 327 -12 c 0
EndSplineSet
Fore
SplineSet
372 689 m 0
 288 689 243 747 226 804 c 1
 253 838 l 1
 269 841 l 1
 288 802 327 782 372 782 c 0
 417 782 456 802 475 841 c 1
 491 838 l 1
 518 804 l 1
 501 747 456 689 372 689 c 0
327 -12 m 0
 142 -12 29 108 29 303 c 0
 29 520 164 654 384 654 c 0
 472 654 582 629 582 629 c 1
 589 616 l 1
 589 616 569 537 563 434 c 1
 467 427 l 1
 467 427 470 452 470 482 c 0
 470 538 439 559 360 559 c 0
 240 559 179 488 179 337 c 0
 179 172 243 79 351 79 c 0
 412 79 450 106 450 106 c 1
 450 201 l 2
 450 240 441 249 405 249 c 2
 353 249 l 1
 348 257 l 1
 358 328 l 1
 381 328 441 325 497 325 c 0
 546 325 597 330 597 330 c 1
 604 292 l 1
 570 270 564 241 564 128 c 0
 564 90 566 60 571 41 c 1
 562 29 l 1
 562 29 469 -12 327 -12 c 0
EndSplineSet
Substitution2: "'c2sc' Capitals to Small Capitals lookup 35 subtable" gbreve.sc
Substitution2: "'aalt' Access All Alternates lookup 0 subtable" gbreve.sc
Position2: "'cpsp' Capital Spacing lookup 0 subtable" dx=10 dy=0 dh=20 dv=0
EndChar

StartChar: Gcaron
Encoding: 486 486 73
Width: 654
GlyphClass: 2
Flags: MW
HStem: -12 91<297 381.5 297 398> 249 76<353 521.5> 559 95<300 399.5>
VStem: 29 150<254.5 411.5> 450 114<109 184.5 109 201 109 220.5>
AnchorPoint: "Anchor-17" 0 0 basechar 0
AnchorPoint: "Anchor-16" 0 0 basechar 0
AnchorPoint: "Anchor-15" 372 799 basechar 0
AnchorPoint: "Anchor-14" 0 0 basechar 0
AnchorPoint: "Anchor-13" 328 0 basechar 0
LayerCount: 2
Back
SplineSet
362 697 m 1
 362 697 280 766 207 820 c 1
 230 860 l 1
 245 864 l 1
 292 840 344 817 372 805 c 1
 401 817 451 840 498 864 c 1
 513 860 l 1
 537 820 l 1
 464 766 382 697 382 697 c 1
 362 697 l 1
327 -12 m 0
 142 -12 29 108 29 303 c 0
 29 520 164 654 384 654 c 0
 472 654 582 629 582 629 c 1
 589 616 l 1
 589 616 569 537 563 434 c 1
 467 427 l 1
 467 427 470 452 470 482 c 0
 470 538 439 559 360 559 c 0
 240 559 179 488 179 337 c 0
 179 172 243 79 351 79 c 0
 412 79 450 106 450 106 c 1
 450 201 l 2
 450 240 441 249 405 249 c 2
 353 249 l 1
 348 257 l 1
 358 328 l 1
 381 328 441 325 497 325 c 0
 546 325 597 330 597 330 c 1
 604 292 l 1
 570 270 564 241 564 128 c 0
 564 90 566 60 571 41 c 1
 562 29 l 1
 562 29 469 -12 327 -12 c 0
EndSplineSet
Fore
SplineSet
362 697 m 1
 362 697 280 766 207 820 c 1
 230 860 l 1
 245 864 l 1
 292 840 344 817 372 805 c 1
 401 817 451 840 498 864 c 1
 513 860 l 1
 537 820 l 1
 464 766 382 697 382 697 c 1
 362 697 l 1
327 -12 m 0
 142 -12 29 108 29 303 c 0
 29 520 164 654 384 654 c 0
 472 654 582 629 582 629 c 1
 589 616 l 1
 589 616 569 537 563 434 c 1
 467 427 l 1
 467 427 470 452 470 482 c 0
 470 538 439 559 360 559 c 0
 240 559 179 488 179 337 c 0
 179 172 243 79 351 79 c 0
 412 79 450 106 450 106 c 1
 450 201 l 2
 450 240 441 249 405 249 c 2
 353 249 l 1
 348 257 l 1
 358 328 l 1
 381 328 441 325 497 325 c 0
 546 325 597 330 597 330 c 1
 604 292 l 1
 570 270 564 241 564 128 c 0
 564 90 566 60 571 41 c 1
 562 29 l 1
 562 29 469 -12 327 -12 c 0
EndSplineSet
Substitution2: "'c2sc' Capitals to Small Capitals lookup 35 subtable" gcaron.sc
Substitution2: "'aalt' Access All Alternates lookup 0 subtable" gcaron.sc
Position2: "'cpsp' Capital Spacing lookup 0 subtable" dx=10 dy=0 dh=20 dv=0
EndChar

StartChar: Gcircumflex
Encoding: 284 284 74
Width: 654
GlyphClass: 2
Flags: MW
HStem: -12 91<297 381.5 297 398> 249 76<353 521.5> 559 95<300 399.5>
VStem: 29 150<254.5 411.5> 450 114<109 184.5 109 201 109 220.5>
AnchorPoint: "Anchor-17" 0 0 basechar 0
AnchorPoint: "Anchor-16" 0 0 basechar 0
AnchorPoint: "Anchor-15" 378 898 basechar 0
AnchorPoint: "Anchor-14" 0 0 basechar 0
AnchorPoint: "Anchor-13" 328 0 basechar 0
LayerCount: 2
Back
SplineSet
261 700 m 1
 245 703 l 1
 217 743 l 1
 288 812 368 898 368 898 c 1
 388 898 l 1
 388 898 467 812 538 743 c 1
 510 703 l 1
 495 700 l 1
 452 734 404 766 378 784 c 1
 350 766 304 735 261 700 c 1
327 -12 m 0
 142 -12 29 108 29 303 c 0
 29 520 164 654 384 654 c 0
 472 654 582 629 582 629 c 1
 589 616 l 1
 589 616 569 537 563 434 c 1
 467 427 l 1
 467 427 470 452 470 482 c 0
 470 538 439 559 360 559 c 0
 240 559 179 488 179 337 c 0
 179 172 243 79 351 79 c 0
 412 79 450 106 450 106 c 1
 450 201 l 2
 450 240 441 249 405 249 c 2
 353 249 l 1
 348 257 l 1
 358 328 l 1
 381 328 441 325 497 325 c 0
 546 325 597 330 597 330 c 1
 604 292 l 1
 570 270 564 241 564 128 c 0
 564 90 566 60 571 41 c 1
 562 29 l 1
 562 29 469 -12 327 -12 c 0
EndSplineSet
Fore
SplineSet
261 700 m 1
 245 703 l 1
 217 743 l 1
 288 812 368 898 368 898 c 1
 388 898 l 1
 388 898 467 812 538 743 c 1
 510 703 l 1
 495 700 l 1
 452 734 404 766 378 784 c 1
 350 766 304 735 261 700 c 1
327 -12 m 0
 142 -12 29 108 29 303 c 0
 29 520 164 654 384 654 c 0
 472 654 582 629 582 629 c 1
 589 616 l 1
 589 616 569 537 563 434 c 1
 467 427 l 1
 467 427 470 452 470 482 c 0
 470 538 439 559 360 559 c 0
 240 559 179 488 179 337 c 0
 179 172 243 79 351 79 c 0
 412 79 450 106 450 106 c 1
 450 201 l 2
 450 240 441 249 405 249 c 2
 353 249 l 1
 348 257 l 1
 358 328 l 1
 381 328 441 325 497 325 c 0
 546 325 597 330 597 330 c 1
 604 292 l 1
 570 270 564 241 564 128 c 0
 564 90 566 60 571 41 c 1
 562 29 l 1
 562 29 469 -12 327 -12 c 0
EndSplineSet
Substitution2: "'c2sc' Capitals to Small Capitals lookup 35 subtable" gcircumflex.sc
Substitution2: "'aalt' Access All Alternates lookup 0 subtable" gcircumflex.sc
Position2: "'cpsp' Capital Spacing lookup 0 subtable" dx=10 dy=0 dh=20 dv=0
EndChar

StartChar: uni0122
Encoding: 290 290 75
Width: 654
GlyphClass: 2
Flags: MW
HStem: -12 91<297 381.5 297 398> 249 76<353 521.5> 559 95<300 399.5>
VStem: 29 150<254.5 411.5> 286 113<-172.5 -155.5> 450 114<109 184.5 109 201 109 220.5>
AnchorPoint: "Anchor-17" 0 0 basechar 0
AnchorPoint: "Anchor-16" 0 0 basechar 0
AnchorPoint: "Anchor-15" 372 642 basechar 0
AnchorPoint: "Anchor-14" 0 0 basechar 0
AnchorPoint: "Anchor-13" 308 -316 basechar 0
LayerCount: 2
Back
SplineSet
327 -12 m 0
 142 -12 29 108 29 303 c 0
 29 520 164 654 384 654 c 0
 472 654 582 629 582 629 c 1
 589 616 l 1
 589 616 569 537 563 434 c 1
 467 427 l 1
 467 427 470 452 470 482 c 0
 470 538 439 559 360 559 c 0
 240 559 179 488 179 337 c 0
 179 172 243 79 351 79 c 0
 412 79 450 106 450 106 c 1
 450 201 l 2
 450 240 441 249 405 249 c 2
 353 249 l 1
 348 257 l 1
 358 328 l 1
 381 328 441 325 497 325 c 0
 546 325 597 330 597 330 c 1
 604 292 l 1
 570 270 564 241 564 128 c 0
 564 90 566 60 571 41 c 1
 562 29 l 1
 562 29 469 -12 327 -12 c 0
253 -316 m 1
 217 -287 l 1
 217 -271 l 1
 257 -244 286 -203 286 -169 c 0
 286 -142 270 -116 251 -100 c 1
 253 -86 l 1
 276 -68 306 -52 331 -52 c 0
 370 -52 399 -85 399 -137 c 0
 399 -208 330 -274 253 -316 c 1
EndSplineSet
Fore
SplineSet
327 -12 m 0
 142 -12 29 108 29 303 c 0
 29 520 164 654 384 654 c 0
 472 654 582 629 582 629 c 1
 589 616 l 1
 589 616 569 537 563 434 c 1
 467 427 l 1
 467 427 470 452 470 482 c 0
 470 538 439 559 360 559 c 0
 240 559 179 488 179 337 c 0
 179 172 243 79 351 79 c 0
 412 79 450 106 450 106 c 1
 450 201 l 2
 450 240 441 249 405 249 c 2
 353 249 l 1
 348 257 l 1
 358 328 l 1
 381 328 441 325 497 325 c 0
 546 325 597 330 597 330 c 1
 604 292 l 1
 570 270 564 241 564 128 c 0
 564 90 566 60 571 41 c 1
 562 29 l 1
 562 29 469 -12 327 -12 c 0
253 -316 m 1
 217 -287 l 1
 217 -271 l 1
 257 -244 286 -203 286 -169 c 0
 286 -142 270 -116 251 -100 c 1
 253 -86 l 1
 276 -68 306 -52 331 -52 c 0
 370 -52 399 -85 399 -137 c 0
 399 -208 330 -274 253 -316 c 1
EndSplineSet
Substitution2: "'c2sc' Capitals to Small Capitals lookup 35 subtable" uni0123.sc
Substitution2: "'aalt' Access All Alternates lookup 0 subtable" uni0123.sc
Position2: "'cpsp' Capital Spacing lookup 0 subtable" dx=10 dy=0 dh=20 dv=0
EndChar

StartChar: Gdotaccent
Encoding: 288 288 76
Width: 654
GlyphClass: 2
Flags: MW
HStem: -12 91<297 381.5 297 398> 249 76<353 521.5> 559 95<300 399.5> 696 151<353 390.5>
VStem: 29 150<254.5 411.5> 298 147<752.5 790.5> 450 114<109 184.5 109 201 109 220.5>
AnchorPoint: "Anchor-17" 0 0 basechar 0
AnchorPoint: "Anchor-16" 0 0 basechar 0
AnchorPoint: "Anchor-15" 372 847 basechar 0
AnchorPoint: "Anchor-14" 0 0 basechar 0
AnchorPoint: "Anchor-13" 328 0 basechar 0
LayerCount: 2
Back
SplineSet
367 696 m 0
 322 696 298 726 298 767 c 0
 298 814 329 847 377 847 c 0
 421 847 445 817 445 776 c 0
 445 729 414 696 367 696 c 0
327 -12 m 0
 142 -12 29 108 29 303 c 0
 29 520 164 654 384 654 c 0
 472 654 582 629 582 629 c 1
 589 616 l 1
 589 616 569 537 563 434 c 1
 467 427 l 1
 467 427 470 452 470 482 c 0
 470 538 439 559 360 559 c 0
 240 559 179 488 179 337 c 0
 179 172 243 79 351 79 c 0
 412 79 450 106 450 106 c 1
 450 201 l 2
 450 240 441 249 405 249 c 2
 353 249 l 1
 348 257 l 1
 358 328 l 1
 381 328 441 325 497 325 c 0
 546 325 597 330 597 330 c 1
 604 292 l 1
 570 270 564 241 564 128 c 0
 564 90 566 60 571 41 c 1
 562 29 l 1xea
 562 29 469 -12 327 -12 c 0
EndSplineSet
Fore
SplineSet
367 696 m 0
 322 696 298 726 298 767 c 0
 298 814 329 847 377 847 c 0
 421 847 445 817 445 776 c 0
 445 729 414 696 367 696 c 0
327 -12 m 0
 142 -12 29 108 29 303 c 0
 29 520 164 654 384 654 c 0
 472 654 582 629 582 629 c 1
 589 616 l 1
 589 616 569 537 563 434 c 1
 467 427 l 1
 467 427 470 452 470 482 c 0
 470 538 439 559 360 559 c 0
 240 559 179 488 179 337 c 0
 179 172 243 79 351 79 c 0
 412 79 450 106 450 106 c 1
 450 201 l 2
 450 240 441 249 405 249 c 2
 353 249 l 1
 348 257 l 1
 358 328 l 1
 381 328 441 325 497 325 c 0
 546 325 597 330 597 330 c 1
 604 292 l 1
 570 270 564 241 564 128 c 0
 564 90 566 60 571 41 c 1
 562 29 l 1xea
 562 29 469 -12 327 -12 c 0
EndSplineSet
Substitution2: "'c2sc' Capitals to Small Capitals lookup 35 subtable" gdotaccent.sc
Substitution2: "'aalt' Access All Alternates lookup 0 subtable" gdotaccent.sc
Position2: "'cpsp' Capital Spacing lookup 0 subtable" dx=10 dy=0 dh=20 dv=0
EndChar

StartChar: uni1E20
Encoding: 7712 7712 77
Width: 654
GlyphClass: 2
Flags: MW
HStem: -12 91<297 381.5 297 398> 249 76<353 521.5> 559 95<300 399.5> 709 83<358.5 370> 785 13<515 523>
VStem: 29 150<254.5 411.5> 450 114<109 184.5 109 201 109 220.5>
AnchorPoint: "Anchor-17" 0 0 basechar 0
AnchorPoint: "Anchor-16" 0 0 basechar 0
AnchorPoint: "Anchor-15" 372 780 basechar 0
AnchorPoint: "Anchor-14" 0 0 basechar 0
AnchorPoint: "Anchor-13" 328 0 basechar 0
LayerCount: 2
Back
SplineSet
231 708 m 1xf6
 220 719 l 1
 234 793 l 1
 234 793 329 792 388 792 c 0
 438 792 515 798 515 798 c 1xf6
 523 785 l 1xee
 511 710 l 1
 370 709 l 2
 311 709 231 708 231 708 c 1xf6
327 -12 m 0
 142 -12 29 108 29 303 c 0
 29 520 164 654 384 654 c 0
 472 654 582 629 582 629 c 1
 589 616 l 1
 589 616 569 537 563 434 c 1
 467 427 l 1
 467 427 470 452 470 482 c 0
 470 538 439 559 360 559 c 0
 240 559 179 488 179 337 c 0
 179 172 243 79 351 79 c 0
 412 79 450 106 450 106 c 1
 450 201 l 2
 450 240 441 249 405 249 c 2
 353 249 l 1
 348 257 l 1
 358 328 l 1
 381 328 441 325 497 325 c 0
 546 325 597 330 597 330 c 1
 604 292 l 1
 570 270 564 241 564 128 c 0
 564 90 566 60 571 41 c 1
 562 29 l 1
 562 29 469 -12 327 -12 c 0
EndSplineSet
Fore
SplineSet
231 708 m 1xf6
 220 719 l 1
 234 793 l 1
 234 793 329 792 388 792 c 0
 438 792 515 798 515 798 c 1xf6
 523 785 l 1xee
 511 710 l 1
 370 709 l 2
 311 709 231 708 231 708 c 1xf6
327 -12 m 0
 142 -12 29 108 29 303 c 0
 29 520 164 654 384 654 c 0
 472 654 582 629 582 629 c 1
 589 616 l 1
 589 616 569 537 563 434 c 1
 467 427 l 1
 467 427 470 452 470 482 c 0
 470 538 439 559 360 559 c 0
 240 559 179 488 179 337 c 0
 179 172 243 79 351 79 c 0
 412 79 450 106 450 106 c 1
 450 201 l 2
 450 240 441 249 405 249 c 2
 353 249 l 1
 348 257 l 1
 358 328 l 1
 381 328 441 325 497 325 c 0
 546 325 597 330 597 330 c 1
 604 292 l 1
 570 270 564 241 564 128 c 0
 564 90 566 60 571 41 c 1
 562 29 l 1
 562 29 469 -12 327 -12 c 0
EndSplineSet
Substitution2: "'c2sc' Capitals to Small Capitals lookup 35 subtable" uni1E21.sc
Substitution2: "'aalt' Access All Alternates lookup 0 subtable" uni1E21.sc
Position2: "'cpsp' Capital Spacing lookup 0 subtable" dx=10 dy=0 dh=20 dv=0
EndChar

StartChar: uni01E4
Encoding: 484 484 78
Width: 665
GlyphClass: 1
Flags: MW
HStem: -12 88<297 371.5 297 384> 144 56 145 57.5 249 8<348 405 348 353> 292 33 559 95<299.5 399.5>
VStem: 29 150<252 411 252 411.5> 450 114<109.5 128 128 144 144 144 109.5 201 109.5 220.5> 470 93<434 510>
LayerCount: 2
Back
SplineSet
625 145 m 1xbf
 564 145 l 1
 564 128 l 2
 564 91 566 60 571 41 c 1
 562 29 l 1xb7
 530 14 441 -12 327 -12 c 0
 142 -12 29 108 29 303 c 0
 29 520 164 654 384 654 c 0
 452 654 544 636 582 629 c 1
 589 616 l 1
 583 593 567 516 563 434 c 1
 467 427 l 1
 468 442 470 460 470 482 c 0xd680
 470 538 439 559 360 559 c 0
 239 559 179 487 179 335 c 0
 179 169 243 76 351 76 c 0
 392 76 431 90 450 102 c 1
 450 144 l 1
 415 144 369 143 336 143 c 1
 331 152 l 1
 338 200 l 1xd7
 370 200 415 200 450 199 c 1
 450 201 l 2
 450 240 441 249 405 249 c 2
 353 249 l 1
 348 257 l 1
 358 328 l 1
 399 327 452 325 497 325 c 0
 535 325 583 328 597 330 c 1
 604 292 l 1
 579 276 569 256 566 201 c 1
 624 204 l 1
 631 192 l 1
 625 145 l 1xbf
EndSplineSet
Fore
SplineSet
625 145 m 1xbf
 564 145 l 1
 564 128 l 2
 564 91 566 60 571 41 c 1
 562 29 l 1xb7
 530 14 441 -12 327 -12 c 0
 142 -12 29 108 29 303 c 0
 29 520 164 654 384 654 c 0
 452 654 544 636 582 629 c 1
 589 616 l 1
 583 593 567 516 563 434 c 1
 467 427 l 1
 468 442 470 460 470 482 c 0xd680
 470 538 439 559 360 559 c 0
 239 559 179 487 179 335 c 0
 179 169 243 76 351 76 c 0
 392 76 431 90 450 102 c 1
 450 144 l 1
 415 144 369 143 336 143 c 1
 331 152 l 1
 338 200 l 1xd7
 370 200 415 200 450 199 c 1
 450 201 l 2
 450 240 441 249 405 249 c 2
 353 249 l 1
 348 257 l 1
 358 328 l 1
 399 327 452 325 497 325 c 0
 535 325 583 328 597 330 c 1
 604 292 l 1
 579 276 569 256 566 201 c 1
 624 204 l 1
 631 192 l 1
 625 145 l 1xbf
EndSplineSet
Substitution2: "'c2sc' Capitals to Small Capitals lookup 35 subtable" uni01E5.sc
Substitution2: "'aalt' Access All Alternates lookup 0 subtable" uni01E5.sc
EndChar

StartChar: H
Encoding: 72 72 79
Width: 747
GlyphClass: 2
Flags: MW
HStem: 0 63<173 290> 285 80<381 390> 578 64 629 20G<322 322 707 707>
VStem: 118 127<104.5 526> 500 128<155 186.5 108 284 108 284>
AnchorPoint: "Anchor-17" 0 0 basechar 0
AnchorPoint: "Anchor-16" 374 321 basechar 0
AnchorPoint: "Anchor-15" 374 642 basechar 0
AnchorPoint: "Anchor-14" 0 0 basechar 0
AnchorPoint: "Anchor-13" 374 0 basechar 0
LayerCount: 2
Back
SplineSet
39 -9 m 1xec
 46 55 l 1
 103 66 118 83 118 139 c 2
 118 526 l 2
 118 568 111 578 82 578 c 2
 52 577 l 1
 47 585 l 1
 54 643 l 1
 173 642 l 2xec
 201 642 259 645 322 649 c 1
 316 583 l 1xdc
 266 575 259 566 256 511 c 2
 250 367 l 1
 381 365 l 2
 422 365 452 367 500 372 c 1
 500 526 l 2
 500 567 493 578 464 578 c 2
 433 577 l 1
 428 585 l 1
 436 643 l 1
 562 642 l 2xec
 588 642 643 645 707 649 c 1
 702 584 l 1xdc
 653 577 642 567 640 529 c 0
 633 409 628 237 628 136 c 0
 628 80 637 64 669 64 c 0
 683 64 698 66 707 67 c 1
 711 60 l 1
 702 -3 l 1
 664 -2 600 0 558 0 c 0
 529 0 463 -1 420 -2 c 1
 428 62 l 1
 485 63 500 83 500 155 c 2
 500 284 l 1
 390 285 l 2
 372 285 306 281 248 275 c 1
 245 132 l 2
 245 77 253 63 284 63 c 0
 296 63 312 65 321 66 c 1
 326 60 l 1
 317 -3 l 1
 293 -2 227 0 197 0 c 0
 149 0 71 -5 39 -9 c 1xec
EndSplineSet
Fore
SplineSet
39 -9 m 1xec
 46 55 l 1
 103 66 118 83 118 139 c 2
 118 526 l 2
 118 568 111 578 82 578 c 2
 52 577 l 1
 47 585 l 1
 54 643 l 1
 173 642 l 2xec
 201 642 259 645 322 649 c 1
 316 583 l 1xdc
 266 575 259 566 256 511 c 2
 250 367 l 1
 381 365 l 2
 422 365 452 367 500 372 c 1
 500 526 l 2
 500 567 493 578 464 578 c 2
 433 577 l 1
 428 585 l 1
 436 643 l 1
 562 642 l 2xec
 588 642 643 645 707 649 c 1
 702 584 l 1xdc
 653 577 642 567 640 529 c 0
 633 409 628 237 628 136 c 0
 628 80 637 64 669 64 c 0
 683 64 698 66 707 67 c 1
 711 60 l 1
 702 -3 l 1
 664 -2 600 0 558 0 c 0
 529 0 463 -1 420 -2 c 1
 428 62 l 1
 485 63 500 83 500 155 c 2
 500 284 l 1
 390 285 l 2
 372 285 306 281 248 275 c 1
 245 132 l 2
 245 77 253 63 284 63 c 0
 296 63 312 65 321 66 c 1
 326 60 l 1
 317 -3 l 1
 293 -2 227 0 197 0 c 0
 149 0 71 -5 39 -9 c 1xec
EndSplineSet
Substitution2: "'c2sc' Capitals to Small Capitals lookup 35 subtable" h.sc
Substitution2: "'aalt' Access All Alternates lookup 0 subtable" h.sc
Position2: "'cpsp' Capital Spacing lookup 0 subtable" dx=10 dy=0 dh=20 dv=0
EndChar

StartChar: Hbar
Encoding: 294 294 80
Width: 745
GlyphClass: 2
Flags: MW
HStem: 0 63<171.5 289> 285 80<380 389> 444 56<499 499> 445 59<712 712 712 721> 490 14<712 725> 578 64 629 20G<321 321 706 706>
VStem: 117 127<104.5 443> 117 138<139 511 443 511 500 511 499 526 499 547> 499 128<155 175.5 108 284 108 284> 499 139<372 506.5 444 506.5 502 506.5 502 526 502 546.5>
AnchorPoint: "Anchor-17" 0 0 basechar 0
AnchorPoint: "Anchor-16" 369 324 basechar 0
AnchorPoint: "Anchor-15" 372 647 basechar 0
AnchorPoint: "Anchor-14" 0 0 basechar 0
AnchorPoint: "Anchor-13" 377 0 basechar 0
LayerCount: 2
Back
SplineSet
721 445 m 1x5520
 635 445 l 1x5540
 630 338 627 215 627 136 c 0
 627 80 636 64 668 64 c 0
 681 64 697 66 706 67 c 1
 710 60 l 1
 701 -3 l 1
 663 -2 599 0 557 0 c 0
 528 0 462 -1 419 -2 c 1
 427 62 l 1
 483 63 499 83 499 155 c 2
 499 284 l 1
 389 285 l 2
 371 285 305 281 247 275 c 1
 244 132 l 2
 244 77 252 63 283 63 c 0
 295 63 311 65 320 66 c 1
 325 60 l 1
 316 -3 l 1
 292 -2 226 0 196 0 c 0
 147 0 70 -5 38 -9 c 1
 44 55 l 1
 102 66 117 83 117 139 c 2
 117 443 l 1
 31 443 l 1
 21 452 l 1
 28 500 l 1
 117 500 l 1
 117 526 l 2
 117 568 110 578 81 578 c 2
 51 577 l 1
 45 585 l 1
 53 643 l 1
 172 642 l 2xe540
 200 642 257 645 321 649 c 1
 315 583 l 1x62c0
 265 575 258 566 255 511 c 2
 255 499 l 1
 399 499 l 2
 430 499 465 499 499 500 c 1
 499 526 l 2
 499 567 492 578 463 578 c 2
 432 577 l 1
 427 585 l 1
 435 643 l 1
 561 642 l 2x64a0
 587 642 642 645 706 649 c 1
 701 584 l 1
 652 577 641 567 639 529 c 0
 638 520 638 511 638 502 c 1
 712 504 l 1x5320
 725 490 l 1x4d20
 721 445 l 1x5520
499 372 m 1
 499 444 l 1
 375 444 l 1
 252 444 l 1x6540
 249 367 l 1
 380 365 l 2
 421 365 451 367 499 372 c 1
EndSplineSet
Fore
SplineSet
721 445 m 1x5520
 635 445 l 1x5540
 630 338 627 215 627 136 c 0
 627 80 636 64 668 64 c 0
 681 64 697 66 706 67 c 1
 710 60 l 1
 701 -3 l 1
 663 -2 599 0 557 0 c 0
 528 0 462 -1 419 -2 c 1
 427 62 l 1
 483 63 499 83 499 155 c 2
 499 284 l 1
 389 285 l 2
 371 285 305 281 247 275 c 1
 244 132 l 2
 244 77 252 63 283 63 c 0
 295 63 311 65 320 66 c 1
 325 60 l 1
 316 -3 l 1
 292 -2 226 0 196 0 c 0
 147 0 70 -5 38 -9 c 1
 44 55 l 1
 102 66 117 83 117 139 c 2
 117 443 l 1
 31 443 l 1
 21 452 l 1
 28 500 l 1
 117 500 l 1
 117 526 l 2
 117 568 110 578 81 578 c 2
 51 577 l 1
 45 585 l 1
 53 643 l 1
 172 642 l 2xe540
 200 642 257 645 321 649 c 1
 315 583 l 1x62c0
 265 575 258 566 255 511 c 2
 255 499 l 1
 399 499 l 2
 430 499 465 499 499 500 c 1
 499 526 l 2
 499 567 492 578 463 578 c 2
 432 577 l 1
 427 585 l 1
 435 643 l 1
 561 642 l 2x64a0
 587 642 642 645 706 649 c 1
 701 584 l 1
 652 577 641 567 639 529 c 0
 638 520 638 511 638 502 c 1
 712 504 l 1x5320
 725 490 l 1x4d20
 721 445 l 1x5520
499 372 m 1
 499 444 l 1
 375 444 l 1
 252 444 l 1x6540
 249 367 l 1
 380 365 l 2
 421 365 451 367 499 372 c 1
EndSplineSet
Substitution2: "'c2sc' Capitals to Small Capitals lookup 35 subtable" hbar.sc
Substitution2: "'aalt' Access All Alternates lookup 0 subtable" hbar.sc
Position2: "'cpsp' Capital Spacing lookup 0 subtable" dx=10 dy=0 dh=20 dv=0
EndChar

StartChar: uni1E2A
Encoding: 7722 7722 81
Width: 747
GlyphClass: 2
Flags: MW
HStem: -225 92<351.5 396.5 351.5 416> 0 63<173 290> 285 80<381 390> 578 64 629 20G<322 322 707 707>
VStem: 118 127<104.5 526> 500 128<155 186.5 108 284 108 284>
AnchorPoint: "Anchor-17" 0 0 basechar 0
AnchorPoint: "Anchor-16" 374 321 basechar 0
AnchorPoint: "Anchor-15" 374 642 basechar 0
AnchorPoint: "Anchor-14" 0 0 basechar 0
AnchorPoint: "Anchor-13" 374 -225 basechar 0
LayerCount: 2
Back
SplineSet
39 -9 m 1xf6
 46 55 l 1
 103 66 118 83 118 139 c 2
 118 526 l 2
 118 568 111 578 82 578 c 2
 52 577 l 1
 47 585 l 1
 54 643 l 1
 173 642 l 2xf6
 201 642 259 645 322 649 c 1
 316 583 l 1xee
 266 575 259 566 256 511 c 2
 250 367 l 1
 381 365 l 2
 422 365 452 367 500 372 c 1
 500 526 l 2
 500 567 493 578 464 578 c 2
 433 577 l 1
 428 585 l 1
 436 643 l 1
 562 642 l 2xf6
 588 642 643 645 707 649 c 1
 702 584 l 1xee
 653 577 642 567 640 529 c 0
 633 409 628 237 628 136 c 0
 628 80 637 64 669 64 c 0
 683 64 698 66 707 67 c 1
 711 60 l 1
 702 -3 l 1
 664 -2 600 0 558 0 c 0
 529 0 463 -1 420 -2 c 1
 428 62 l 1
 485 63 500 83 500 155 c 2
 500 284 l 1
 390 285 l 2
 372 285 306 281 248 275 c 1
 245 132 l 2
 245 77 253 63 284 63 c 0
 296 63 312 65 321 66 c 1
 326 60 l 1
 317 -3 l 1
 293 -2 227 0 197 0 c 0
 149 0 71 -5 39 -9 c 1xf6
374 -225 m 0
 290 -225 245 -163 228 -101 c 1
 255 -68 l 1
 271 -65 l 1
 290 -110 329 -133 374 -133 c 0
 419 -133 458 -110 477 -65 c 1
 493 -68 l 1
 520 -101 l 1
 503 -163 458 -225 374 -225 c 0
EndSplineSet
Fore
SplineSet
39 -9 m 1xf6
 46 55 l 1
 103 66 118 83 118 139 c 2
 118 526 l 2
 118 568 111 578 82 578 c 2
 52 577 l 1
 47 585 l 1
 54 643 l 1
 173 642 l 2xf6
 201 642 259 645 322 649 c 1
 316 583 l 1xee
 266 575 259 566 256 511 c 2
 250 367 l 1
 381 365 l 2
 422 365 452 367 500 372 c 1
 500 526 l 2
 500 567 493 578 464 578 c 2
 433 577 l 1
 428 585 l 1
 436 643 l 1
 562 642 l 2xf6
 588 642 643 645 707 649 c 1
 702 584 l 1xee
 653 577 642 567 640 529 c 0
 633 409 628 237 628 136 c 0
 628 80 637 64 669 64 c 0
 683 64 698 66 707 67 c 1
 711 60 l 1
 702 -3 l 1
 664 -2 600 0 558 0 c 0
 529 0 463 -1 420 -2 c 1
 428 62 l 1
 485 63 500 83 500 155 c 2
 500 284 l 1
 390 285 l 2
 372 285 306 281 248 275 c 1
 245 132 l 2
 245 77 253 63 284 63 c 0
 296 63 312 65 321 66 c 1
 326 60 l 1
 317 -3 l 1
 293 -2 227 0 197 0 c 0
 149 0 71 -5 39 -9 c 1xf6
374 -225 m 0
 290 -225 245 -163 228 -101 c 1
 255 -68 l 1
 271 -65 l 1
 290 -110 329 -133 374 -133 c 0
 419 -133 458 -110 477 -65 c 1
 493 -68 l 1
 520 -101 l 1
 503 -163 458 -225 374 -225 c 0
EndSplineSet
Substitution2: "'c2sc' Capitals to Small Capitals lookup 35 subtable" uni1E2B.sc
Substitution2: "'aalt' Access All Alternates lookup 0 subtable" uni1E2B.sc
Position2: "'cpsp' Capital Spacing lookup 0 subtable" dx=10 dy=0 dh=20 dv=0
EndChar

StartChar: uni021E
Encoding: 542 542 82
Width: 747
GlyphClass: 2
Flags: MW
HStem: 0 63<173 290> 285 80<381 390> 578 64 629 20G<322 322 707 707>
VStem: 118 127<104.5 526> 500 128<155 186.5 108 284 108 284>
AnchorPoint: "Anchor-17" 0 0 basechar 0
AnchorPoint: "Anchor-16" 374 321 basechar 0
AnchorPoint: "Anchor-15" 374 799 basechar 0
AnchorPoint: "Anchor-14" 0 0 basechar 0
AnchorPoint: "Anchor-13" 374 0 basechar 0
LayerCount: 2
Back
SplineSet
364 697 m 1xec
 364 697 282 766 209 820 c 1
 232 860 l 1
 247 864 l 1
 294 840 346 817 374 805 c 1
 403 817 453 840 500 864 c 1
 515 860 l 1
 539 820 l 1
 466 766 384 697 384 697 c 1
 364 697 l 1xec
39 -9 m 1
 46 55 l 1
 103 66 118 83 118 139 c 2
 118 526 l 2
 118 568 111 578 82 578 c 2
 52 577 l 1
 47 585 l 1
 54 643 l 1
 173 642 l 2xec
 201 642 259 645 322 649 c 1
 316 583 l 1xdc
 266 575 259 566 256 511 c 2
 250 367 l 1
 381 365 l 2
 422 365 452 367 500 372 c 1
 500 526 l 2
 500 567 493 578 464 578 c 2
 433 577 l 1
 428 585 l 1
 436 643 l 1
 562 642 l 2xec
 588 642 643 645 707 649 c 1
 702 584 l 1xdc
 653 577 642 567 640 529 c 0
 633 409 628 237 628 136 c 0
 628 80 637 64 669 64 c 0
 683 64 698 66 707 67 c 1
 711 60 l 1
 702 -3 l 1
 664 -2 600 0 558 0 c 0
 529 0 463 -1 420 -2 c 1
 428 62 l 1
 485 63 500 83 500 155 c 2
 500 284 l 1
 390 285 l 2
 372 285 306 281 248 275 c 1
 245 132 l 2
 245 77 253 63 284 63 c 0
 296 63 312 65 321 66 c 1
 326 60 l 1
 317 -3 l 1
 293 -2 227 0 197 0 c 0
 149 0 71 -5 39 -9 c 1
EndSplineSet
Fore
SplineSet
364 697 m 1xec
 364 697 282 766 209 820 c 1
 232 860 l 1
 247 864 l 1
 294 840 346 817 374 805 c 1
 403 817 453 840 500 864 c 1
 515 860 l 1
 539 820 l 1
 466 766 384 697 384 697 c 1
 364 697 l 1xec
39 -9 m 1
 46 55 l 1
 103 66 118 83 118 139 c 2
 118 526 l 2
 118 568 111 578 82 578 c 2
 52 577 l 1
 47 585 l 1
 54 643 l 1
 173 642 l 2xec
 201 642 259 645 322 649 c 1
 316 583 l 1xdc
 266 575 259 566 256 511 c 2
 250 367 l 1
 381 365 l 2
 422 365 452 367 500 372 c 1
 500 526 l 2
 500 567 493 578 464 578 c 2
 433 577 l 1
 428 585 l 1
 436 643 l 1
 562 642 l 2xec
 588 642 643 645 707 649 c 1
 702 584 l 1xdc
 653 577 642 567 640 529 c 0
 633 409 628 237 628 136 c 0
 628 80 637 64 669 64 c 0
 683 64 698 66 707 67 c 1
 711 60 l 1
 702 -3 l 1
 664 -2 600 0 558 0 c 0
 529 0 463 -1 420 -2 c 1
 428 62 l 1
 485 63 500 83 500 155 c 2
 500 284 l 1
 390 285 l 2
 372 285 306 281 248 275 c 1
 245 132 l 2
 245 77 253 63 284 63 c 0
 296 63 312 65 321 66 c 1
 326 60 l 1
 317 -3 l 1
 293 -2 227 0 197 0 c 0
 149 0 71 -5 39 -9 c 1
EndSplineSet
Substitution2: "'c2sc' Capitals to Small Capitals lookup 35 subtable" uni021F.sc
Substitution2: "'aalt' Access All Alternates lookup 0 subtable" uni021F.sc
EndChar

